<svg xmlns="http://www.w3.org/2000/svg" xmlns:xlink="http://www.w3.org/1999/xlink" width="1000" zoomAndPan="magnify" viewBox="0 0 750 749.999995" height="1000" preserveAspectRatio="xMidYMid meet" version="1.0"><defs><clipPath id="fb8adcab79"><path d="M 15.886719 15.886719 L 734.386719 15.886719 L 734.386719 734.386719 L 15.886719 734.386719 Z M 15.886719 15.886719 " clip-rule="nonzero"/></clipPath></defs><g clip-path="url(#fb8adcab79)"><path fill="#080d12" d="M 734.386719 375.136719 C 734.386719 381.015625 734.242188 386.894531 733.953125 392.765625 C 733.667969 398.636719 733.234375 404.5 732.65625 410.351562 C 732.082031 416.203125 731.363281 422.035156 730.5 427.851562 C 729.636719 433.667969 728.632812 439.457031 727.484375 445.222656 C 726.335938 450.992188 725.050781 456.726562 723.621094 462.429688 C 722.191406 468.132812 720.625 473.796875 718.917969 479.421875 C 717.210938 485.046875 715.367188 490.628906 713.386719 496.164062 C 711.40625 501.699219 709.292969 507.183594 707.042969 512.617188 C 704.792969 518.046875 702.410156 523.421875 699.894531 528.738281 C 697.382812 534.050781 694.738281 539.300781 691.96875 544.488281 C 689.195312 549.671875 686.300781 554.785156 683.277344 559.828125 C 680.253906 564.871094 677.109375 569.839844 673.84375 574.726562 C 670.578125 579.613281 667.191406 584.421875 663.691406 589.144531 C 660.1875 593.863281 656.570312 598.5 652.839844 603.042969 C 649.113281 607.589844 645.273438 612.039062 641.324219 616.394531 C 637.375 620.75 633.324219 625.007812 629.164062 629.164062 C 625.007812 633.324219 620.75 637.375 616.394531 641.324219 C 612.039062 645.273438 607.589844 649.113281 603.042969 652.839844 C 598.5 656.570312 593.863281 660.1875 589.144531 663.691406 C 584.421875 667.191406 579.613281 670.578125 574.726562 673.84375 C 569.835938 677.109375 564.871094 680.253906 559.828125 683.277344 C 554.785156 686.300781 549.671875 689.195312 544.488281 691.96875 C 539.300781 694.738281 534.050781 697.382812 528.738281 699.894531 C 523.421875 702.410156 518.046875 704.792969 512.617188 707.042969 C 507.183594 709.292969 501.703125 711.40625 496.164062 713.386719 C 490.628906 715.367188 485.046875 717.210938 479.421875 718.917969 C 473.796875 720.625 468.132812 722.191406 462.429688 723.621094 C 456.726562 725.050781 450.992188 726.335938 445.222656 727.484375 C 439.457031 728.632812 433.667969 729.636719 427.851562 730.5 C 422.035156 731.363281 416.203125 732.082031 410.351562 732.65625 C 404.5 733.234375 398.636719 733.667969 392.765625 733.957031 C 386.894531 734.242188 381.015625 734.386719 375.136719 734.386719 C 369.257812 734.386719 363.382812 734.242188 357.511719 733.953125 C 351.636719 733.667969 345.777344 733.234375 339.925781 732.65625 C 334.074219 732.082031 328.242188 731.363281 322.425781 730.5 C 316.609375 729.636719 310.816406 728.632812 305.050781 727.484375 C 299.285156 726.335938 293.550781 725.050781 287.847656 723.621094 C 282.144531 722.191406 276.480469 720.625 270.851562 718.917969 C 265.226562 717.210938 259.644531 715.367188 254.109375 713.386719 C 248.574219 711.40625 243.089844 709.292969 237.660156 707.042969 C 232.226562 704.792969 226.855469 702.410156 221.539062 699.894531 C 216.222656 697.382812 210.972656 694.738281 205.789062 691.96875 C 200.601562 689.195312 195.488281 686.300781 190.445312 683.277344 C 185.402344 680.253906 180.4375 677.109375 175.550781 673.84375 C 170.660156 670.578125 165.855469 667.191406 161.132812 663.691406 C 156.410156 660.1875 151.777344 656.570312 147.230469 652.839844 C 142.6875 649.113281 138.238281 645.273438 133.878906 641.324219 C 129.523438 637.375 125.265625 633.324219 121.109375 629.164062 C 116.953125 625.007812 112.898438 620.75 108.949219 616.394531 C 105.003906 612.039062 101.164062 607.589844 97.433594 603.042969 C 93.703125 598.5 90.085938 593.863281 86.585938 589.144531 C 83.082031 584.421875 79.699219 579.613281 76.433594 574.726562 C 73.164062 569.839844 70.019531 564.871094 67 559.828125 C 63.976562 554.785156 61.078125 549.671875 58.308594 544.488281 C 55.535156 539.300781 52.894531 534.050781 50.378906 528.738281 C 47.867188 523.421875 45.484375 518.046875 43.234375 512.617188 C 40.984375 507.183594 38.867188 501.703125 36.886719 496.164062 C 34.90625 490.628906 33.0625 485.046875 31.355469 479.421875 C 29.648438 473.796875 28.082031 468.132812 26.652344 462.429688 C 25.226562 456.726562 23.9375 450.992188 22.789062 445.222656 C 21.644531 439.457031 20.640625 433.667969 19.777344 427.851562 C 18.914062 422.035156 18.195312 416.203125 17.617188 410.351562 C 17.042969 404.5 16.609375 398.636719 16.320312 392.765625 C 16.03125 386.894531 15.886719 381.015625 15.886719 375.136719 C 15.886719 369.257812 16.03125 363.382812 16.320312 357.511719 C 16.609375 351.636719 17.042969 345.777344 17.617188 339.925781 C 18.195312 334.074219 18.914062 328.242188 19.777344 322.425781 C 20.640625 316.609375 21.644531 310.816406 22.789062 305.050781 C 23.9375 299.285156 25.226562 293.550781 26.652344 287.847656 C 28.082031 282.144531 29.648438 276.480469 31.355469 270.851562 C 33.0625 265.226562 34.90625 259.644531 36.886719 254.109375 C 38.867188 248.574219 40.984375 243.089844 43.234375 237.660156 C 45.484375 232.226562 47.867188 226.855469 50.378906 221.539062 C 52.894531 216.222656 55.535156 210.972656 58.308594 205.789062 C 61.078125 200.601562 63.976562 195.488281 67 190.445312 C 70.019531 185.402344 73.164062 180.4375 76.433594 175.550781 C 79.699219 170.660156 83.082031 165.855469 86.585938 161.132812 C 90.085938 156.410156 93.703125 151.777344 97.433594 147.230469 C 101.164062 142.6875 105.003906 138.238281 108.949219 133.878906 C 112.898438 129.523438 116.953125 125.265625 121.109375 121.109375 C 125.265625 116.953125 129.523438 112.898438 133.878906 108.949219 C 138.238281 105.003906 142.6875 101.164062 147.230469 97.433594 C 151.777344 93.703125 156.410156 90.089844 161.132812 86.585938 C 165.855469 83.082031 170.660156 79.699219 175.550781 76.433594 C 180.4375 73.164062 185.402344 70.019531 190.445312 67 C 195.488281 63.976562 200.601562 61.078125 205.789062 58.308594 C 210.972656 55.535156 216.222656 52.894531 221.539062 50.378906 C 226.855469 47.867188 232.226562 45.484375 237.660156 43.234375 C 243.089844 40.984375 248.574219 38.867188 254.109375 36.886719 C 259.644531 34.90625 265.226562 33.0625 270.851562 31.355469 C 276.480469 29.648438 282.144531 28.082031 287.847656 26.652344 C 293.550781 25.226562 299.285156 23.9375 305.050781 22.789062 C 310.816406 21.644531 316.609375 20.640625 322.425781 19.777344 C 328.242188 18.914062 334.074219 18.195312 339.925781 17.617188 C 345.777344 17.042969 351.636719 16.609375 357.511719 16.320312 C 363.382812 16.03125 369.257812 15.886719 375.136719 15.886719 C 381.015625 15.886719 386.894531 16.03125 392.765625 16.320312 C 398.636719 16.609375 404.5 17.042969 410.351562 17.617188 C 416.203125 18.195312 422.035156 18.914062 427.851562 19.777344 C 433.667969 20.640625 439.457031 21.644531 445.222656 22.789062 C 450.992188 23.9375 456.726562 25.226562 462.429688 26.652344 C 468.132812 28.082031 473.796875 29.648438 479.421875 31.355469 C 485.046875 33.0625 490.628906 34.90625 496.164062 36.886719 C 501.699219 38.867188 507.183594 40.984375 512.617188 43.234375 C 518.046875 45.484375 523.421875 47.867188 528.738281 50.378906 C 534.050781 52.894531 539.300781 55.535156 544.488281 58.308594 C 549.671875 61.078125 554.785156 63.976562 559.828125 67 C 564.871094 70.019531 569.835938 73.164062 574.726562 76.433594 C 579.613281 79.699219 584.421875 83.082031 589.144531 86.585938 C 593.863281 90.089844 598.5 93.703125 603.042969 97.433594 C 607.589844 101.164062 612.039062 105.003906 616.394531 108.949219 C 620.75 112.898438 625.007812 116.953125 629.164062 121.109375 C 633.324219 125.265625 637.375 129.523438 641.324219 133.878906 C 645.273438 138.238281 649.113281 142.6875 652.839844 147.230469 C 656.570312 151.777344 660.1875 156.410156 663.691406 161.132812 C 667.191406 165.855469 670.578125 170.660156 673.84375 175.550781 C 677.109375 180.4375 680.253906 185.402344 683.277344 190.445312 C 686.300781 195.488281 689.195312 200.601562 691.96875 205.789062 C 694.738281 210.972656 697.382812 216.222656 699.894531 221.539062 C 702.410156 226.855469 704.792969 232.226562 707.042969 237.660156 C 709.292969 243.089844 711.40625 248.574219 713.386719 254.109375 C 715.367188 259.644531 717.210938 265.226562 718.917969 270.851562 C 720.625 276.480469 722.191406 282.144531 723.621094 287.847656 C 725.050781 293.550781 726.335938 299.285156 727.484375 305.050781 C 728.632812 310.816406 729.636719 316.609375 730.5 322.425781 C 731.363281 328.242188 732.082031 334.074219 732.65625 339.925781 C 733.234375 345.777344 733.667969 351.636719 733.957031 357.511719 C 734.242188 363.382812 734.386719 369.257812 734.386719 375.136719 Z M 734.386719 375.136719 " fill-opacity="1" fill-rule="nonzero"/></g><path fill="#27ffbf" d="M 518.726562 90.679688 C 537.511719 104.347656 568.574219 127.902344 644.257812 185.875 C 665.425781 202.089844 682.429688 216.339844 683.816406 219.03125 C 685.96875 223.195312 686.253906 235.871094 686.25 326.625 C 686.242188 423.167969 686.070312 429.824219 683.433594 434.832031 C 681.46875 438.5625 670.25 447.347656 646.179688 464.011719 C 627.238281 477.125 592.382812 501.585938 568.722656 518.371094 C 492.800781 572.238281 486.402344 576.660156 485.660156 575.800781 C 485.257812 575.335938 484.878906 554.796875 484.824219 530.164062 C 484.707031 479.761719 484.613281 480.242188 496.050781 472.636719 C 499.683594 470.21875 509.917969 463.070312 518.792969 456.753906 C 527.664062 450.4375 540.453125 441.394531 547.214844 436.660156 C 591.992188 405.300781 675.085938 345.9375 676.832031 344.070312 C 678.585938 342.183594 678.332031 341.445312 675.296875 339.585938 C 673.296875 338.359375 638.472656 313.316406 597.914062 283.9375 C 486.246094 203.050781 479.429688 198.132812 479.429688 198.132812 C 479.429688 198.132812 454.484375 179.632812 451.945312 179.632812 C 451.527344 179.632812 451.191406 203.292969 451.191406 232.214844 C 451.191406 264.503906 450.585938 286.097656 449.625 288.175781 C 448.765625 290.039062 441.777344 295.496094 434.09375 300.308594 L 420.128906 309.054688 L 386.75 289.78125 C 368.386719 279.179688 352.613281 269.453125 351.683594 268.164062 C 349.214844 264.714844 348.320312 186.398438 350.675781 179.910156 C 352.070312 176.070312 363.714844 166.972656 402.21875 139.632812 C 429.574219 120.210938 458.179688 99.773438 465.785156 94.222656 C 485.070312 80.140625 494.601562 74.515625 497.21875 75.671875 C 498.449219 76.214844 508.128906 82.96875 518.726562 90.679688 Z M 147.222656 240.238281 C 151.066406 242.625 154.980469 253.019531 153.660156 257.335938 C 151.570312 264.167969 146.582031 268.554688 140.960938 268.496094 C 134.453125 268.429688 130.800781 265.605469 128.613281 258.945312 C 124.324219 245.886719 136.53125 233.617188 147.222656 240.238281 Z M 279.324219 272.292969 C 311.742188 285.113281 351.515625 300.71875 367.707031 306.976562 C 383.894531 313.238281 400.144531 319.976562 403.8125 321.957031 C 407.476562 323.9375 409.09375 325.078125 407.402344 324.496094 C 405.714844 323.910156 402.257812 323 399.722656 322.46875 C 391.777344 320.808594 333.414062 300.914062 302.929688 289.476562 C 286.875 283.453125 261.296875 273.886719 246.085938 268.21875 L 218.429688 257.910156 L 187.320312 257.898438 C 158.179688 257.882812 156.210938 257.675781 156.210938 254.621094 C 156.210938 252.828125 156.671875 250.828125 157.234375 250.175781 C 157.796875 249.523438 172.234375 248.988281 189.316406 248.988281 L 220.375 248.988281 Z M 86.375 292.480469 C 91.683594 298.628906 91.464844 307.328125 85.835938 313.570312 C 80.984375 318.949219 76.648438 319.558594 70.285156 315.746094 C 65.410156 312.828125 64.027344 309.816406 64.027344 302.117188 C 64.027344 289.625 78.515625 283.378906 86.375 292.480469 Z M 550.449219 315.007812 C 568.949219 327.84375 585.640625 339.175781 587.542969 340.191406 C 589.445312 341.207031 590.984375 342.910156 590.964844 343.976562 C 590.949219 345.039062 584.898438 350.402344 577.523438 355.890625 C 570.148438 361.378906 553.832031 373.582031 541.269531 383.011719 C 528.707031 392.4375 517.472656 400.152344 516.304688 400.152344 C 514.617188 400.152344 514.183594 395.78125 514.183594 378.8125 L 514.183594 357.472656 L 478.460938 357.476562 C 439.085938 357.480469 262.671875 360.386719 213.160156 361.851562 C 195.898438 362.359375 176.023438 362.265625 168.992188 361.640625 C 156.871094 360.5625 156.210938 360.289062 156.210938 356.320312 L 156.210938 352.136719 L 211.132812 352.050781 C 241.34375 352.003906 271.933594 351.621094 279.117188 351.203125 C 305.035156 349.695312 368.875 348.679688 440.820312 348.632812 C 512.574219 348.582031 514.183594 348.503906 514.183594 345.105469 C 514.183594 341.726562 512.554688 341.613281 456.695312 341.101562 C 425.074219 340.8125 398.6875 339.976562 398.058594 339.242188 C 397.425781 338.511719 397.425781 337.308594 398.058594 336.574219 C 398.691406 335.84375 424.902344 334.757812 456.308594 334.167969 C 487.71875 333.574219 513.585938 332.976562 513.796875 332.835938 C 514.007812 332.691406 514.183594 323.371094 514.183594 312.125 C 514.183594 300.875 514.773438 291.671875 515.496094 291.671875 C 516.21875 291.671875 531.945312 302.171875 550.449219 315.007812 Z M 263.734375 307.644531 C 288.25 312.515625 315.046875 318.066406 323.289062 319.976562 C 331.527344 321.890625 346.21875 325.097656 355.9375 327.101562 C 375.398438 331.121094 385.8125 334.152344 384.671875 335.46875 C 383.21875 337.15625 292.207031 322.363281 250.695312 313.695312 C 228.496094 309.058594 225.417969 308.867188 166.964844 308.476562 C 84.878906 307.925781 93.21875 308.519531 93.21875 303.230469 L 93.21875 298.785156 L 219.164062 298.785156 Z M 149.363281 345.832031 C 157.335938 355.058594 151.824219 371.699219 140.796875 371.699219 C 134.261719 371.699219 127.019531 363.3125 127.019531 355.75 C 127.019531 342.984375 141.394531 336.605469 149.363281 345.832031 Z M 418.925781 368 C 417.660156 368.84375 403.488281 372.847656 387.433594 376.902344 C 371.375 380.960938 350.734375 386.265625 341.554688 388.695312 C 332.378906 391.128906 308.179688 397.128906 287.78125 402.035156 C 267.386719 406.941406 244.3125 412.527344 236.511719 414.445312 C 223.699219 417.597656 216.078125 417.9375 157.769531 417.9375 L 93.21875 417.9375 L 93.21875 409.046875 L 219.335938 409.046875 L 267.277344 398.460938 C 293.648438 392.640625 327.320312 385.445312 342.109375 382.472656 C 356.898438 379.496094 379.019531 374.734375 391.273438 371.882812 C 414.648438 366.453125 423.039062 365.273438 418.925781 368 Z M 408.855469 387.625 C 408.046875 388.5625 398.75 392.886719 388.191406 397.234375 C 377.632812 401.585938 344.007812 416.003906 313.46875 429.28125 C 282.929688 442.554688 249.308594 457.035156 238.761719 461.460938 L 219.582031 469.511719 L 157.746094 469.511719 L 157.746094 460.617188 L 219.015625 460.617188 L 264.046875 441.710938 C 288.8125 431.308594 321.867188 417.996094 337.5 412.128906 C 353.132812 406.261719 374.910156 398.035156 385.894531 393.847656 C 406.578125 385.964844 411.421875 384.652344 408.855469 387.625 Z M 445.742188 397.292969 L 451.265625 403.324219 L 450.84375 502.140625 C 450.433594 598.609375 450.347656 601.023438 447.351562 603.574219 C 443.804688 606.597656 398.089844 639.753906 369.378906 660.132812 L 349.789062 674.035156 L 349.789062 450.148438 L 353.246094 445.742188 C 356.253906 441.90625 423.566406 397.539062 433.085938 393.117188 C 438.6875 390.515625 439.902344 390.917969 445.742188 397.292969 Z M 86.375 402.742188 C 90.085938 407.035156 91.242188 414.335938 89.191406 420.523438 C 87.980469 424.175781 80.667969 428.605469 75.851562 428.605469 C 70.117188 428.605469 64.027344 421 64.027344 413.835938 C 64.027344 400.160156 78.109375 393.171875 86.375 402.742188 Z M 146.128906 449.90625 C 148.304688 450.863281 151.21875 454.410156 152.609375 457.785156 C 154.761719 463.011719 154.84375 464.742188 153.152344 469.464844 C 147.539062 485.152344 128.480469 481.390625 128.605469 464.621094 C 128.65625 457.5 130.527344 453.59375 135.46875 450.316406 C 139.289062 447.78125 141.136719 447.710938 146.128906 449.90625 Z M 146.128906 449.90625 " fill-opacity="1" fill-rule="evenodd"/></svg>