<svg xmlns="http://www.w3.org/2000/svg" xmlns:xlink="http://www.w3.org/1999/xlink" width="180" zoomAndPan="magnify" viewBox="0 0 135 135.000003" height="180" preserveAspectRatio="xMidYMid meet" version="1.0"><defs><clipPath id="584c91c424"><path d="M 69 7.386719 L 79 7.386719 L 79 38 L 69 38 Z M 69 7.386719 " clip-rule="nonzero"/></clipPath><clipPath id="e175ad6468"><path d="M 11.609375 15 L 91 15 L 91 126.503906 L 11.609375 126.503906 Z M 11.609375 15 " clip-rule="nonzero"/></clipPath><clipPath id="c92e909741"><path d="M 92 53 L 123.28125 53 L 123.28125 62 L 92 62 Z M 92 53 " clip-rule="nonzero"/></clipPath></defs><g clip-path="url(#584c91c424)"><path fill="#27ffbf" d="M 73.535156 7.464844 C 72.652344 7.59375 71.871094 7.976562 71.183594 8.613281 C 70.113281 9.625 69.617188 11.101562 69.882812 12.523438 C 70.136719 13.847656 71.0625 15.082031 72.1875 15.613281 L 72.746094 15.871094 L 72.746094 37.734375 L 72.910156 37.851562 C 73.046875 37.949219 73.316406 37.972656 74.199219 37.972656 C 75.230469 37.972656 75.316406 37.964844 75.453125 37.8125 C 75.589844 37.652344 75.597656 37.347656 75.621094 26.742188 L 75.636719 15.839844 L 75.960938 15.695312 C 76.683594 15.371094 77.40625 14.683594 77.902344 13.855469 C 78.617188 12.652344 78.570312 10.796875 77.804688 9.519531 C 77.203125 8.53125 76.09375 7.746094 74.933594 7.511719 C 74.3125 7.382812 74.144531 7.375 73.535156 7.464844 Z M 73.535156 7.464844 " fill-opacity="1" fill-rule="nonzero"/></g><g clip-path="url(#e175ad6468)"><path fill="#27ffbf" d="M 48.324219 15.773438 C 45.441406 16.398438 43.464844 17.050781 41.007812 18.199219 C 33.480469 21.707031 27.882812 27.191406 24.179688 34.699219 C 23.089844 36.898438 22.359375 38.824219 21.734375 41.167969 C 21.300781 42.796875 21.171875 43.449219 20.90625 45.351562 C 20.648438 47.160156 20.609375 50.363281 20.808594 52.351562 C 21.105469 55.195312 21.042969 56.246094 20.503906 58.171875 C 19.734375 60.878906 18.0625 63.792969 14.363281 68.859375 C 12.402344 71.542969 11.832031 72.527344 11.65625 73.5 C 11.496094 74.375 11.730469 75.195312 12.347656 75.878906 C 12.972656 76.582031 13.695312 76.945312 15.640625 77.523438 C 16.890625 77.894531 17.445312 78.15625 17.75 78.496094 C 18.59375 79.464844 18.546875 80.679688 17.589844 82.695312 C 16.914062 84.125 16.851562 84.734375 17.285156 85.59375 C 17.597656 86.203125 18.5625 87.054688 19.210938 87.292969 C 19.46875 87.390625 19.4375 87.566406 19.082031 87.96875 C 18.882812 88.1875 18.617188 88.59375 18.480469 88.867188 C 18.257812 89.316406 18.238281 89.421875 18.238281 90.082031 C 18.238281 91.074219 18.375 91.339844 19.414062 92.367188 C 20.304688 93.25 20.59375 93.667969 20.792969 94.390625 C 21.003906 95.15625 21.035156 95.804688 20.90625 96.855469 C 20.839844 97.378906 20.746094 98.109375 20.703125 98.488281 C 20.585938 99.410156 20.65625 101.257812 20.824219 101.800781 C 21.292969 103.335938 22.421875 104.597656 23.925781 105.296875 C 24.625 105.625 25.632812 105.890625 26.671875 106.027344 C 27.890625 106.1875 29.609375 106.136719 32.578125 105.824219 C 35.277344 105.550781 37.445312 105.464844 38.449219 105.601562 C 40.847656 105.921875 42.445312 107.09375 43.507812 109.316406 C 44.597656 111.589844 46.125 117.78125 46.925781 123.136719 C 47.113281 124.429688 47.394531 125.070312 48.027344 125.648438 C 48.46875 126.050781 48.820312 126.265625 49.359375 126.449219 C 49.785156 126.601562 50.050781 126.601562 68.75 126.601562 C 87.167969 126.601562 87.714844 126.59375 88.128906 126.457031 C 89.238281 126.074219 90.082031 125.125 90.316406 123.976562 C 90.453125 123.320312 90.296875 121.554688 89.96875 120.058594 C 89.535156 118.101562 89.289062 117.203125 88.417969 114.390625 C 87.199219 110.488281 86.894531 109.019531 86.726562 106.25 C 86.566406 103.679688 86.839844 101.105469 87.585938 98.070312 C 87.625 97.925781 87.65625 97.78125 87.65625 97.753906 C 87.65625 97.722656 84.511719 97.683594 80.679688 97.667969 C 72.988281 97.636719 73.292969 97.660156 71.984375 97.152344 C 70.964844 96.761719 70.265625 96.292969 69.433594 95.453125 C 68.546875 94.558594 68.042969 93.765625 67.671875 92.671875 C 67.367188 91.765625 67.265625 91.171875 67.265625 90.144531 C 67.265625 88.160156 67.929688 86.492188 69.289062 85.0625 C 69.671875 84.667969 70.019531 84.226562 70.066406 84.082031 C 70.136719 83.898438 70.15625 82.460938 70.15625 79 C 70.15625 74.6875 70.144531 74.136719 70.035156 73.910156 C 69.808594 73.429688 69.890625 73.4375 65.625 73.398438 C 61.402344 73.371094 61.347656 73.363281 60.140625 72.890625 C 59.171875 72.527344 58.335938 71.960938 57.53125 71.140625 C 56.53125 70.128906 55.917969 69.042969 55.527344 67.601562 C 55.367188 67.003906 55.367188 66.886719 55.324219 57.8125 C 55.285156 48.75 55.285156 48.621094 55.132812 48.484375 C 55.050781 48.402344 54.707031 48.25 54.371094 48.128906 C 53.15625 47.710938 51.558594 46.902344 50.265625 46.058594 C 47.273438 44.097656 45.089844 41.714844 43.609375 38.777344 C 42.328125 36.246094 41.707031 33.710938 41.707031 31.027344 C 41.707031 28.164062 42.390625 25.441406 43.875 22.414062 C 44.894531 20.316406 46.21875 18.449219 48.003906 16.585938 C 48.484375 16.085938 48.828125 15.691406 48.773438 15.691406 C 48.710938 15.695312 48.515625 15.734375 48.324219 15.773438 Z M 48.324219 15.773438 " fill-opacity="1" fill-rule="nonzero"/></g><path fill="#27ffbf" d="M 96.859375 16.792969 C 95.824219 17.058594 94.738281 17.867188 94.207031 18.761719 C 93.566406 19.820312 93.421875 21.128906 93.816406 22.308594 L 94.039062 22.976562 L 90.636719 26.363281 C 88.765625 28.21875 86.574219 30.386719 85.761719 31.171875 C 84.203125 32.691406 83.714844 33.285156 83.449219 33.992188 C 83.296875 34.394531 83.28125 34.578125 83.28125 36.09375 C 83.28125 37.652344 83.289062 37.757812 83.425781 37.867188 C 83.636719 38.019531 85.738281 38.019531 85.953125 37.867188 C 86.082031 37.765625 86.097656 37.628906 86.132812 36.359375 C 86.171875 35.097656 86.1875 34.945312 86.339844 34.699219 C 86.429688 34.554688 87.128906 33.816406 87.898438 33.074219 C 88.667969 32.320312 90.8125 30.191406 92.675781 28.332031 L 96.0625 24.964844 L 96.527344 25.109375 C 98.125 25.585938 99.765625 25.183594 100.921875 24.011719 C 102.625 22.292969 102.613281 19.683594 100.890625 17.964844 C 99.796875 16.867188 98.269531 16.417969 96.859375 16.792969 Z M 96.859375 16.792969 " fill-opacity="1" fill-rule="nonzero"/><path fill="#27ffbf" d="M 57.179688 19.828125 C 55.671875 20.15625 54.304688 21.472656 53.921875 22.953125 C 53.769531 23.554688 53.769531 24.542969 53.921875 25.144531 C 54.21875 26.285156 55.171875 27.457031 56.199219 27.9375 C 57.234375 28.425781 58.425781 28.5 59.5 28.136719 L 60.03125 27.960938 L 61.707031 29.632812 C 62.625 30.5625 63.417969 31.414062 63.464844 31.527344 C 63.507812 31.664062 63.539062 32.792969 63.539062 34.578125 C 63.539062 36.425781 63.570312 37.5 63.625 37.652344 C 63.730469 37.957031 63.90625 37.996094 65.160156 37.957031 C 65.957031 37.941406 66.140625 37.910156 66.253906 37.796875 C 66.382812 37.675781 66.390625 37.425781 66.414062 34.792969 C 66.445312 31.519531 66.398438 31.070312 65.996094 30.210938 C 65.746094 29.679688 65.59375 29.511719 63.859375 27.808594 L 61.988281 25.976562 L 62.164062 25.449219 C 62.664062 23.9375 62.300781 22.324219 61.1875 21.136719 C 60.101562 19.988281 58.648438 19.507812 57.179688 19.828125 Z M 57.179688 19.828125 " fill-opacity="1" fill-rule="nonzero"/><path fill="#27ffbf" d="M 114.609375 34.777344 C 113.65625 34.953125 112.722656 35.476562 112.105469 36.175781 C 111.734375 36.609375 111.164062 37.597656 111.164062 37.820312 C 111.164062 38.125 111.230469 38.125 103.972656 38.125 C 96.265625 38.125 96.671875 38.101562 95.695312 38.589844 C 95.140625 38.871094 94.28125 39.714844 94.015625 40.230469 C 93.621094 41.015625 93.589844 41.304688 93.589844 43.890625 C 93.589844 45.945312 93.574219 46.316406 93.46875 46.539062 C 93.332031 46.820312 93.027344 47.023438 92.738281 47.023438 C 92.636719 47.023438 92.476562 47.078125 92.386719 47.148438 C 92.226562 47.261719 92.21875 47.304688 92.21875 48.433594 C 92.21875 49.832031 92.226562 49.839844 93.078125 49.839844 C 94.242188 49.839844 95.371094 49.179688 95.976562 48.152344 C 96.425781 47.382812 96.433594 47.351562 96.480469 44.4375 C 96.519531 41.789062 96.519531 41.730469 96.691406 41.496094 C 96.785156 41.363281 97.011719 41.183594 97.1875 41.097656 C 97.515625 40.9375 97.574219 40.9375 104.40625 40.9375 L 111.300781 40.9375 L 111.648438 41.449219 C 112.242188 42.347656 112.949219 42.886719 113.96875 43.238281 C 114.722656 43.488281 115.871094 43.480469 116.617188 43.207031 C 118.511719 42.519531 119.707031 40.773438 119.585938 38.847656 C 119.46875 36.96875 118.246094 35.4375 116.433594 34.90625 C 115.910156 34.746094 115.101562 34.691406 114.609375 34.777344 Z M 114.609375 34.777344 " fill-opacity="1" fill-rule="nonzero"/><path fill="#27ffbf" d="M 62.132812 41.089844 C 60.566406 41.402344 59.226562 42.628906 58.753906 44.164062 C 58.59375 44.683594 58.59375 44.71875 58.59375 55.726562 C 58.59375 67.710938 58.570312 67.078125 58.988281 67.90625 C 59.476562 68.867188 60.550781 69.769531 61.585938 70.089844 L 62.132812 70.265625 L 85.488281 70.265625 L 86.050781 70.082031 C 87.128906 69.726562 88.089844 68.902344 88.605469 67.878906 C 89.046875 66.996094 89.023438 67.703125 89.023438 55.726562 C 89.023438 43.554688 89.054688 44.4375 88.554688 43.394531 C 88.113281 42.492188 87.160156 41.652344 86.097656 41.234375 L 85.640625 41.054688 L 74.039062 41.046875 C 67.65625 41.039062 62.300781 41.0625 62.132812 41.089844 Z M 72.042969 47.589844 C 72.433594 47.792969 72.578125 48.058594 73.277344 49.914062 C 74.730469 53.78125 76.640625 58.855469 77.421875 60.929688 C 78.296875 63.265625 78.3125 63.34375 77.933594 63.707031 C 77.628906 63.996094 77.378906 64.066406 76.609375 64.066406 C 75.390625 64.066406 75.210938 63.898438 74.660156 62.316406 C 74.496094 61.835938 74.28125 61.242188 74.191406 61 L 74.03125 60.566406 L 70.765625 60.566406 C 67.738281 60.566406 67.511719 60.574219 67.457031 60.695312 C 67.425781 60.773438 67.207031 61.410156 66.957031 62.109375 C 66.710938 62.8125 66.445312 63.472656 66.378906 63.570312 C 66.125 63.914062 65.691406 64.066406 64.945312 64.066406 C 63.859375 64.066406 63.320312 63.691406 63.410156 63 C 63.425781 62.847656 63.722656 61.972656 64.0625 61.054688 C 64.398438 60.140625 65.273438 57.757812 66.003906 55.773438 C 66.734375 53.789062 67.601562 51.4375 67.9375 50.5625 C 68.269531 49.679688 68.582031 48.828125 68.636719 48.660156 C 68.804688 48.128906 69.015625 47.785156 69.269531 47.632812 C 69.480469 47.496094 69.65625 47.480469 70.675781 47.480469 C 71.527344 47.480469 71.890625 47.511719 72.042969 47.589844 Z M 83.097656 47.777344 L 83.394531 48.074219 L 83.394531 63.28125 L 83.21875 63.539062 C 82.953125 63.945312 82.632812 64.066406 81.8125 64.066406 C 81.015625 64.066406 80.632812 63.929688 80.382812 63.554688 C 80.246094 63.351562 80.238281 63.070312 80.214844 55.835938 C 80.191406 47.542969 80.167969 47.9375 80.671875 47.632812 C 80.882812 47.503906 81.050781 47.480469 81.867188 47.480469 L 82.800781 47.480469 Z M 83.097656 47.777344 " fill-opacity="1" fill-rule="nonzero"/><path fill="#27ffbf" d="M 70.667969 51.285156 C 70.644531 51.347656 70.148438 52.800781 69.566406 54.519531 L 68.515625 57.636719 L 68.855469 57.683594 C 69.046875 57.707031 69.617188 57.714844 70.121094 57.707031 C 70.621094 57.699219 71.472656 57.683594 72.015625 57.683594 C 72.910156 57.675781 72.988281 57.667969 72.933594 57.539062 C 72.902344 57.46875 72.441406 56.140625 71.898438 54.59375 C 70.652344 50.988281 70.714844 51.148438 70.667969 51.285156 Z M 70.667969 51.285156 " fill-opacity="1" fill-rule="nonzero"/><g clip-path="url(#c92e909741)"><path fill="#27ffbf" d="M 118.464844 53.242188 C 117.113281 53.460938 115.878906 54.382812 115.226562 55.644531 L 114.929688 56.230469 L 103.914062 56.230469 C 92.105469 56.230469 92.507812 56.214844 92.304688 56.59375 C 92.195312 56.792969 92.195312 58.625 92.296875 58.816406 C 92.339844 58.898438 92.5 59 92.660156 59.042969 C 92.851562 59.089844 96.585938 59.121094 103.972656 59.121094 L 115.003906 59.121094 L 115.269531 59.636719 C 116.121094 61.289062 118.261719 62.269531 120.023438 61.820312 C 121.746094 61.386719 122.984375 60.070312 123.3125 58.359375 C 123.585938 56.875 123.089844 55.429688 121.941406 54.351562 C 121.015625 53.484375 119.636719 53.042969 118.464844 53.242188 Z M 118.464844 53.242188 " fill-opacity="1" fill-rule="nonzero"/></g><path fill="#27ffbf" d="M 92.394531 64.878906 C 92.226562 64.992188 92.21875 65.039062 92.21875 66.203125 C 92.21875 67.609375 92.167969 67.527344 93.132812 67.582031 C 93.492188 67.597656 93.871094 67.664062 93.984375 67.726562 C 94.097656 67.785156 95.667969 69.300781 97.476562 71.101562 C 99.289062 72.898438 101.035156 74.617188 101.371094 74.921875 C 102.027344 75.515625 102.792969 75.941406 103.464844 76.078125 C 103.691406 76.125 104.773438 76.160156 105.972656 76.167969 L 108.082031 76.167969 L 108.363281 76.753906 C 108.726562 77.507812 109.125 77.964844 109.839844 78.4375 C 110.835938 79.105469 111.945312 79.335938 113.019531 79.097656 C 115.140625 78.625 116.578125 76.777344 116.464844 74.679688 C 116.328125 72.046875 113.765625 70.054688 111.285156 70.640625 C 110.105469 70.921875 108.957031 71.800781 108.425781 72.828125 L 108.15625 73.347656 L 106.082031 73.347656 C 104.382812 73.347656 103.957031 73.324219 103.722656 73.234375 C 103.53125 73.148438 102.230469 71.902344 99.597656 69.285156 C 95.957031 65.65625 95.726562 65.441406 95.1875 65.175781 C 94.546875 64.863281 93.976562 64.75 93.132812 64.757812 C 92.746094 64.757812 92.507812 64.796875 92.394531 64.878906 Z M 92.394531 64.878906 " fill-opacity="1" fill-rule="nonzero"/><path fill="#27ffbf" d="M 73.558594 73.636719 L 73.351562 73.847656 L 73.351562 79.933594 L 73.34375 86.011719 L 72.804688 86.28125 C 71.777344 86.765625 70.972656 87.734375 70.597656 88.890625 C 70.484375 89.238281 70.445312 89.574219 70.4375 90.160156 C 70.4375 90.859375 70.46875 91.035156 70.667969 91.566406 C 70.796875 91.910156 70.980469 92.320312 71.085938 92.480469 C 71.90625 93.773438 73.222656 94.496094 74.738281 94.496094 C 76.015625 94.496094 76.929688 94.125 77.804688 93.242188 C 79.203125 91.832031 79.476562 89.773438 78.488281 88.015625 C 78.085938 87.292969 77.171875 86.46875 76.433594 86.15625 L 76.167969 86.050781 L 76.152344 79.972656 C 76.128906 73.925781 76.128906 73.886719 75.96875 73.675781 L 75.808594 73.460938 L 74.789062 73.4375 L 73.765625 73.414062 Z M 73.558594 73.636719 " fill-opacity="1" fill-rule="nonzero"/><path fill="#27ffbf" d="M 80.117188 73.539062 C 80.003906 73.597656 79.871094 73.757812 79.828125 73.886719 C 79.773438 74.046875 79.742188 75.140625 79.742188 77.152344 C 79.742188 80.46875 79.75 80.550781 80.222656 81.449219 C 80.503906 81.972656 80.992188 82.484375 84.230469 85.632812 C 86.976562 88.304688 87.398438 88.585938 88.734375 88.691406 L 89.3125 88.738281 L 89.40625 89.085938 C 89.617188 89.929688 90.371094 90.941406 91.191406 91.492188 C 93.597656 93.082031 96.828125 91.863281 97.667969 89.054688 C 97.863281 88.386719 97.847656 87.230469 97.628906 86.597656 C 97.113281 85.09375 95.75 83.890625 94.214844 83.578125 C 93.375 83.402344 92.347656 83.570312 91.496094 84.019531 C 90.988281 84.292969 90.058594 85.175781 89.824219 85.609375 C 89.679688 85.898438 89.671875 85.898438 89.214844 85.898438 C 88.949219 85.898438 88.644531 85.839844 88.476562 85.761719 C 88.113281 85.59375 83.144531 80.71875 82.878906 80.269531 L 82.671875 79.925781 L 82.632812 76.90625 C 82.589844 73.148438 82.710938 73.46875 81.296875 73.445312 C 80.558594 73.429688 80.269531 73.453125 80.117188 73.539062 Z M 80.117188 73.539062 " fill-opacity="1" fill-rule="nonzero"/></svg>