<svg xmlns="http://www.w3.org/2000/svg" xmlns:xlink="http://www.w3.org/1999/xlink" width="180" zoomAndPan="magnify" viewBox="0 0 135 135.000003" height="180" preserveAspectRatio="xMidYMid meet" version="1.0"><defs><clipPath id="e35dfabd8a"><path d="M 17 7.5 L 80 7.5 L 80 49 L 17 49 Z M 17 7.5 " clip-rule="nonzero"/></clipPath><clipPath id="19391ba73f"><path d="M 55 85 L 118 85 L 118 126.617188 L 55 126.617188 Z M 55 85 " clip-rule="nonzero"/></clipPath><clipPath id="3195595263"><path d="M 7.996094 54 L 47 54 L 47 117 L 7.996094 117 Z M 7.996094 54 " clip-rule="nonzero"/></clipPath></defs><g clip-path="url(#e35dfabd8a)"><path fill="#27ffbf" d="M 17.4375 48.535156 C 24.835938 28.480469 44.15625 14.480469 65.515625 13.695312 L 67.496094 13.621094 L 67.496094 7.5 L 79.808594 17.757812 L 67.496094 28.015625 L 67.496094 21.796875 L 65.347656 21.902344 C 48.269531 22.726562 33.304688 32.9375 26.292969 48.535156 L 17.4375 48.535156 " fill-opacity="1" fill-rule="nonzero"/></g><g clip-path="url(#19391ba73f)"><path fill="#27ffbf" d="M 55.1875 116.242188 L 67.496094 105.984375 L 67.496094 112.203125 L 69.644531 112.097656 C 86.722656 111.273438 101.6875 101.0625 108.699219 85.464844 L 117.5625 85.464844 C 110.160156 105.519531 90.835938 119.519531 69.476562 120.304688 L 67.496094 120.378906 L 67.496094 126.5 C 67.496094 126.5 55.1875 116.242188 55.1875 116.242188 " fill-opacity="1" fill-rule="nonzero"/></g><path fill="#27ffbf" d="M 106.480469 67 L 112.699219 67 L 112.59375 64.851562 C 111.769531 47.773438 101.558594 32.808594 85.960938 25.796875 L 85.960938 16.933594 C 106.015625 24.355469 120.015625 43.675781 120.800781 65.019531 L 120.875 67 L 126.996094 67 L 116.738281 79.3125 C 116.730469 79.3125 106.480469 67 106.480469 67 " fill-opacity="1" fill-rule="nonzero"/><g clip-path="url(#3195595263)"><path fill="#27ffbf" d="M 46.980469 116.25 C 27.800781 108.242188 14.9375 89.691406 14.191406 68.980469 L 14.117188 67 L 7.996094 67 L 18.253906 54.691406 L 28.511719 67 L 22.292969 67 L 22.398438 69.148438 C 23.175781 85.273438 32.59375 99.859375 46.988281 107.21875 L 46.980469 116.25 " fill-opacity="1" fill-rule="nonzero"/></g><path fill="#27ffbf" d="M 75.703125 67 C 75.703125 71.535156 72.03125 75.207031 67.496094 75.207031 C 62.960938 75.207031 59.289062 71.535156 59.289062 67 C 59.289062 62.464844 62.960938 58.792969 67.496094 58.792969 C 72.03125 58.792969 75.703125 62.464844 75.703125 67 " fill-opacity="1" fill-rule="nonzero"/><path fill="#27ffbf" d="M 67.496094 79.3125 C 60.707031 79.3125 55.1875 73.789062 55.1875 67 C 55.1875 60.210938 60.707031 54.691406 67.496094 54.691406 C 74.285156 54.691406 79.808594 60.210938 79.808594 67 C 79.808594 73.789062 74.285156 79.3125 67.496094 79.3125 Z M 94.167969 71.105469 L 94.167969 62.898438 L 87.355469 61.933594 C 86.867188 60.003906 86.105469 58.199219 85.121094 56.558594 L 89.265625 51.035156 L 83.460938 45.234375 L 77.941406 49.375 C 76.296875 48.390625 74.492188 47.628906 72.5625 47.140625 L 71.601562 40.328125 L 63.394531 40.328125 L 62.429688 47.140625 C 60.5 47.628906 58.695312 48.390625 57.054688 49.375 L 51.53125 45.234375 L 45.730469 51.035156 L 49.871094 56.558594 C 48.886719 58.199219 48.125 60.003906 47.636719 61.933594 L 40.824219 62.898438 L 40.824219 71.105469 L 47.636719 72.066406 C 48.125 73.996094 48.886719 75.800781 49.871094 77.441406 L 45.730469 82.964844 L 51.53125 88.769531 L 57.054688 84.625 C 58.695312 85.609375 60.5 86.371094 62.429688 86.859375 L 63.394531 93.671875 L 71.601562 93.671875 L 72.5625 86.859375 C 74.492188 86.371094 76.296875 85.609375 77.941406 84.625 L 83.460938 88.769531 L 89.265625 82.964844 L 85.121094 77.441406 C 86.105469 75.800781 86.867188 73.996094 87.355469 72.066406 L 94.167969 71.105469 " fill-opacity="1" fill-rule="nonzero"/></svg>