<svg xmlns="http://www.w3.org/2000/svg" xmlns:xlink="http://www.w3.org/1999/xlink" width="180" zoomAndPan="magnify" viewBox="0 0 135 135.000003" height="180" preserveAspectRatio="xMidYMid meet" version="1.0"><defs><clipPath id="b72078c7e9"><path d="M 11 8.058594 L 125.507812 8.058594 L 125.507812 125.6875 L 11 125.6875 Z M 11 8.058594 " clip-rule="nonzero"/></clipPath></defs><g clip-path="url(#b72078c7e9)"><path fill="#27ffbf" d="M 62.03125 30.777344 C 70.070312 30.777344 76.585938 37.292969 76.585938 45.328125 C 76.585938 53.367188 70.070312 59.882812 62.03125 59.882812 C 53.996094 59.882812 47.480469 53.367188 47.480469 45.328125 C 47.480469 37.292969 53.996094 30.777344 62.03125 30.777344 Z M 103.445312 8.011719 C 115.714844 8.011719 125.660156 17.957031 125.660156 30.230469 C 125.660156 42.5 115.714844 52.445312 103.445312 52.445312 C 91.175781 52.445312 81.226562 42.5 81.226562 30.230469 C 81.226562 17.957031 91.175781 8.011719 103.445312 8.011719 Z M 104.886719 33.34375 C 104.917969 33.320312 104.949219 33.292969 104.980469 33.265625 C 105.023438 33.234375 105.066406 33.195312 105.105469 33.15625 C 105.527344 32.730469 105.792969 32.144531 105.792969 31.496094 C 105.792969 30.847656 105.527344 30.261719 105.105469 29.839844 L 105.101562 29.839844 C 104.675781 29.414062 104.089844 29.152344 103.445312 29.152344 C 102.796875 29.152344 102.210938 29.414062 101.789062 29.839844 L 101.789062 29.84375 C 101.363281 30.265625 101.101562 30.855469 101.101562 31.496094 C 101.101562 32.082031 101.316406 32.613281 101.671875 33.027344 C 101.707031 33.070312 101.746094 33.117188 101.789062 33.15625 C 101.855469 33.226562 101.929688 33.292969 102.007812 33.351562 L 102.007812 36.75 C 102.007812 37.542969 102.652344 38.1875 103.449219 38.1875 C 104.242188 38.1875 104.886719 37.542969 104.886719 36.75 Z M 94.546875 42.03125 L 112.34375 42.03125 C 114.007812 42.03125 115.371094 40.671875 115.371094 39.007812 L 115.371094 28.332031 C 115.371094 26.667969 114.007812 25.304688 112.34375 25.304688 L 112.171875 25.304688 L 112.171875 21.648438 C 112.171875 19.246094 111.191406 17.0625 109.609375 15.484375 C 108.027344 13.902344 105.847656 12.921875 103.445312 12.921875 C 101.042969 12.921875 98.863281 13.902344 97.28125 15.484375 C 95.703125 17.066406 94.71875 19.25 94.71875 21.648438 L 94.71875 25.304688 L 94.546875 25.304688 C 92.882812 25.304688 91.523438 26.667969 91.523438 28.332031 L 91.523438 39.007812 C 91.523438 40.671875 92.882812 42.03125 94.546875 42.03125 Z M 109.292969 25.304688 L 109.292969 21.648438 C 109.292969 20.039062 108.632812 18.578125 107.574219 17.515625 C 106.511719 16.457031 105.050781 15.796875 103.445312 15.796875 C 101.835938 15.796875 100.375 16.457031 99.316406 17.515625 C 98.253906 18.578125 97.59375 20.039062 97.59375 21.648438 L 97.59375 25.304688 Z M 112.886719 53.515625 C 110.546875 54.464844 108.03125 55.070312 105.402344 55.277344 C 103.28125 81.820312 89.90625 102.414062 65.28125 117.050781 C 63.226562 118.273438 60.839844 118.273438 58.785156 117.050781 C 27.082031 98.207031 14.027344 69.5 19.617188 30.929688 C 19.636719 30.808594 19.714844 30.71875 19.828125 30.683594 L 60.148438 18.175781 C 61.433594 17.78125 62.636719 17.78125 63.914062 18.175781 L 79.390625 22.976562 C 80.113281 20.566406 81.191406 18.308594 82.5625 16.261719 L 66.09375 11.15625 C 63.398438 10.316406 60.671875 10.316406 57.972656 11.15625 L 17.652344 23.660156 C 14.832031 24.535156 12.765625 26.953125 12.34375 29.875 C 9.425781 49.996094 10.945312 70.394531 20.578125 88.609375 C 28.464844 103.511719 40.648438 114.820312 55.03125 123.371094 C 59.402344 125.96875 64.671875 125.96875 69.039062 123.371094 C 83.421875 114.820312 95.609375 103.511719 103.492188 88.609375 C 109.347656 77.535156 112.203125 65.652344 112.886719 53.515625 Z M 93.40625 85.703125 C 86.757812 97.367188 76.734375 106.890625 63.808594 114.574219 C 62.664062 115.253906 61.402344 115.253906 60.257812 114.574219 C 48.125 107.363281 37.664062 97.992188 30.65625 85.707031 C 36.898438 74.847656 48.609375 67.535156 62.035156 67.535156 C 75.453125 67.535156 87.167969 74.847656 93.40625 85.703125 Z M 93.40625 85.703125 " fill-opacity="1" fill-rule="evenodd"/></g></svg>