<svg xmlns="http://www.w3.org/2000/svg" xmlns:xlink="http://www.w3.org/1999/xlink" width="180" zoomAndPan="magnify" viewBox="0 0 135 135.000003" height="180" preserveAspectRatio="xMidYMid meet" version="1.0"><defs><clipPath id="1da8297954"><path d="M 22 75 L 113 75 L 113 126.261719 L 22 126.261719 Z M 22 75 " clip-rule="nonzero"/></clipPath><clipPath id="0f2987068a"><path d="M 15.257812 8 L 119 8 L 119 91 L 15.257812 91 Z M 15.257812 8 " clip-rule="nonzero"/></clipPath></defs><g clip-path="url(#1da8297954)"><path fill="#27ffbf" d="M 108.445312 114.328125 L 106.480469 114.328125 L 106.480469 78.976562 C 106.480469 76.816406 104.710938 75.050781 102.550781 75.050781 L 86.839844 75.050781 C 84.679688 75.050781 82.914062 76.816406 82.914062 78.976562 L 82.914062 114.328125 L 78.988281 114.328125 L 78.988281 88.796875 C 78.988281 86.636719 77.21875 84.871094 75.058594 84.871094 L 59.347656 84.871094 C 57.1875 84.871094 55.421875 86.636719 55.421875 88.796875 L 55.421875 114.328125 L 51.492188 114.328125 L 51.492188 98.617188 C 51.492188 96.457031 49.726562 94.6875 47.566406 94.6875 L 31.855469 94.6875 C 29.695312 94.6875 27.925781 96.457031 27.925781 98.617188 L 27.925781 114.328125 L 25.964844 114.328125 C 23.804688 114.328125 22.035156 116.09375 22.035156 118.253906 L 22.035156 122.183594 C 22.035156 124.34375 23.804688 126.109375 25.964844 126.109375 L 108.445312 126.109375 C 110.605469 126.109375 112.371094 124.34375 112.371094 122.183594 L 112.371094 118.253906 C 112.371094 116.09375 110.605469 114.328125 108.445312 114.328125 Z M 47.566406 114.328125 L 31.855469 114.328125 L 31.855469 98.617188 L 47.566406 98.617188 Z M 75.058594 114.328125 L 59.347656 114.328125 L 59.347656 88.796875 L 75.058594 88.796875 Z M 102.550781 114.328125 L 86.839844 114.328125 L 86.839844 78.976562 L 102.550781 78.976562 Z M 102.550781 114.328125 " fill-opacity="1" fill-rule="nonzero"/></g><g clip-path="url(#0f2987068a)"><path fill="#27ffbf" d="M 118.5 14.308594 L 118.242188 10.460938 C 118.164062 9.496094 117.398438 8.710938 116.417969 8.652344 L 112.585938 8.378906 C 105.261719 7.867188 98.210938 9.359375 92.203125 12.679688 C 92.203125 12.679688 92.027344 12.777344 92.007812 12.796875 C 86.015625 16.136719 80.695312 20.75 76.257812 26.347656 C 72.132812 25.445312 65.21875 25.5625 57.953125 32.828125 C 57.445312 33.359375 57.246094 34.125 57.484375 34.832031 C 57.71875 35.539062 58.328125 36.050781 59.074219 36.167969 C 59.132812 36.167969 63.765625 36.855469 68.265625 39.113281 L 66.554688 42.214844 C 66.144531 42.980469 66.28125 43.925781 66.890625 44.53125 L 69.207031 46.851562 C 54.105469 66.84375 18.578125 65.25 18.207031 65.230469 L 16.242188 65.132812 L 16.046875 69.0625 L 18.011719 69.160156 C 18.246094 69.160156 19.246094 69.21875 20.816406 69.21875 C 29.871094 69.21875 57.972656 67.6875 71.996094 49.640625 L 77.101562 54.746094 C 75.726562 57.238281 61.136719 81.433594 17.871094 86.851562 L 15.910156 87.089844 L 16.398438 90.996094 L 18.34375 90.742188 C 60.605469 85.457031 76.53125 63.367188 79.988281 57.632812 L 82.34375 59.988281 C 82.71875 60.363281 83.226562 60.558594 83.738281 60.558594 C 84.054688 60.558594 84.386719 60.480469 84.679688 60.320312 L 87.785156 58.632812 C 90.023438 63.109375 90.730469 67.765625 90.730469 67.824219 C 90.847656 68.550781 91.359375 69.179688 92.066406 69.394531 C 92.261719 69.472656 92.476562 69.511719 92.675781 69.511719 C 93.183594 69.511719 93.695312 69.296875 94.070312 68.921875 C 101.335938 61.65625 101.453125 54.765625 100.53125 50.640625 C 106.125 46.203125 110.761719 40.878906 114.078125 34.910156 L 114.199219 34.714844 C 117.535156 28.664062 119.027344 21.613281 118.5 14.308594 Z M 70.71875 34.65625 L 70.148438 35.675781 C 67.8125 34.476562 65.457031 33.671875 63.570312 33.140625 C 67.359375 30.335938 70.835938 29.6875 73.644531 29.921875 C 72.605469 31.453125 71.621094 33.003906 70.71875 34.65625 Z M 93.753906 63.328125 C 93.222656 61.441406 92.398438 59.085938 91.222656 56.746094 L 92.242188 56.179688 C 93.890625 55.273438 95.441406 54.273438 96.976562 53.25 C 97.191406 56.058594 96.542969 59.515625 93.753906 63.324219 Z M 102.394531 38.386719 C 100.492188 40.289062 97.976562 41.253906 95.441406 41.253906 C 92.929688 41.253906 90.414062 40.289062 88.511719 38.386719 C 84.679688 34.554688 84.679688 28.332031 88.511719 24.5 C 92.339844 20.671875 98.566406 20.671875 102.394531 24.5 C 106.226562 28.332031 106.226562 34.554688 102.394531 38.386719 Z M 102.394531 38.386719 " fill-opacity="1" fill-rule="nonzero"/></g><path fill="#27ffbf" d="M 95.453125 25.546875 C 93.878906 25.546875 92.398438 26.15625 91.289062 27.269531 C 88.988281 29.566406 88.988281 33.304688 91.289062 35.601562 C 93.511719 37.828125 97.394531 37.828125 99.617188 35.601562 C 101.914062 33.304688 101.914062 29.566406 99.617188 27.269531 C 98.507812 26.15625 97.027344 25.546875 95.453125 25.546875 Z M 95.453125 25.546875 " fill-opacity="1" fill-rule="nonzero"/></svg>