<svg xmlns="http://www.w3.org/2000/svg" xmlns:xlink="http://www.w3.org/1999/xlink" width="1500" zoomAndPan="magnify" viewBox="0 0 1125 749.999995" height="1000" preserveAspectRatio="xMidYMid meet" version="1.0"><defs><clipPath id="1822794cc1"><path d="M 36.277344 202.640625 L 384 202.640625 L 384 547.640625 L 36.277344 547.640625 Z M 36.277344 202.640625 " clip-rule="nonzero"/></clipPath><clipPath id="49d2815081"><path d="M 998 318 L 1088.527344 318 L 1088.527344 446 L 998 446 Z M 998 318 " clip-rule="nonzero"/></clipPath></defs><g clip-path="url(#1822794cc1)"><path fill="#27ffbf" d="M 290 211.378906 C 300.480469 219.257812 317.8125 232.835938 360.042969 266.25 C 371.855469 275.597656 381.34375 283.8125 382.117188 285.363281 C 383.316406 287.765625 383.476562 295.070312 383.472656 347.382812 C 383.472656 403.035156 383.375 406.871094 381.902344 409.757812 C 380.804688 411.90625 374.546875 416.972656 361.117188 426.578125 C 350.546875 434.136719 331.097656 448.238281 317.898438 457.914062 C 275.53125 488.964844 271.964844 491.511719 271.550781 491.015625 C 271.324219 490.75 271.113281 478.910156 271.082031 464.710938 C 271.015625 435.65625 270.964844 435.933594 277.347656 431.550781 C 279.375 430.15625 285.085938 426.035156 290.035156 422.394531 C 294.984375 418.753906 302.121094 413.542969 305.894531 410.8125 C 330.878906 392.734375 377.246094 358.519531 378.21875 357.4375 C 379.199219 356.351562 379.054688 355.925781 377.363281 354.855469 C 376.246094 354.148438 356.816406 339.714844 334.183594 322.777344 C 271.875 276.152344 268.074219 273.320312 268.074219 273.320312 C 268.074219 273.320312 254.152344 262.652344 252.734375 262.652344 C 252.503906 262.652344 252.316406 276.292969 252.316406 292.960938 C 252.316406 311.574219 251.980469 324.023438 251.441406 325.222656 C 250.960938 326.292969 247.0625 329.441406 242.777344 332.214844 L 234.984375 337.257812 L 216.359375 326.148438 C 206.113281 320.035156 197.308594 314.429688 196.792969 313.683594 C 195.414062 311.699219 194.914062 266.554688 196.230469 262.8125 C 197.007812 260.601562 203.507812 255.355469 224.992188 239.597656 C 240.253906 228.398438 256.214844 216.621094 260.460938 213.417969 C 271.21875 205.300781 276.539062 202.058594 277.996094 202.726562 C 278.683594 203.039062 284.085938 206.933594 290 211.378906 Z M 82.707031 297.589844 C 84.851562 298.964844 87.035156 304.953125 86.300781 307.445312 C 85.132812 311.382812 82.347656 313.910156 79.214844 313.875 C 75.582031 313.839844 73.542969 312.210938 72.324219 308.371094 C 69.929688 300.84375 76.742188 293.773438 82.707031 297.589844 Z M 156.417969 316.066406 C 174.507812 323.457031 196.699219 332.453125 205.734375 336.058594 C 214.765625 339.667969 223.832031 343.550781 225.878906 344.695312 C 227.925781 345.835938 228.828125 346.492188 227.882812 346.15625 C 226.941406 345.820312 225.011719 345.292969 223.597656 344.988281 C 219.164062 344.03125 186.601562 332.5625 169.589844 325.96875 C 160.632812 322.5 146.359375 316.984375 137.871094 313.714844 L 122.441406 307.773438 L 105.082031 307.765625 C 88.820312 307.757812 87.722656 307.640625 87.722656 305.878906 C 87.722656 304.84375 87.976562 303.691406 88.292969 303.316406 C 88.605469 302.941406 96.664062 302.632812 106.195312 302.632812 L 123.527344 302.632812 Z M 48.753906 327.703125 C 51.71875 331.246094 51.59375 336.261719 48.453125 339.859375 C 45.746094 342.957031 43.328125 343.308594 39.777344 341.113281 C 37.058594 339.429688 36.285156 337.695312 36.285156 333.257812 C 36.285156 326.058594 44.367188 322.457031 48.753906 327.703125 Z M 307.699219 340.6875 C 318.023438 348.085938 327.335938 354.621094 328.398438 355.203125 C 329.457031 355.789062 330.316406 356.769531 330.308594 357.386719 C 330.296875 358 326.921875 361.089844 322.808594 364.253906 C 318.691406 367.417969 309.589844 374.453125 302.578125 379.886719 C 295.566406 385.320312 289.300781 389.769531 288.648438 389.769531 C 287.707031 389.769531 287.464844 387.25 287.464844 377.464844 L 287.464844 365.164062 L 267.53125 365.167969 C 245.5625 365.167969 147.125 366.847656 119.5 367.691406 C 109.867188 367.984375 98.777344 367.929688 94.855469 367.570312 C 88.089844 366.945312 87.722656 366.789062 87.722656 364.5 L 87.722656 362.089844 L 118.367188 362.039062 C 135.226562 362.011719 152.296875 361.792969 156.300781 361.550781 C 170.761719 360.683594 206.386719 360.097656 246.53125 360.070312 C 286.566406 360.039062 287.464844 359.996094 287.464844 358.035156 C 287.464844 356.089844 286.558594 356.023438 255.386719 355.730469 C 237.746094 355.5625 223.019531 355.082031 222.667969 354.65625 C 222.316406 354.234375 222.316406 353.542969 222.667969 353.121094 C 223.019531 352.699219 237.648438 352.074219 255.171875 351.730469 C 272.695312 351.390625 287.132812 351.046875 287.25 350.964844 C 287.367188 350.882812 287.464844 345.507812 287.464844 339.023438 C 287.464844 332.539062 287.792969 327.234375 288.195312 327.234375 C 288.601562 327.234375 297.375 333.289062 307.699219 340.6875 Z M 147.71875 336.441406 C 161.398438 339.25 176.351562 342.449219 180.949219 343.554688 C 185.546875 344.65625 193.742188 346.503906 199.164062 347.660156 C 210.027344 349.976562 215.835938 351.722656 215.199219 352.484375 C 214.386719 353.453125 163.605469 344.929688 140.441406 339.929688 C 128.054688 337.257812 126.339844 337.148438 93.722656 336.921875 C 47.921875 336.605469 52.574219 336.945312 52.574219 333.898438 L 52.574219 331.335938 L 122.847656 331.335938 Z M 83.902344 358.457031 C 88.351562 363.773438 85.273438 373.367188 79.121094 373.367188 C 75.476562 373.367188 71.433594 368.53125 71.433594 364.171875 C 71.433594 356.816406 79.453125 353.136719 83.902344 358.457031 Z M 234.3125 371.234375 C 233.605469 371.71875 225.699219 374.03125 216.738281 376.367188 C 207.78125 378.703125 196.261719 381.761719 191.140625 383.164062 C 186.019531 384.566406 172.519531 388.023438 161.136719 390.855469 C 149.753906 393.679688 136.882812 396.902344 132.527344 398.007812 C 125.378906 399.824219 121.125 400.019531 88.59375 400.019531 L 52.574219 400.019531 L 52.574219 394.894531 L 122.945312 394.894531 L 149.695312 388.792969 C 164.410156 385.4375 183.199219 381.289062 191.449219 379.574219 C 199.703125 377.859375 212.046875 375.113281 218.882812 373.472656 C 231.925781 370.339844 236.605469 369.660156 234.3125 371.234375 Z M 228.691406 382.546875 C 228.242188 383.085938 223.054688 385.578125 217.164062 388.085938 C 211.273438 390.59375 192.507812 398.90625 175.46875 406.558594 C 158.429688 414.210938 139.667969 422.554688 133.785156 425.109375 L 123.082031 429.746094 L 88.578125 429.746094 L 88.578125 424.621094 L 122.765625 424.621094 L 147.894531 413.722656 C 161.710938 407.726562 180.15625 400.054688 188.878906 396.671875 C 197.601562 393.289062 209.753906 388.546875 215.882812 386.132812 C 227.421875 381.589844 230.125 380.832031 228.691406 382.546875 Z M 249.277344 388.117188 L 252.359375 391.597656 L 252.121094 448.558594 C 251.894531 504.164062 251.847656 505.554688 250.171875 507.027344 C 248.195312 508.769531 222.6875 527.882812 206.667969 539.628906 L 195.738281 547.640625 L 195.738281 418.585938 L 197.664062 416.046875 C 199.34375 413.835938 236.902344 388.261719 242.214844 385.710938 C 245.339844 384.210938 246.015625 384.445312 249.277344 388.117188 Z M 48.753906 391.257812 C 50.824219 393.734375 51.472656 397.945312 50.328125 401.511719 C 49.652344 403.617188 45.570312 406.171875 42.882812 406.171875 C 39.683594 406.171875 36.285156 401.785156 36.285156 397.65625 C 36.285156 389.773438 44.140625 385.742188 48.753906 391.257812 Z M 82.097656 418.449219 C 83.308594 419 84.9375 421.042969 85.710938 422.988281 C 86.914062 426.003906 86.960938 427 86.015625 429.722656 C 82.882812 438.765625 72.25 436.597656 72.316406 426.929688 C 72.347656 422.824219 73.390625 420.574219 76.148438 418.683594 C 78.28125 417.222656 79.3125 417.179688 82.097656 418.449219 Z M 82.097656 418.449219 " fill-opacity="1" fill-rule="evenodd"/></g><path fill="#27ffbf" d="M 476.796875 251.355469 C 482.6875 251.355469 487.113281 253.761719 490.429688 258.421875 L 490.480469 258.492188 L 490.527344 258.554688 C 494.019531 263.042969 495.914062 269.207031 495.914062 277.488281 L 495.914062 297.738281 L 464.234375 297.738281 L 464.234375 288.875 C 464.234375 279.570312 462.703125 271.703125 459.285156 265.671875 C 455.695312 259.082031 450.242188 255.859375 443.460938 255.859375 C 436.511719 255.859375 430.890625 259.0625 427.101562 265.652344 L 427.097656 265.660156 L 427.089844 265.671875 C 423.671875 271.703125 422.136719 279.570312 422.136719 288.875 L 422.136719 445.417969 L 390.457031 445.417969 L 390.457031 260.519531 L 383.640625 251.355469 Z M 476.796875 251.355469 " fill-opacity="1" fill-rule="nonzero"/><path fill="#27ffbf" d="M 907.59375 251.355469 C 901.703125 251.355469 897.277344 253.761719 893.960938 258.421875 L 893.910156 258.492188 L 893.859375 258.554688 C 890.371094 263.042969 888.476562 269.207031 888.476562 277.488281 L 888.476562 297.738281 L 920.160156 297.738281 L 920.160156 288.875 C 920.160156 279.570312 921.6875 271.703125 925.105469 265.671875 C 928.699219 259.082031 934.148438 255.859375 940.933594 255.859375 C 947.875 255.859375 953.503906 259.0625 957.285156 265.652344 L 957.292969 265.660156 L 957.300781 265.671875 C 960.71875 271.703125 962.253906 279.570312 962.253906 288.875 L 962.253906 445.417969 L 993.933594 445.417969 L 993.933594 260.519531 L 1000.75 251.355469 Z M 907.59375 251.355469 " fill-opacity="1" fill-rule="nonzero"/><path fill="#27ffbf" d="M 451.691406 381.640625 C 451.691406 385.859375 452.757812 389.253906 454.894531 391.832031 C 457.03125 394.292969 459.722656 395.523438 462.976562 395.523438 C 466.332031 395.523438 469.078125 394.292969 471.210938 391.832031 C 473.449219 389.253906 474.566406 385.859375 474.566406 381.640625 L 474.566406 311.890625 L 468.464844 304.863281 L 495.917969 304.863281 L 495.917969 431.011719 C 495.917969 435.34375 494.746094 438.800781 492.40625 441.378906 C 490.171875 444.070312 487.171875 445.417969 483.410156 445.417969 L 448.945312 445.417969 C 445.183594 445.417969 442.136719 444.070312 439.796875 441.378906 C 437.558594 438.800781 436.441406 435.34375 436.441406 431.011719 L 436.441406 419.242188 L 457.792969 419.242188 L 457.792969 425.566406 C 457.792969 429.78125 458.351562 433.121094 459.46875 435.578125 C 460.6875 438.15625 462.976562 439.445312 466.332031 439.445312 C 469.585938 439.445312 471.769531 438.15625 472.890625 435.578125 C 474.007812 433.121094 474.566406 429.78125 474.566406 425.566406 L 474.566406 401.496094 L 442.847656 401.496094 C 439.085938 401.496094 436.035156 400.207031 433.699219 397.628906 C 431.460938 394.9375 430.34375 391.421875 430.34375 387.089844 L 430.34375 311.890625 L 424.242188 304.863281 L 451.691406 304.863281 Z M 451.691406 381.640625 " fill-opacity="1" fill-rule="nonzero"/><path fill="#27ffbf" d="M 829.292969 445.417969 L 716.460938 445.417969 L 717.339844 252.15625 L 739.378906 259.671875 L 739.378906 433.035156 C 739.378906 435.691406 743.789062 435.246094 743.789062 433.035156 L 742.023438 320.261719 L 767.589844 326.453125 L 767.589844 425.960938 C 768.472656 436.574219 794.914062 439.667969 804.609375 439.667969 L 829.292969 439.667969 Z M 829.292969 445.417969 " fill-opacity="1" fill-rule="nonzero"/><path fill="#27ffbf" d="M 534.710938 445.417969 L 647.546875 445.417969 L 646.664062 252.15625 L 624.625 259.671875 L 624.625 433.035156 C 624.625 435.691406 620.21875 435.246094 620.21875 433.035156 L 621.984375 320.261719 L 596.417969 326.453125 L 596.417969 425.960938 C 595.535156 436.574219 569.089844 439.667969 559.394531 439.667969 L 534.710938 439.667969 Z M 534.710938 445.417969 " fill-opacity="1" fill-rule="nonzero"/><path stroke-linecap="butt" transform="matrix(0.731732, 0, 0, 0.732484, 36.285456, 202.641368)" fill="none" stroke-linejoin="miter" d="M 829.154315 69.77973 L 881.902691 232.22994 L 935.75077 69.77973 " stroke="#27ffbf" stroke-width="9" stroke-opacity="1" stroke-miterlimit="4"/><path fill="#27ffbf" d="M 776.957031 293.472656 C 772.171875 296.945312 771.300781 305.3125 775.179688 310.535156 C 777.339844 313.441406 779.386719 314.285156 782.277344 313.453125 L 784.246094 312.882812 L 793.070312 325.125 L 801.894531 337.363281 L 822.449219 337.363281 L 821.953125 335.996094 C 821.675781 335.242188 821.332031 333.675781 821.191406 332.511719 L 820.941406 330.398438 L 803.644531 330.398438 L 795.648438 319.265625 L 787.648438 308.136719 L 788.042969 305.582031 C 788.667969 301.558594 788.039062 298.488281 785.996094 295.558594 C 783.367188 291.796875 780.25 291.078125 776.957031 293.472656 Z M 933.878906 292.828125 C 930.367188 294.558594 928.257812 300.171875 929.09375 305.582031 L 929.488281 308.136719 L 921.492188 319.265625 L 913.492188 330.398438 L 896.203125 330.398438 L 895.945312 332.511719 C 895.808594 333.675781 895.460938 335.242188 895.191406 335.996094 L 894.6875 337.363281 L 915.242188 337.363281 L 924.066406 325.125 L 932.898438 312.882812 L 934.867188 313.453125 C 941.722656 315.433594 946.777344 305.46875 943.136719 297.160156 C 941.277344 292.925781 937.382812 291.105469 933.878906 292.828125 Z M 853.328125 308.585938 C 852.386719 309.222656 851.769531 311.023438 851.769531 313.15625 C 851.769531 315.4375 850.160156 319.671875 848.609375 321.453125 C 847.210938 323.058594 844.476562 324.425781 842.675781 324.421875 C 840.808594 324.417969 838.980469 323.46875 837.210938 321.585938 C 834.539062 318.753906 834.054688 318.960938 829.945312 324.714844 C 827.996094 327.429688 826.3125 330.214844 826.191406 330.90625 C 826.027344 331.859375 826.277344 332.695312 827.234375 334.40625 C 828.648438 336.933594 829.59375 340.1875 829.59375 342.558594 C 829.59375 345.132812 828.617188 348.921875 827.457031 350.878906 C 826.175781 353.03125 823.132812 355.277344 821.484375 355.277344 C 819.898438 355.277344 818.652344 356.144531 818.183594 357.59375 C 817.570312 359.46875 817.664062 370.4375 818.316406 372.179688 C 818.84375 373.597656 819.070312 373.726562 822.253906 374.4375 C 826.269531 375.335938 829.578125 380.976562 829.585938 386.9375 C 829.59375 389.265625 828.648438 392.535156 827.25 395.023438 C 826.570312 396.242188 826.015625 397.695312 826.015625 398.253906 C 826.015625 398.878906 827.507812 401.34375 829.921875 404.703125 C 834.339844 410.847656 834.390625 410.871094 837.261719 407.820312 C 838.957031 406.023438 841.839844 404.796875 843.554688 405.144531 L 844.613281 405.363281 L 844.613281 394.902344 C 844.613281 384.5 844.613281 384.433594 843.742188 383.171875 C 842.308594 381.078125 840.339844 376.140625 839.574219 372.691406 C 838.644531 368.558594 838.578125 361.535156 839.425781 357.425781 C 841.335938 348.230469 846.699219 340.765625 853.300781 338.113281 C 856.226562 336.9375 861.320312 337.03125 864.289062 338.3125 C 870.722656 341.085938 875.832031 348.367188 877.710938 357.4375 C 878.574219 361.589844 878.507812 368.570312 877.578125 372.691406 C 876.714844 376.480469 874.777344 381.167969 873.035156 383.660156 L 871.804688 385.421875 L 871.804688 405.546875 L 873.210938 405.234375 C 875.222656 404.785156 878.054688 405.882812 879.875 407.820312 C 882.753906 410.875 882.789062 410.855469 887.261719 404.640625 C 891.695312 398.480469 891.753906 398.226562 889.691406 394.652344 C 888.480469 392.550781 887.546875 389.175781 887.546875 386.890625 C 887.546875 380.9375 890.84375 375.339844 894.882812 374.4375 C 898.074219 373.726562 898.292969 373.597656 898.820312 372.179688 C 899.472656 370.4375 899.574219 359.46875 898.960938 357.59375 C 898.484375 356.144531 897.25 355.277344 895.652344 355.277344 C 894.015625 355.277344 890.960938 353.03125 889.683594 350.878906 C 888.519531 348.921875 887.546875 345.132812 887.546875 342.558594 C 887.546875 340.1875 888.488281 336.933594 889.902344 334.40625 C 890.859375 332.695312 891.109375 331.859375 890.949219 330.90625 C 890.824219 330.214844 889.140625 327.429688 887.203125 324.714844 C 883.140625 319.046875 882.503906 318.738281 880.175781 321.335938 C 878.582031 323.113281 876.179688 324.425781 874.511719 324.425781 C 872.660156 324.425781 869.933594 323.074219 868.527344 321.453125 C 866.984375 319.671875 865.367188 315.4375 865.367188 313.15625 C 865.367188 310.9375 864.746094 309.21875 863.699219 308.558594 C 862.609375 307.863281 854.375 307.886719 853.328125 308.585938 Z M 789.835938 354.441406 C 786.652344 356.09375 784.511719 360.238281 784.511719 364.730469 C 784.511719 371.71875 789.539062 377.054688 794.351562 375.179688 C 796.234375 374.449219 798.546875 371.832031 799.175781 369.726562 L 799.628906 368.214844 L 812.777344 368.214844 L 812.777344 361.25 L 806.175781 361.25 C 799.890625 361.25 799.578125 361.203125 799.355469 360.25 C 798.355469 355.855469 793.1875 352.703125 789.835938 354.441406 Z M 922.96875 354.222656 C 920.488281 355.347656 918.328125 357.859375 917.78125 360.25 C 917.5625 361.203125 917.246094 361.25 910.960938 361.25 L 904.359375 361.25 L 904.359375 368.214844 L 917.515625 368.214844 L 917.964844 369.726562 C 918.59375 371.832031 920.90625 374.449219 922.792969 375.179688 C 927.847656 377.152344 932.984375 371.296875 932.554688 364.050781 C 932.34375 360.488281 930.921875 357.167969 928.894531 355.523438 C 927.226562 354.160156 924.445312 353.550781 922.96875 354.222656 Z M 855.964844 358.007812 C 853.660156 358.824219 851.800781 360.988281 850.609375 364.222656 L 849.628906 366.898438 L 849.628906 414.117188 C 849.628906 458.851562 849.589844 461.320312 848.996094 461.082031 C 844.425781 459.234375 841.03125 459.15625 838.828125 460.847656 C 835.710938 463.25 833.558594 469.308594 834.042969 474.355469 C 834.523438 479.378906 835.828125 481.898438 840.480469 486.789062 C 842.066406 488.453125 845.960938 492.785156 849.136719 496.417969 C 856.21875 504.527344 859.5 507.820312 862.511719 509.863281 C 868.21875 513.738281 874.910156 515.585938 883.617188 515.683594 C 888.761719 515.746094 889.902344 515.609375 892.535156 514.605469 C 902.4375 510.84375 910.082031 501.980469 914.539062 489.105469 C 917.757812 479.796875 917.765625 479.730469 917.773438 453.054688 C 917.78125 429.855469 917.773438 429.652344 916.992188 427.605469 C 914.394531 420.855469 908.277344 418.902344 904.074219 423.472656 C 902.839844 424.816406 901.140625 428.304688 901.140625 429.496094 C 901.140625 430 900.980469 430.414062 900.789062 430.414062 C 900.59375 430.414062 900.429688 430.011719 900.429688 429.515625 C 900.429688 427.84375 898.367188 424.058594 896.734375 422.730469 C 892.175781 419.011719 886.207031 421.800781 884.414062 428.476562 L 883.742188 430.980469 L 883.332031 429.082031 C 882.359375 424.589844 878.722656 420.964844 875.207031 420.976562 C 871.996094 420.988281 868.855469 423.902344 867.464844 428.164062 C 866.824219 430.128906 866.816406 429.59375 866.808594 399.28125 C 866.800781 364.648438 866.816406 364.921875 864.363281 361.410156 C 862.023438 358.046875 859.140625 356.882812 855.964844 358.007812 Z M 793.050781 404.367188 L 784.203125 416.632812 L 782.285156 416.097656 C 779.324219 415.269531 777.304688 416.070312 775.203125 418.898438 C 771.296875 424.164062 772.164062 432.625 776.972656 436.011719 C 780.425781 438.449219 783.867188 437.507812 786.367188 433.4375 C 788.058594 430.695312 788.609375 427.691406 788.074219 424.113281 L 787.671875 421.417969 L 795.726562 410.242188 L 803.785156 399.066406 L 820.941406 399.066406 L 821.191406 396.949219 C 821.332031 395.789062 821.675781 394.21875 821.953125 393.46875 L 822.449219 392.097656 L 801.894531 392.097656 Z M 895.191406 393.46875 C 895.460938 394.21875 895.808594 395.789062 895.945312 396.949219 L 896.203125 399.066406 L 913.441406 399.066406 L 921.425781 410.21875 C 925.816406 416.355469 929.402344 421.5625 929.402344 421.789062 C 929.394531 422.015625 929.226562 423.203125 929.019531 424.421875 C 927.980469 430.722656 931.84375 437.339844 936.585938 437.371094 C 939.066406 437.386719 941.847656 435.234375 943.136719 432.300781 C 946.792969 423.957031 941.796875 414.15625 934.867188 416.09375 L 932.933594 416.632812 L 924.089844 404.367188 L 915.242188 392.097656 L 894.6875 392.097656 Z M 895.191406 393.46875 " fill-opacity="1" fill-rule="evenodd"/><path fill="#27ffbf" d="M 587.84375 373.917969 C 590.558594 374.683594 591.917969 376.441406 591.917969 379.195312 L 591.917969 412.230469 C 591.917969 417.890625 590.273438 422.480469 586.984375 425.996094 C 583.839844 429.363281 579.621094 431.042969 574.328125 431.042969 L 519.421875 431.042969 C 514.128906 431.042969 509.839844 429.363281 506.550781 425.996094 C 503.40625 422.480469 501.832031 417.890625 501.832031 412.230469 L 501.832031 383.09375 L 531.863281 383.09375 L 531.863281 405.121094 C 531.863281 410.625 533.003906 415.0625 535.292969 418.425781 C 537.722656 421.636719 541.511719 423.242188 546.660156 423.242188 L 547.089844 423.242188 C 552.238281 423.242188 555.957031 421.636719 558.242188 418.425781 C 560.675781 415.0625 561.890625 410.625 561.890625 405.121094 L 561.890625 383.785156 C 561.890625 381.03125 560.53125 379.273438 557.816406 378.507812 L 505.910156 361.988281 C 503.191406 361.222656 501.832031 359.464844 501.832031 356.710938 L 501.832031 323.675781 C 501.832031 318.015625 503.40625 313.503906 506.550781 310.140625 C 509.839844 306.621094 514.128906 304.863281 519.421875 304.863281 L 574.328125 304.863281 C 579.621094 304.863281 583.839844 306.621094 586.984375 310.140625 C 590.273438 313.503906 591.917969 318.015625 591.917969 323.675781 L 591.917969 344.554688 L 561.890625 344.554688 L 561.890625 330.789062 C 561.890625 325.28125 560.675781 320.921875 558.242188 317.710938 C 555.8125 314.347656 551.953125 312.664062 546.660156 312.664062 C 541.511719 312.664062 537.722656 314.347656 535.292969 317.710938 C 533.003906 320.921875 531.863281 325.28125 531.863281 330.789062 L 531.863281 352.125 C 531.863281 354.878906 533.21875 356.636719 535.9375 357.402344 Z M 587.84375 373.917969 " fill-opacity="1" fill-rule="nonzero"/><g clip-path="url(#49d2815081)"><path fill="#27ffbf" d="M 1084.441406 387.960938 C 1087.15625 388.726562 1088.515625 390.488281 1088.515625 393.238281 L 1088.515625 426.277344 C 1088.515625 431.933594 1086.871094 436.523438 1083.582031 440.039062 C 1080.4375 443.40625 1076.214844 445.089844 1070.925781 445.089844 L 1016.015625 445.089844 C 1010.726562 445.089844 1006.4375 443.40625 1003.152344 440.039062 C 1000.003906 436.523438 998.433594 431.933594 998.433594 426.277344 L 998.433594 397.140625 L 1028.453125 397.140625 L 1028.453125 419.164062 C 1028.453125 424.671875 1029.605469 429.105469 1031.886719 432.46875 C 1034.324219 435.683594 1038.113281 437.289062 1043.257812 437.289062 L 1043.691406 437.289062 C 1048.832031 437.289062 1052.550781 435.683594 1054.839844 432.46875 C 1057.269531 429.105469 1058.484375 424.671875 1058.484375 419.164062 L 1058.484375 397.828125 C 1058.484375 395.074219 1057.132812 393.316406 1054.410156 392.550781 L 1002.507812 376.035156 C 999.785156 375.269531 998.433594 373.507812 998.433594 370.757812 L 998.433594 337.71875 C 998.433594 332.0625 1000.003906 327.550781 1003.152344 324.183594 C 1006.4375 320.667969 1010.726562 318.90625 1016.015625 318.90625 L 1070.925781 318.90625 C 1076.214844 318.90625 1080.4375 320.667969 1083.582031 324.183594 C 1086.871094 327.550781 1088.515625 332.0625 1088.515625 337.71875 L 1088.515625 358.597656 L 1058.484375 358.597656 L 1058.484375 344.832031 C 1058.484375 339.324219 1057.269531 334.96875 1054.839844 331.753906 C 1052.410156 328.390625 1048.546875 326.707031 1043.257812 326.707031 C 1038.113281 326.707031 1034.324219 328.390625 1031.886719 331.753906 C 1029.605469 334.96875 1028.453125 339.324219 1028.453125 344.832031 L 1028.453125 366.167969 C 1028.453125 368.921875 1029.816406 370.679688 1032.53125 371.445312 Z M 1084.441406 387.960938 " fill-opacity="1" fill-rule="nonzero"/></g></svg>