<svg xmlns="http://www.w3.org/2000/svg" xmlns:xlink="http://www.w3.org/1999/xlink" width="200" zoomAndPan="magnify" viewBox="0 0 150 149.999998" height="200" preserveAspectRatio="xMidYMid meet" version="1.0"><defs><clipPath id="6e288c5be3"><path d="M 8.425781 15 L 141.925781 15 L 141.925781 135 L 8.425781 135 Z M 8.425781 15 " clip-rule="nonzero"/></clipPath></defs><path fill="#27ffbf" d="M 91.949219 65.621094 C 91.949219 65.621094 93.109375 69.8125 93.109375 69.8125 C 95.742188 70.777344 98.191406 72.191406 100.34375 73.988281 L 104.554688 72.902344 C 105.339844 72.695312 106.175781 72.957031 106.710938 73.566406 C 109.195312 76.417969 111.105469 79.726562 112.332031 83.308594 C 112.59375 84.074219 112.402344 84.929688 111.832031 85.507812 C 111.832031 85.507812 108.785156 88.605469 108.785156 88.605469 C 109.265625 91.371094 109.265625 94.199219 108.785156 96.964844 L 111.832031 100.0625 C 112.402344 100.644531 112.59375 101.496094 112.332031 102.261719 C 111.105469 105.84375 109.195312 109.152344 106.710938 112.003906 C 106.175781 112.617188 105.339844 112.875 104.554688 112.671875 C 104.554688 112.671875 100.34375 111.582031 100.34375 111.582031 C 98.191406 113.378906 95.742188 114.792969 93.109375 115.757812 L 91.949219 119.949219 C 91.730469 120.730469 91.089844 121.324219 90.292969 121.480469 C 86.578125 122.207031 82.757812 122.207031 79.046875 121.480469 C 78.25 121.324219 77.609375 120.730469 77.390625 119.949219 C 77.390625 119.949219 76.230469 115.757812 76.230469 115.757812 C 73.597656 114.792969 71.148438 113.378906 68.992188 111.582031 L 64.785156 112.671875 C 64 112.875 63.164062 112.617188 62.628906 112.003906 C 60.144531 109.152344 58.234375 105.84375 57.007812 102.261719 C 56.742188 101.496094 56.9375 100.644531 57.507812 100.0625 C 57.507812 100.0625 60.554688 96.964844 60.554688 96.964844 C 60.074219 94.199219 60.074219 91.371094 60.554688 88.605469 L 57.507812 85.507812 C 56.9375 84.929688 56.742188 84.074219 57.007812 83.308594 C 58.234375 79.726562 60.144531 76.417969 62.628906 73.566406 C 63.164062 72.957031 64 72.695312 64.785156 72.902344 C 64.785156 72.902344 68.992188 73.988281 68.992188 73.988281 C 71.148438 72.191406 73.597656 70.777344 76.230469 69.8125 L 77.390625 65.621094 C 77.609375 64.839844 78.25 64.246094 79.046875 64.089844 C 82.757812 63.363281 86.578125 63.363281 90.292969 64.089844 C 91.089844 64.246094 91.730469 64.839844 91.949219 65.621094 Z M 88.175781 68.085938 C 85.851562 67.753906 83.488281 67.753906 81.164062 68.085938 L 80.0625 72.050781 C 79.871094 72.753906 79.332031 73.308594 78.636719 73.527344 C 75.800781 74.414062 73.195312 75.917969 71.007812 77.929688 C 70.46875 78.425781 69.71875 78.613281 69.015625 78.429688 C 69.015625 78.429688 65.03125 77.398438 65.03125 77.398438 C 63.582031 79.246094 62.402344 81.292969 61.523438 83.472656 L 64.410156 86.40625 C 64.921875 86.925781 65.132812 87.667969 64.972656 88.378906 C 64.324219 91.28125 64.324219 94.289062 64.972656 97.191406 C 65.132812 97.902344 64.921875 98.644531 64.410156 99.164062 C 64.410156 99.164062 61.523438 102.097656 61.523438 102.097656 C 62.402344 104.277344 63.582031 106.324219 65.03125 108.171875 L 69.015625 107.140625 C 69.71875 106.957031 70.46875 107.144531 71.007812 107.640625 C 73.195312 109.652344 75.800781 111.15625 78.636719 112.042969 C 79.332031 112.261719 79.871094 112.816406 80.0625 113.519531 C 80.0625 113.519531 81.164062 117.488281 81.164062 117.488281 C 83.488281 117.816406 85.851562 117.816406 88.175781 117.488281 L 89.273438 113.519531 C 89.46875 112.816406 90.007812 112.261719 90.703125 112.042969 C 93.539062 111.15625 96.144531 109.652344 98.332031 107.640625 C 98.867188 107.144531 99.617188 106.957031 100.324219 107.140625 C 100.324219 107.140625 104.308594 108.171875 104.308594 108.171875 C 105.757812 106.324219 106.9375 104.277344 107.816406 102.097656 L 104.929688 99.164062 C 104.417969 98.644531 104.207031 97.902344 104.363281 97.191406 C 105.015625 94.289062 105.015625 91.28125 104.363281 88.378906 C 104.207031 87.667969 104.417969 86.925781 104.929688 86.40625 C 104.929688 86.40625 107.816406 83.472656 107.8125 83.472656 C 106.9375 81.292969 105.757812 79.246094 104.308594 77.398438 L 100.324219 78.429688 C 99.617188 78.613281 98.867188 78.425781 98.332031 77.929688 C 96.144531 75.917969 93.539062 74.414062 90.703125 73.527344 C 90.007812 73.308594 89.46875 72.753906 89.273438 72.050781 Z M 84.667969 79.585938 C 91.953125 79.585938 97.867188 85.5 97.867188 92.785156 C 97.867188 100.070312 91.953125 105.984375 84.667969 105.984375 C 77.386719 105.984375 71.472656 100.070312 71.472656 92.785156 C 71.472656 85.5 77.386719 79.585938 84.667969 79.585938 Z M 84.667969 83.878906 C 79.753906 83.878906 75.765625 87.871094 75.765625 92.785156 C 75.765625 97.699219 79.753906 101.691406 84.667969 101.691406 C 89.585938 101.691406 93.574219 97.699219 93.574219 92.785156 C 93.574219 87.871094 89.585938 83.878906 84.667969 83.878906 Z M 84.667969 83.878906 " fill-opacity="1" fill-rule="evenodd"/><path fill="#27ffbf" d="M 55.167969 41.582031 L 50.03125 41.582031 C 45.503906 41.582031 41.832031 45.25 41.832031 49.777344 L 41.832031 82.441406 C 41.832031 84.617188 42.695312 86.699219 44.234375 88.238281 C 45.773438 89.773438 47.855469 90.640625 50.03125 90.640625 L 54.597656 90.640625 C 55.78125 90.640625 56.742188 91.601562 56.742188 92.785156 C 56.742188 93.96875 55.78125 94.929688 54.597656 94.929688 L 50.03125 94.929688 C 46.71875 94.929688 43.542969 93.617188 41.199219 91.273438 C 38.855469 88.929688 37.539062 85.753906 37.539062 82.441406 L 37.539062 49.777344 C 37.539062 42.882812 43.132812 37.289062 50.03125 37.289062 L 55.167969 37.289062 L 55.167969 35.78125 C 55.167969 33.703125 55.992188 31.710938 57.460938 30.242188 C 58.929688 28.773438 60.921875 27.945312 63 27.945312 L 74.828125 27.945312 C 76.90625 27.945312 78.898438 28.773438 80.367188 30.242188 C 81.835938 31.710938 82.664062 33.703125 82.664062 35.78125 L 82.664062 43.089844 C 82.664062 45.167969 81.835938 47.160156 80.367188 48.628906 C 78.898438 50.097656 76.90625 50.921875 74.828125 50.921875 L 63 50.921875 C 60.921875 50.921875 58.929688 50.097656 57.460938 48.628906 C 55.992188 47.160156 55.167969 45.167969 55.167969 43.089844 Z M 59.460938 35.78125 L 59.460938 43.089844 C 59.460938 44.027344 59.832031 44.929688 60.496094 45.59375 C 61.160156 46.257812 62.0625 46.628906 63 46.628906 L 74.828125 46.628906 C 75.765625 46.628906 76.667969 46.257812 77.332031 45.59375 C 77.996094 44.929688 78.371094 44.027344 78.371094 43.089844 L 78.371094 35.78125 C 78.371094 34.839844 77.996094 33.941406 77.332031 33.277344 C 76.667969 32.613281 75.765625 32.238281 74.828125 32.238281 L 63 32.238281 C 62.0625 32.238281 61.160156 32.613281 60.496094 33.277344 C 59.832031 33.941406 59.460938 34.839844 59.460938 35.78125 Z M 59.460938 35.78125 " fill-opacity="1" fill-rule="evenodd"/><g clip-path="url(#6e288c5be3)"><path fill="#27ffbf" d="M 13.289062 77.132812 L 10.609375 77.132812 C 9.421875 77.132812 8.460938 76.171875 8.460938 74.988281 C 8.460938 73.800781 9.421875 72.839844 10.609375 72.839844 L 13.289062 72.839844 C 18.433594 72.839844 22.601562 68.671875 22.601562 63.527344 L 22.601562 28.59375 C 22.601562 24.988281 24.035156 21.527344 26.589844 18.972656 C 29.140625 16.421875 32.601562 14.988281 36.207031 14.988281 L 43.390625 14.988281 C 44.574219 14.988281 45.535156 15.949219 45.535156 17.136719 C 45.535156 18.320312 44.574219 19.28125 43.390625 19.28125 L 36.207031 19.28125 C 33.738281 19.28125 31.371094 20.261719 29.625 22.007812 C 27.875 23.757812 26.894531 26.125 26.894531 28.59375 L 26.894531 63.527344 C 26.894531 68.339844 24.398438 72.566406 20.628906 74.988281 C 24.398438 77.40625 26.894531 81.632812 26.894531 86.445312 L 26.894531 121.378906 C 26.894531 123.847656 27.875 126.21875 29.625 127.964844 C 31.371094 129.710938 33.738281 130.691406 36.207031 130.691406 L 43.390625 130.691406 C 44.574219 130.691406 45.535156 131.652344 45.535156 132.839844 C 45.535156 134.023438 44.574219 134.984375 43.390625 134.984375 L 36.207031 134.984375 C 32.601562 134.984375 29.140625 133.550781 26.589844 131 C 24.035156 128.449219 22.601562 124.988281 22.601562 121.378906 L 22.601562 86.445312 C 22.601562 81.300781 18.433594 77.132812 13.289062 77.132812 Z M 129.359375 74.988281 C 125.589844 72.566406 123.09375 68.339844 123.09375 63.527344 L 123.09375 28.59375 C 123.09375 26.125 122.113281 23.757812 120.363281 22.007812 C 118.617188 20.261719 116.25 19.28125 113.78125 19.28125 L 106.597656 19.28125 C 105.414062 19.28125 104.453125 18.320312 104.453125 17.136719 C 104.453125 15.949219 105.414062 14.988281 106.597656 14.988281 L 113.78125 14.988281 C 117.386719 14.988281 120.847656 16.421875 123.398438 18.972656 C 125.953125 21.527344 127.386719 24.988281 127.386719 28.59375 L 127.386719 63.527344 C 127.386719 68.671875 131.554688 72.839844 136.699219 72.839844 L 139.378906 72.839844 C 140.566406 72.839844 141.527344 73.800781 141.527344 74.988281 C 141.527344 76.171875 140.566406 77.132812 139.378906 77.132812 L 136.699219 77.132812 C 131.554688 77.132812 127.386719 81.300781 127.386719 86.445312 L 127.386719 121.378906 C 127.386719 124.988281 125.953125 128.449219 123.398438 131 C 120.847656 133.550781 117.386719 134.984375 113.78125 134.984375 L 106.597656 134.984375 C 105.414062 134.984375 104.453125 134.023438 104.453125 132.839844 C 104.453125 131.652344 105.414062 130.691406 106.597656 130.691406 L 113.78125 130.691406 C 116.25 130.691406 118.617188 129.710938 120.363281 127.964844 C 122.113281 126.21875 123.09375 123.847656 123.09375 121.378906 L 123.09375 86.445312 C 123.09375 81.632812 125.589844 77.40625 129.359375 74.988281 Z M 129.359375 74.988281 " fill-opacity="1" fill-rule="evenodd"/></g></svg>