<svg xmlns="http://www.w3.org/2000/svg" xmlns:xlink="http://www.w3.org/1999/xlink" width="200" zoomAndPan="magnify" viewBox="0 0 150 149.999998" height="200" preserveAspectRatio="xMidYMid meet" version="1.0"><defs><clipPath id="f1a73d0e45"><path d="M 13.511719 8.613281 L 136.511719 8.613281 L 136.511719 141.363281 L 13.511719 141.363281 Z M 13.511719 8.613281 " clip-rule="nonzero"/></clipPath></defs><g clip-path="url(#f1a73d0e45)"><path fill="#27ffbf" d="M 87.976562 71.765625 L 87.976562 69.746094 C 87.976562 68.777344 88.761719 67.996094 89.730469 67.996094 C 90.695312 67.996094 91.480469 68.777344 91.480469 69.746094 L 91.480469 71.765625 C 91.480469 72.730469 90.695312 73.515625 89.730469 73.515625 C 88.761719 73.515625 87.976562 72.730469 87.976562 71.765625 Z M 89.730469 81.996094 C 90.695312 81.996094 91.480469 81.214844 91.480469 80.246094 L 91.480469 78.226562 C 91.480469 77.261719 90.695312 76.476562 89.730469 76.476562 C 88.761719 76.476562 87.976562 77.261719 87.976562 78.226562 L 87.976562 80.246094 C 87.976562 81.214844 88.761719 81.996094 89.730469 81.996094 Z M 92.957031 76.746094 L 94.976562 76.746094 C 95.945312 76.746094 96.730469 75.960938 96.730469 74.996094 C 96.730469 74.027344 95.945312 73.246094 94.976562 73.246094 L 92.957031 73.246094 C 91.992188 73.246094 91.207031 74.027344 91.207031 74.996094 C 91.207031 75.960938 91.992188 76.746094 92.957031 76.746094 Z M 86.496094 73.246094 L 84.476562 73.246094 C 83.507812 73.246094 82.726562 74.027344 82.726562 74.996094 C 82.726562 75.960938 83.507812 76.746094 84.476562 76.746094 L 86.496094 76.746094 C 87.464844 76.746094 88.25 75.960938 88.25 74.996094 C 88.25 74.027344 87.464844 73.246094 86.496094 73.246094 Z M 33.714844 45.183594 C 34.683594 45.183594 35.464844 44.402344 35.464844 43.433594 L 35.464844 42.332031 L 36.542969 42.332031 C 37.511719 42.332031 38.296875 41.546875 38.296875 40.582031 C 38.296875 39.613281 37.511719 38.832031 36.542969 38.832031 L 35.464844 38.832031 L 35.464844 37.753906 C 35.464844 36.785156 34.683594 36 33.714844 36 C 32.746094 36 31.964844 36.785156 31.964844 37.753906 L 31.964844 38.832031 L 30.886719 38.832031 C 29.917969 38.832031 29.136719 39.613281 29.136719 40.582031 C 29.136719 41.546875 29.917969 42.332031 30.886719 42.332031 L 31.964844 42.332031 L 31.964844 43.433594 C 31.964844 44.402344 32.746094 45.183594 33.714844 45.183594 Z M 46.371094 114.742188 C 45.402344 114.742188 44.621094 115.527344 44.621094 116.492188 L 44.621094 117.597656 L 43.519531 117.597656 C 42.550781 117.597656 41.765625 118.382812 41.765625 119.347656 C 41.765625 120.3125 42.550781 121.097656 43.519531 121.097656 L 44.621094 121.097656 L 44.621094 122.175781 C 44.621094 123.140625 45.402344 123.925781 46.371094 123.925781 C 47.339844 123.925781 48.125 123.140625 48.125 122.175781 L 48.125 121.097656 L 49.199219 121.097656 C 50.167969 121.097656 50.949219 120.3125 50.949219 119.347656 C 50.949219 118.382812 50.167969 117.597656 49.199219 117.597656 L 48.125 117.597656 L 48.125 116.492188 C 48.125 115.527344 47.339844 114.742188 46.371094 114.742188 Z M 64.09375 77.472656 L 64.09375 82.023438 C 64.09375 83.851562 62.609375 85.335938 60.78125 85.335938 L 56.949219 85.335938 C 56.9375 85.371094 56.925781 85.394531 56.917969 85.410156 L 59.59375 88.085938 C 60.21875 88.710938 60.570312 89.578125 60.558594 90.464844 C 60.550781 91.347656 60.195312 92.167969 59.5625 92.769531 L 56.390625 95.945312 C 55.125 97.210938 52.960938 97.203125 51.707031 95.945312 L 48.84375 93.058594 L 48.960938 97.050781 C 48.960938 98.875 47.472656 100.363281 45.644531 100.363281 L 41.09375 100.363281 C 39.265625 100.363281 37.78125 98.875 37.78125 97.050781 L 37.78125 93.003906 L 34.980469 95.945312 C 33.660156 97.257812 31.605469 97.253906 30.296875 95.945312 L 27.089844 92.738281 C 25.824219 91.414062 25.835938 89.339844 27.089844 88.085938 L 29.757812 85.417969 C 29.722656 85.351562 29.691406 85.277344 29.664062 85.199219 L 25.933594 85.335938 C 24.105469 85.335938 22.621094 83.851562 22.621094 82.023438 L 22.621094 77.472656 C 22.621094 75.644531 24.105469 74.160156 25.933594 74.160156 L 29.273438 74.160156 C 29.230469 73.996094 29.269531 73.804688 29.339844 73.609375 L 27.121094 71.386719 C 26.492188 70.757812 26.144531 69.925781 26.140625 69.046875 C 26.140625 68.164062 26.488281 67.332031 27.121094 66.703125 L 30.324219 63.496094 C 31.636719 62.183594 33.695312 62.1875 35.007812 63.496094 L 36.933594 65.421875 C 37.265625 65.25 37.621094 65.105469 37.976562 64.988281 L 37.808594 62.339844 C 37.808594 60.511719 39.296875 59.027344 41.121094 59.027344 L 45.671875 59.027344 C 47.5 59.027344 48.984375 60.511719 48.984375 62.339844 L 48.984375 65.050781 C 49.277344 65.171875 49.539062 65.285156 49.796875 65.40625 L 51.707031 63.496094 C 52.960938 62.238281 55.125 62.234375 56.390625 63.496094 L 59.59375 66.703125 C 60.226562 67.332031 60.574219 68.164062 60.574219 69.046875 C 60.570312 69.925781 60.222656 70.757812 59.59375 71.386719 L 57.277344 73.703125 C 57.503906 73.964844 57.5625 74.117188 57.621094 74.273438 L 60.78125 74.160156 C 62.609375 74.160156 64.09375 75.644531 64.09375 77.472656 Z M 56.976562 85.273438 L 55.421875 84.472656 L 56.917969 85.3125 Z M 56.863281 85.355469 L 56.886719 85.335938 L 56.847656 85.339844 Z M 56.847656 85.34375 L 56.832031 85.375 L 56.855469 85.359375 C 56.855469 85.351562 56.847656 85.347656 56.847656 85.34375 Z M 60.78125 81.835938 L 60.589844 77.472656 L 57.441406 77.660156 C 56.015625 77.660156 54.753906 76.746094 54.300781 75.386719 C 54.144531 75.003906 54.085938 74.851562 54.03125 74.691406 C 53.601562 73.511719 53.894531 72.136719 54.796875 71.230469 L 57.117188 68.910156 L 53.914062 65.972656 L 52.164062 67.992188 C 51.160156 68.992188 49.644531 69.238281 48.390625 68.617188 C 48.101562 68.472656 47.816406 68.355469 47.527344 68.234375 C 46.316406 67.796875 45.484375 66.589844 45.484375 65.195312 L 45.484375 62.339844 L 41.121094 62.527344 L 41.3125 65.195312 C 41.3125 66.539062 40.480469 67.746094 39.195312 68.269531 C 38.867188 68.382812 38.640625 68.476562 38.429688 68.589844 C 37.058594 69.25 35.558594 69.003906 34.550781 67.992188 L 32.53125 65.972656 L 29.597656 69.175781 L 31.910156 71.226562 C 32.832031 72.148438 33.121094 73.53125 32.65625 74.757812 C 32.519531 75.046875 32.480469 75.195312 32.429688 75.34375 C 31.960938 76.746094 30.699219 77.660156 29.273438 77.660156 L 25.933594 77.660156 L 26.121094 82.023438 L 29.863281 81.835938 C 31.15625 81.835938 32.332031 82.585938 32.859375 83.75 L 32.96875 84.058594 C 33.589844 85.273438 33.339844 86.785156 32.34375 87.785156 L 29.714844 90.414062 L 32.773438 93.46875 L 35.601562 90.371094 C 36.382812 89.539062 37.597656 89.203125 38.773438 89.511719 L 39.132812 89.617188 C 40.417969 90.082031 41.285156 91.316406 41.285156 92.6875 L 41.285156 97.050781 L 45.644531 96.863281 L 45.457031 92.6875 C 45.457031 91.347656 46.265625 90.152344 47.511719 89.640625 L 47.941406 89.511719 C 49.074219 89.222656 50.28125 89.542969 51.109375 90.375 L 54.046875 93.335938 L 56.96875 90.414062 L 54.34375 87.785156 C 53.386719 86.828125 53.113281 85.394531 53.644531 84.175781 C 53.703125 84 53.773438 83.847656 53.847656 83.710938 C 54.382812 82.570312 55.554688 81.835938 56.847656 81.835938 Z M 50.523438 79.734375 C 50.523438 83.671875 47.320312 86.871094 43.382812 86.871094 C 39.449219 86.871094 36.246094 83.671875 36.246094 79.734375 C 36.246094 75.800781 39.449219 72.597656 43.382812 72.597656 C 47.320312 72.597656 50.523438 75.800781 50.523438 79.734375 Z M 47.019531 79.734375 C 47.019531 77.730469 45.386719 76.097656 43.382812 76.097656 C 41.378906 76.097656 39.75 77.730469 39.75 79.734375 C 39.75 81.742188 41.378906 83.371094 43.382812 83.371094 C 45.386719 83.371094 47.019531 81.742188 47.019531 79.734375 Z M 122.71875 108.277344 C 115.160156 108.277344 109.007812 102.128906 109.007812 94.574219 C 109.007812 94.359375 109.0625 94.160156 109.070312 93.945312 L 70.710938 89.886719 C 68.75 95.210938 65.300781 99.8125 60.859375 103.191406 L 67 109.921875 C 70.023438 107.5 73.847656 106.046875 78.011719 106.046875 C 87.753906 106.046875 95.679688 113.96875 95.679688 123.710938 C 95.679688 133.449219 87.753906 141.375 78.011719 141.375 C 68.273438 141.375 60.347656 133.449219 60.347656 123.710938 C 60.347656 119.390625 61.90625 115.4375 64.488281 112.367188 L 57.917969 105.164062 C 53.550781 107.726562 48.480469 109.222656 43.0625 109.222656 C 26.800781 109.222656 13.574219 95.992188 13.574219 79.734375 C 13.574219 63.476562 26.800781 50.246094 43.0625 50.246094 C 45.445312 50.246094 47.75 50.5625 49.96875 51.097656 L 52.234375 41.964844 C 45.84375 39.421875 41.308594 33.1875 41.308594 25.902344 C 41.308594 16.371094 49.066406 8.617188 58.597656 8.617188 C 68.128906 8.617188 75.886719 16.371094 75.886719 25.902344 C 75.886719 35.4375 68.128906 43.191406 58.597656 43.191406 C 57.578125 43.191406 56.582031 43.085938 55.609375 42.914062 L 53.320312 52.125 C 59.996094 54.613281 65.546875 59.425781 68.933594 65.605469 L 93.460938 53.105469 C 92.296875 50.464844 91.636719 47.550781 91.636719 44.484375 C 91.636719 32.648438 101.269531 23.023438 113.101562 23.023438 C 124.9375 23.023438 134.566406 32.648438 134.566406 44.484375 C 134.566406 56.320312 124.9375 65.949219 113.101562 65.949219 C 105.582031 65.949219 98.964844 62.050781 95.128906 56.183594 L 70.414062 68.78125 C 71.777344 72.171875 72.546875 75.863281 72.546875 79.734375 C 72.546875 82.058594 72.25 84.304688 71.742188 86.472656 L 109.699219 90.492188 C 111.449219 84.933594 116.589844 80.867188 122.71875 80.867188 C 130.273438 80.867188 136.421875 87.015625 136.421875 94.574219 C 136.421875 102.128906 130.273438 108.277344 122.71875 108.277344 Z M 95.140625 44.484375 C 95.140625 47.585938 95.933594 50.507812 97.320312 53.054688 C 97.328125 53.066406 97.339844 53.074219 97.347656 53.085938 C 97.351562 53.09375 97.351562 53.101562 97.351562 53.105469 C 100.410156 58.667969 106.320312 62.445312 113.101562 62.445312 C 123.007812 62.445312 131.0625 54.390625 131.0625 44.484375 C 131.0625 34.582031 123.007812 26.523438 113.101562 26.523438 C 103.199219 26.523438 95.140625 34.582031 95.140625 44.484375 Z M 58.597656 39.691406 C 66.199219 39.691406 72.386719 33.507812 72.386719 25.902344 C 72.386719 18.300781 66.199219 12.117188 58.597656 12.117188 C 50.996094 12.117188 44.8125 18.300781 44.8125 25.902344 C 44.8125 33.507812 50.996094 39.691406 58.597656 39.691406 Z M 78.011719 109.546875 C 74.132812 109.546875 70.613281 111.121094 68.050781 113.65625 C 68.050781 113.660156 68.050781 113.664062 68.046875 113.664062 C 68.042969 113.667969 68.039062 113.667969 68.03125 113.671875 C 65.453125 116.238281 63.847656 119.789062 63.847656 123.710938 C 63.847656 131.519531 70.203125 137.875 78.011719 137.875 C 85.824219 137.875 92.175781 131.519531 92.175781 123.710938 C 92.175781 115.898438 85.824219 109.546875 78.011719 109.546875 Z M 69.046875 79.734375 C 69.046875 65.40625 57.390625 53.746094 43.0625 53.746094 C 28.730469 53.746094 17.074219 65.40625 17.074219 79.734375 C 17.074219 94.0625 28.730469 105.722656 43.0625 105.722656 C 57.390625 105.722656 69.046875 94.0625 69.046875 79.734375 Z M 132.921875 94.574219 C 132.921875 88.945312 128.34375 84.367188 122.71875 84.367188 C 117.089844 84.367188 112.511719 88.945312 112.511719 94.574219 C 112.511719 100.199219 117.089844 104.777344 122.71875 104.777344 C 128.34375 104.777344 132.921875 100.199219 132.921875 94.574219 Z M 132.921875 94.574219 " fill-opacity="1" fill-rule="nonzero"/></g></svg>