<svg xmlns="http://www.w3.org/2000/svg" xmlns:xlink="http://www.w3.org/1999/xlink" width="200" zoomAndPan="magnify" viewBox="0 0 150 149.999998" height="200" preserveAspectRatio="xMidYMid meet" version="1.0"><defs><clipPath id="7922d6085a"><path d="M 11.800781 12.433594 L 138.550781 12.433594 L 138.550781 137.683594 L 11.800781 137.683594 Z M 11.800781 12.433594 " clip-rule="nonzero"/></clipPath></defs><g clip-path="url(#7922d6085a)"><path fill="#27ffbf" d="M 125.941406 104.992188 L 125.941406 128.101562 C 125.941406 133.304688 121.703125 137.542969 116.5 137.542969 L 113.136719 137.542969 C 112.3125 137.542969 111.644531 136.875 111.644531 136.050781 C 111.644531 135.226562 112.3125 134.558594 113.136719 134.558594 L 116.5 134.558594 C 120.058594 134.558594 122.957031 131.660156 122.957031 128.101562 L 122.957031 104.992188 C 122.957031 104.167969 123.625 103.5 124.449219 103.5 C 125.269531 103.5 125.941406 104.167969 125.941406 104.992188 Z M 36.1875 134.558594 L 32.976562 134.558594 C 29.417969 134.558594 26.519531 131.660156 26.519531 128.101562 L 26.519531 104.046875 C 26.519531 103.222656 25.851562 102.554688 25.027344 102.554688 C 24.203125 102.554688 23.535156 103.222656 23.535156 104.046875 L 23.535156 128.101562 C 23.535156 133.304688 27.769531 137.542969 32.976562 137.542969 L 36.1875 137.542969 C 37.011719 137.542969 37.679688 136.875 37.679688 136.050781 C 37.679688 135.226562 37.011719 134.558594 36.1875 134.558594 Z M 93.476562 33.917969 L 116.5 33.917969 C 120.058594 33.917969 122.957031 36.8125 122.957031 40.375 L 122.957031 59.070312 C 122.957031 59.894531 123.625 60.5625 124.449219 60.5625 C 125.269531 60.5625 125.941406 59.894531 125.941406 59.070312 L 125.941406 40.375 C 125.941406 35.167969 121.703125 30.933594 116.5 30.933594 L 93.476562 30.933594 C 92.652344 30.933594 91.984375 31.601562 91.984375 32.425781 C 91.984375 33.25 92.652344 33.917969 93.476562 33.917969 Z M 25.027344 59.050781 C 25.851562 59.050781 26.519531 58.382812 26.519531 57.558594 L 26.519531 40.375 C 26.519531 36.8125 29.414062 33.917969 32.976562 33.917969 L 56.4375 33.917969 C 57.261719 33.917969 57.929688 33.25 57.929688 32.425781 C 57.929688 31.601562 57.261719 30.933594 56.4375 30.933594 L 32.976562 30.933594 C 27.769531 30.933594 23.535156 35.167969 23.535156 40.375 L 23.535156 57.558594 C 23.535156 58.382812 24.203125 59.050781 25.027344 59.050781 Z M 39.261719 91.402344 L 39.261719 97.757812 C 39.261719 98.582031 38.59375 99.25 37.769531 99.25 L 13.316406 99.25 C 12.496094 99.25 11.824219 98.582031 11.824219 97.757812 L 11.824219 91.402344 C 11.824219 86.117188 15.148438 81.597656 19.808594 79.8125 C 17.996094 78.214844 16.847656 75.878906 16.847656 73.277344 C 16.847656 68.480469 20.75 64.578125 25.542969 64.578125 C 30.339844 64.578125 34.242188 68.480469 34.242188 73.277344 C 34.242188 75.878906 33.09375 78.214844 31.277344 79.8125 C 35.941406 81.597656 39.261719 86.117188 39.261719 91.402344 Z M 19.832031 73.277344 C 19.832031 76.425781 22.390625 78.988281 25.539062 78.992188 L 25.550781 78.992188 C 28.699219 78.988281 31.257812 76.425781 31.257812 73.277344 C 31.257812 70.128906 28.695312 67.5625 25.542969 67.5625 C 22.394531 67.5625 19.832031 70.128906 19.832031 73.277344 Z M 36.277344 91.402344 C 36.277344 86.203125 32.050781 81.976562 26.855469 81.976562 L 25.550781 81.976562 C 25.546875 81.976562 25.546875 81.976562 25.542969 81.976562 C 25.542969 81.976562 25.542969 81.976562 25.539062 81.976562 L 24.234375 81.976562 C 19.039062 81.976562 14.8125 86.203125 14.8125 91.402344 L 14.8125 96.265625 L 17.785156 96.265625 L 17.785156 89.746094 C 17.785156 88.921875 18.453125 88.253906 19.277344 88.253906 C 20.101562 88.253906 20.769531 88.921875 20.769531 89.746094 L 20.769531 96.265625 L 30.320312 96.265625 L 30.320312 89.746094 C 30.320312 88.921875 30.988281 88.253906 31.8125 88.253906 C 32.636719 88.253906 33.304688 88.921875 33.304688 89.746094 L 33.304688 96.265625 L 36.28125 96.265625 L 36.28125 91.402344 Z M 138.164062 91.402344 L 138.164062 97.757812 C 138.164062 98.582031 137.496094 99.25 136.671875 99.25 L 112.222656 99.25 C 111.398438 99.25 110.730469 98.582031 110.730469 97.757812 L 110.730469 91.402344 C 110.730469 86.117188 114.050781 81.597656 118.714844 79.8125 C 116.898438 78.214844 115.75 75.878906 115.75 73.277344 C 115.75 68.480469 119.652344 64.578125 124.449219 64.578125 C 129.242188 64.578125 133.144531 68.480469 133.144531 73.277344 C 133.144531 75.878906 131.996094 78.214844 130.179688 79.8125 C 134.84375 81.597656 138.164062 86.117188 138.164062 91.402344 Z M 118.734375 73.277344 C 118.734375 76.425781 121.292969 78.988281 124.441406 78.992188 L 124.453125 78.992188 C 127.601562 78.988281 130.160156 76.425781 130.160156 73.277344 C 130.160156 70.128906 127.597656 67.5625 124.445312 67.5625 C 121.296875 67.5625 118.734375 70.128906 118.734375 73.277344 Z M 135.179688 91.402344 C 135.179688 86.203125 130.953125 81.976562 125.757812 81.976562 L 124.453125 81.976562 C 124.449219 81.976562 124.449219 81.976562 124.449219 81.976562 C 124.445312 81.976562 124.445312 81.976562 124.441406 81.976562 L 123.140625 81.976562 C 117.941406 81.976562 113.714844 86.203125 113.714844 91.402344 L 113.714844 96.265625 L 116.6875 96.265625 L 116.6875 89.746094 C 116.6875 88.921875 117.355469 88.253906 118.179688 88.253906 C 119.003906 88.253906 119.671875 88.921875 119.671875 89.746094 L 119.671875 96.265625 L 129.222656 96.265625 L 129.222656 89.746094 C 129.222656 88.921875 129.890625 88.253906 130.714844 88.253906 C 131.539062 88.253906 132.207031 88.921875 132.207031 89.746094 L 132.207031 96.265625 L 135.183594 96.265625 L 135.183594 91.402344 Z M 61.019531 45.601562 L 61.019531 39.246094 C 61.019531 33.960938 64.339844 29.441406 69.003906 27.65625 C 67.1875 26.058594 66.039062 23.722656 66.039062 21.121094 C 66.039062 16.324219 69.941406 12.421875 74.738281 12.421875 C 79.535156 12.421875 83.4375 16.324219 83.4375 21.121094 C 83.4375 23.722656 82.289062 26.058594 80.472656 27.65625 C 85.136719 29.441406 88.457031 33.960938 88.457031 39.246094 L 88.457031 45.601562 C 88.457031 46.425781 87.789062 47.09375 86.964844 47.09375 L 62.511719 47.09375 C 61.6875 47.09375 61.019531 46.425781 61.019531 45.601562 Z M 69.023438 21.121094 C 69.023438 24.273438 71.585938 26.835938 74.738281 26.835938 C 77.886719 26.835938 80.453125 24.273438 80.453125 21.121094 C 80.453125 17.972656 77.886719 15.40625 74.738281 15.40625 C 71.585938 15.40625 69.023438 17.972656 69.023438 21.121094 Z M 64.003906 44.109375 L 66.976562 44.109375 L 66.976562 37.589844 C 66.976562 36.765625 67.644531 36.097656 68.46875 36.097656 C 69.292969 36.097656 69.960938 36.765625 69.960938 37.589844 L 69.960938 44.109375 L 79.511719 44.109375 L 79.511719 37.589844 C 79.511719 36.765625 80.179688 36.097656 81.003906 36.097656 C 81.828125 36.097656 82.496094 36.765625 82.496094 37.589844 L 82.496094 44.109375 L 85.472656 44.109375 L 85.472656 39.246094 C 85.472656 34.050781 81.242188 29.820312 76.046875 29.820312 L 73.429688 29.820312 C 68.230469 29.820312 64.003906 34.050781 64.003906 39.246094 Z M 53.464844 75.050781 C 52.640625 75.050781 51.972656 75.71875 51.972656 76.542969 L 51.972656 123.339844 C 51.972656 124.164062 52.640625 124.832031 53.464844 124.832031 C 54.289062 124.832031 54.957031 124.164062 54.957031 123.339844 L 54.957031 76.542969 C 54.957031 75.71875 54.289062 75.050781 53.464844 75.050781 Z M 62.40625 93.09375 C 63.230469 93.09375 63.898438 92.425781 63.898438 91.601562 L 63.898438 79.53125 C 63.898438 78.707031 63.230469 78.039062 62.40625 78.039062 C 61.582031 78.039062 60.914062 78.707031 60.914062 79.53125 L 60.914062 91.601562 C 60.914062 92.425781 61.582031 93.09375 62.40625 93.09375 Z M 69.550781 90.476562 C 70.375 90.476562 71.042969 89.808594 71.042969 88.984375 L 71.042969 82.523438 C 71.042969 81.699219 70.375 81.03125 69.550781 81.03125 C 68.726562 81.03125 68.058594 81.699219 68.058594 82.523438 L 68.058594 88.984375 C 68.058594 89.808594 68.726562 90.476562 69.550781 90.476562 Z M 89.921875 125.5625 C 90.746094 125.5625 91.414062 124.894531 91.414062 124.070312 L 91.414062 97.480469 C 91.414062 96.660156 90.746094 95.988281 89.921875 95.988281 C 89.097656 95.988281 88.429688 96.660156 88.429688 97.480469 L 88.429688 124.070312 C 88.429688 124.894531 89.097656 125.5625 89.921875 125.5625 Z M 96.488281 125.5625 C 97.3125 125.5625 97.980469 124.894531 97.980469 124.070312 L 97.980469 94.960938 C 97.980469 94.140625 97.3125 93.46875 96.488281 93.46875 C 95.664062 93.46875 94.996094 94.140625 94.996094 94.960938 L 94.996094 124.070312 C 94.996094 124.894531 95.664062 125.5625 96.488281 125.5625 Z M 71.347656 63.085938 C 70.523438 63.085938 69.855469 63.753906 69.855469 64.578125 L 69.855469 69.652344 C 69.855469 70.476562 70.523438 71.144531 71.347656 71.144531 C 72.171875 71.144531 72.839844 70.476562 72.839844 69.652344 L 72.839844 64.578125 C 72.839844 63.753906 72.171875 63.085938 71.347656 63.085938 Z M 78.746094 71.40625 L 78.746094 61.691406 C 78.746094 60.867188 78.078125 60.199219 77.253906 60.199219 C 76.429688 60.199219 75.761719 60.867188 75.761719 61.691406 L 75.761719 71.40625 C 75.761719 72.230469 76.429688 72.898438 77.253906 72.898438 C 78.078125 72.898438 78.746094 72.230469 78.746094 71.40625 Z M 89.066406 85.675781 C 89.890625 85.675781 90.558594 85.007812 90.558594 84.183594 L 90.558594 58.464844 C 90.558594 57.640625 89.890625 56.972656 89.066406 56.972656 C 88.242188 56.972656 87.574219 57.640625 87.574219 58.464844 L 87.574219 84.183594 C 87.574219 85.007812 88.242188 85.675781 89.066406 85.675781 Z M 83.160156 87.824219 C 83.984375 87.824219 84.652344 87.15625 84.652344 86.332031 L 84.652344 60.898438 C 84.652344 60.074219 83.984375 59.40625 83.160156 59.40625 C 82.335938 59.40625 81.667969 60.074219 81.667969 60.898438 L 81.667969 86.332031 C 81.667969 87.15625 82.335938 87.824219 83.160156 87.824219 Z M 109.050781 129.902344 L 109.050781 136.050781 C 109.050781 136.875 108.382812 137.542969 107.558594 137.542969 L 41.917969 137.542969 C 41.09375 137.542969 40.425781 136.875 40.425781 136.050781 L 40.425781 129.902344 C 40.425781 129.078125 41.09375 128.410156 41.917969 128.410156 L 45.472656 128.410156 C 45.476562 119.886719 45.488281 87.160156 45.507812 67.613281 C 45.507812 67.140625 45.734375 66.695312 46.113281 66.414062 C 46.496094 66.132812 46.988281 66.050781 47.441406 66.191406 L 64.332031 71.425781 L 64.339844 60.5 C 64.339844 59.886719 64.71875 59.332031 65.289062 59.109375 L 94.144531 47.871094 C 94.605469 47.691406 95.121094 47.75 95.53125 48.027344 C 95.9375 48.308594 96.179688 48.769531 96.179688 49.261719 L 96.179688 86.773438 L 102.082031 85.210938 C 102.527344 85.09375 103.003906 85.1875 103.371094 85.46875 C 103.738281 85.753906 103.953125 86.1875 103.953125 86.652344 C 103.976562 101.347656 103.996094 122.042969 104 128.410156 L 107.558594 128.410156 C 108.378906 128.410156 109.050781 129.078125 109.050781 129.902344 Z M 100.972656 88.589844 L 63.941406 98.402344 L 63.941406 128.410156 L 101.015625 128.410156 C 101.011719 122.320312 100.996094 103.113281 100.972656 88.589844 Z M 67.316406 72.347656 L 76.296875 75.128906 C 76.921875 75.324219 77.347656 75.902344 77.347656 76.554688 L 77.347656 91.765625 L 93.195312 87.566406 L 93.195312 51.441406 L 67.324219 61.519531 Z M 48.457031 128.410156 L 60.957031 128.410156 L 60.957031 97.253906 C 60.957031 96.578125 61.410156 95.984375 62.066406 95.8125 L 74.363281 92.554688 L 74.363281 77.65625 L 65.386719 74.875 C 65.382812 74.875 65.378906 74.871094 65.375 74.871094 L 48.488281 69.640625 C 48.472656 89.914062 48.460938 120.5625 48.457031 128.410156 Z M 106.066406 131.394531 L 43.410156 131.394531 L 43.410156 134.558594 L 106.066406 134.558594 Z M 83.359375 125.5625 C 84.179688 125.5625 84.851562 124.894531 84.851562 124.070312 L 84.851562 98.695312 C 84.851562 97.871094 84.179688 97.203125 83.359375 97.203125 C 82.535156 97.203125 81.867188 97.871094 81.867188 98.695312 L 81.867188 124.070312 C 81.867188 124.894531 82.535156 125.5625 83.359375 125.5625 Z M 76.792969 125.5625 C 77.617188 125.5625 78.285156 124.894531 78.285156 124.070312 L 78.285156 99.945312 C 78.285156 99.121094 77.617188 98.453125 76.792969 98.453125 C 75.96875 98.453125 75.300781 99.121094 75.300781 99.945312 L 75.300781 124.070312 C 75.300781 124.894531 75.96875 125.5625 76.792969 125.5625 Z M 70.226562 125.5625 C 71.050781 125.5625 71.71875 124.894531 71.71875 124.070312 L 71.71875 101.652344 C 71.71875 100.828125 71.050781 100.160156 70.226562 100.160156 C 69.402344 100.160156 68.734375 100.828125 68.734375 101.652344 L 68.734375 124.070312 C 68.734375 124.894531 69.402344 125.5625 70.226562 125.5625 Z M 70.226562 125.5625 " fill-opacity="1" fill-rule="nonzero"/></g></svg>