<svg xmlns="http://www.w3.org/2000/svg" xmlns:xlink="http://www.w3.org/1999/xlink" width="200" zoomAndPan="magnify" viewBox="0 0 150 149.999998" height="200" preserveAspectRatio="xMidYMid meet" version="1.0"><defs><clipPath id="88ffae8052"><path d="M 43 16.796875 L 80 16.796875 L 80 53 L 43 53 Z M 43 16.796875 " clip-rule="nonzero"/></clipPath><clipPath id="1daff4e646"><path d="M 9.878906 73 L 43 73 L 43 108 L 9.878906 108 Z M 9.878906 73 " clip-rule="nonzero"/></clipPath><clipPath id="aea74075a3"><path d="M 44 116 L 80 116 L 80 133.046875 L 44 133.046875 Z M 44 116 " clip-rule="nonzero"/></clipPath><clipPath id="a7046fbb26"><path d="M 125 74 L 140.378906 74 L 140.378906 90 L 125 90 Z M 125 74 " clip-rule="nonzero"/></clipPath></defs><g clip-path="url(#88ffae8052)"><path fill="#27ffbf" d="M 79.019531 26.664062 C 79.488281 27.523438 79.171875 28.59375 78.316406 29.058594 C 77.457031 29.527344 76.386719 29.210938 75.917969 28.355469 C 74.355469 25.488281 71.96875 23.277344 69.167969 21.914062 C 66.363281 20.554688 63.144531 20.042969 59.921875 20.585938 C 56.707031 21.125 53.832031 22.660156 51.628906 24.863281 C 49.425781 27.070312 47.890625 29.941406 47.347656 33.15625 C 46.808594 36.378906 47.316406 39.597656 48.679688 42.402344 C 50.042969 45.203125 52.253906 47.59375 55.117188 49.15625 C 55.976562 49.621094 56.292969 50.695312 55.824219 51.550781 C 55.359375 52.40625 54.285156 52.722656 53.429688 52.257812 C 49.898438 50.328125 47.171875 47.390625 45.496094 43.941406 C 43.820312 40.496094 43.195312 36.539062 43.859375 32.574219 C 44.527344 28.605469 46.414062 25.066406 49.125 22.359375 C 51.832031 19.648438 55.371094 17.761719 59.339844 17.097656 C 63.300781 16.429688 67.257812 17.058594 70.703125 18.730469 C 74.152344 20.40625 77.09375 23.132812 79.019531 26.664062 Z M 79.019531 26.664062 " fill-opacity="1" fill-rule="nonzero"/></g><path fill="#27ffbf" d="M 47.21875 62.484375 C 47.359375 63.449219 46.691406 64.347656 45.722656 64.488281 C 44.753906 64.632812 43.855469 63.960938 43.714844 62.996094 C 43.171875 59.285156 41.222656 56.117188 38.476562 53.96875 C 35.726562 51.820312 32.179688 50.6875 28.445312 51.050781 C 24.71875 51.417969 21.460938 53.214844 19.183594 55.859375 C 16.902344 58.496094 15.601562 61.984375 15.789062 65.730469 C 15.972656 69.472656 17.609375 72.8125 20.140625 75.214844 C 22.667969 77.621094 26.089844 79.089844 29.835938 79.085938 C 30.8125 79.085938 31.601562 79.875 31.601562 80.847656 C 31.601562 81.824219 30.8125 82.613281 29.835938 82.613281 C 25.144531 82.621094 20.867188 80.785156 17.703125 77.777344 C 14.539062 74.769531 12.488281 70.585938 12.257812 65.898438 C 12.027344 61.214844 13.65625 56.851562 16.511719 53.546875 C 19.363281 50.242188 23.441406 47.992188 28.113281 47.535156 C 32.777344 47.082031 37.210938 48.496094 40.648438 51.1875 C 44.09375 53.878906 46.539062 57.84375 47.21875 62.484375 Z M 47.21875 62.484375 " fill-opacity="1" fill-rule="nonzero"/><g clip-path="url(#1daff4e646)"><path fill="#27ffbf" d="M 14.585938 74.257812 C 15.214844 73.507812 16.328125 73.40625 17.078125 74.035156 C 17.828125 74.660156 17.925781 75.777344 17.300781 76.527344 C 14.59375 79.765625 13.304688 83.757812 13.417969 87.710938 C 13.527344 91.664062 15.035156 95.582031 17.914062 98.660156 C 20.796875 101.742188 24.601562 103.507812 28.539062 103.882812 C 32.480469 104.257812 36.550781 103.242188 39.960938 100.757812 C 40.75 100.1875 41.855469 100.359375 42.425781 101.148438 C 43 101.933594 42.828125 103.039062 42.039062 103.609375 C 37.90625 106.621094 32.976562 107.851562 28.207031 107.398438 C 23.441406 106.945312 18.832031 104.804688 15.339844 101.070312 C 11.847656 97.335938 10.019531 92.59375 9.886719 87.804688 C 9.753906 83.015625 11.308594 78.175781 14.585938 74.257812 Z M 14.585938 74.257812 " fill-opacity="1" fill-rule="nonzero"/></g><path fill="#27ffbf" d="M 22.925781 105.339844 C 22.675781 104.398438 23.238281 103.429688 24.183594 103.179688 C 25.128906 102.933594 26.09375 103.496094 26.34375 104.441406 C 27.101562 107.320312 28.613281 109.875 30.65625 111.894531 C 32.699219 113.910156 35.273438 115.390625 38.164062 116.117188 C 41.050781 116.839844 44.023438 116.75 46.777344 115.9375 C 49.53125 115.121094 52.070312 113.582031 54.097656 111.402344 C 54.761719 110.6875 55.878906 110.644531 56.59375 111.3125 C 57.308594 111.976562 57.351562 113.09375 56.683594 113.808594 C 54.21875 116.460938 51.128906 118.335938 47.773438 119.328125 C 44.425781 120.320312 40.8125 120.429688 37.304688 119.550781 C 33.796875 118.667969 30.664062 116.867188 28.175781 114.414062 C 25.6875 111.953125 23.847656 108.839844 22.925781 105.339844 Z M 22.925781 105.339844 " fill-opacity="1" fill-rule="nonzero"/><path fill="#27ffbf" d="M 26.492188 49.476562 C 26.796875 50.40625 26.292969 51.40625 25.363281 51.714844 C 24.433594 52.019531 23.433594 51.515625 23.125 50.585938 C 21.96875 47.085938 21.851562 43.402344 22.683594 39.9375 C 23.511719 36.476562 25.289062 33.242188 27.910156 30.648438 C 30.539062 28.046875 33.792969 26.300781 37.257812 25.507812 C 40.726562 24.714844 44.414062 24.871094 47.90625 26.070312 C 48.832031 26.386719 49.324219 27.394531 49.007812 28.320312 C 48.691406 29.242188 47.683594 29.738281 46.757812 29.417969 C 43.894531 28.4375 40.878906 28.308594 38.046875 28.957031 C 35.207031 29.605469 32.550781 31.03125 30.402344 33.15625 C 28.25 35.285156 26.792969 37.929688 26.117188 40.753906 C 25.4375 43.578125 25.535156 46.597656 26.492188 49.476562 Z M 26.492188 49.476562 " fill-opacity="1" fill-rule="nonzero"/><path fill="#27ffbf" d="M 36.257812 67.621094 C 37.140625 67.210938 38.191406 67.589844 38.605469 68.472656 C 39.019531 69.355469 38.636719 70.40625 37.753906 70.820312 C 35.542969 71.851562 33.824219 73.574219 32.769531 75.640625 C 31.714844 77.703125 31.332031 80.109375 31.792969 82.507812 C 32.257812 84.910156 33.503906 87 35.246094 88.519531 C 36.988281 90.042969 39.226562 91 41.667969 91.136719 C 42.644531 91.191406 43.390625 92.023438 43.335938 93 C 43.285156 93.972656 42.449219 94.71875 41.472656 94.667969 C 38.226562 94.484375 35.246094 93.210938 32.921875 91.179688 C 30.597656 89.148438 28.933594 86.367188 28.320312 83.171875 C 27.703125 79.976562 28.210938 76.777344 29.613281 74.03125 C 31.011719 71.289062 33.304688 69 36.257812 67.621094 Z M 36.257812 67.621094 " fill-opacity="1" fill-rule="nonzero"/><g clip-path="url(#aea74075a3)"><path fill="#27ffbf" d="M 44.378906 118.347656 C 44.152344 117.394531 44.742188 116.441406 45.691406 116.214844 C 46.644531 115.988281 47.597656 116.578125 47.824219 117.527344 C 48.542969 120.542969 50.109375 123.203125 52.25 125.253906 C 54.402344 127.308594 57.132812 128.757812 60.175781 129.339844 C 63.21875 129.925781 66.292969 129.589844 69.050781 128.476562 C 71.800781 127.363281 74.242188 125.46875 76.023438 122.933594 C 76.585938 122.136719 77.6875 121.945312 78.488281 122.507812 C 79.285156 123.066406 79.480469 124.171875 78.917969 124.96875 C 76.734375 128.070312 73.742188 130.390625 70.363281 131.757812 C 66.992188 133.121094 63.230469 133.53125 59.511719 132.816406 C 55.785156 132.101562 52.445312 130.332031 49.816406 127.816406 C 47.179688 125.292969 45.257812 122.03125 44.378906 118.34375 Z M 44.378906 118.347656 " fill-opacity="1" fill-rule="nonzero"/></g><path fill="#27ffbf" d="M 75.699219 27.511719 C 75.699219 26.53125 76.492188 25.738281 77.46875 25.738281 C 78.449219 25.738281 79.242188 26.53125 79.242188 27.511719 L 79.242188 123.953125 C 79.242188 124.929688 78.449219 125.726562 77.46875 125.726562 C 76.492188 125.726562 75.699219 124.929688 75.699219 123.953125 Z M 75.699219 27.511719 " fill-opacity="1" fill-rule="nonzero"/><path fill="#27ffbf" d="M 77.46875 60.898438 C 76.492188 60.898438 75.699219 60.101562 75.699219 59.125 C 75.699219 58.144531 76.492188 57.351562 77.46875 57.351562 L 95.386719 57.351562 L 108.34375 44.398438 C 108.6875 44.050781 109.144531 43.878906 109.597656 43.878906 L 118.777344 43.878906 C 119.757812 43.878906 120.550781 44.671875 120.550781 45.648438 C 120.550781 46.628906 119.757812 47.421875 118.777344 47.421875 L 110.328125 47.421875 L 97.386719 60.363281 C 97.066406 60.691406 96.617188 60.898438 96.121094 60.898438 Z M 77.46875 60.898438 " fill-opacity="1" fill-rule="nonzero"/><path fill="#27ffbf" d="M 77.46875 70.082031 C 76.492188 70.082031 75.699219 69.289062 75.699219 68.3125 C 75.699219 67.332031 76.492188 66.539062 77.46875 66.539062 L 115.4375 66.539062 C 116.417969 66.539062 117.210938 67.332031 117.210938 68.3125 C 117.210938 69.289062 116.417969 70.082031 115.4375 70.082031 Z M 77.46875 70.082031 " fill-opacity="1" fill-rule="nonzero"/><path fill="#27ffbf" d="M 84.992188 69.199219 C 84.503906 68.351562 84.792969 67.269531 85.636719 66.78125 C 86.480469 66.292969 87.5625 66.582031 88.054688 67.425781 L 95.394531 80.140625 L 127.089844 80.140625 C 128.070312 80.140625 128.863281 80.9375 128.863281 81.914062 C 128.863281 82.894531 128.070312 83.6875 127.089844 83.6875 L 94.375 83.6875 L 94.375 83.683594 C 93.765625 83.683594 93.175781 83.367188 92.847656 82.800781 Z M 84.992188 69.199219 " fill-opacity="1" fill-rule="nonzero"/><g clip-path="url(#a7046fbb26)"><path fill="#27ffbf" d="M 132.71875 74.511719 C 134.761719 74.511719 136.613281 75.34375 137.953125 76.679688 C 139.292969 78.019531 140.121094 79.871094 140.121094 81.914062 C 140.121094 83.957031 139.292969 85.808594 137.953125 87.148438 C 136.613281 88.488281 134.761719 89.316406 132.71875 89.316406 C 130.675781 89.316406 128.828125 88.488281 127.488281 87.148438 C 126.148438 85.808594 125.320312 83.957031 125.320312 81.914062 C 125.320312 79.871094 126.148438 78.019531 127.488281 76.679688 C 128.828125 75.34375 130.675781 74.511719 132.71875 74.511719 Z M 135.449219 79.1875 C 134.75 78.488281 133.785156 78.058594 132.71875 78.058594 C 131.65625 78.058594 130.691406 78.488281 129.992188 79.1875 C 129.296875 79.886719 128.863281 80.847656 128.863281 81.914062 C 128.863281 82.980469 129.296875 83.945312 129.992188 84.640625 C 130.691406 85.339844 131.65625 85.769531 132.71875 85.769531 C 133.785156 85.769531 134.75 85.339844 135.449219 84.640625 C 136.144531 83.945312 136.578125 82.980469 136.578125 81.914062 C 136.578125 80.847656 136.144531 79.886719 135.449219 79.1875 Z M 135.449219 79.1875 " fill-opacity="1" fill-rule="nonzero"/></g><path fill="#27ffbf" d="M 121.066406 60.910156 C 123.109375 60.910156 124.960938 61.738281 126.300781 63.078125 C 127.640625 64.417969 128.46875 66.269531 128.46875 68.3125 C 128.46875 70.355469 127.640625 72.203125 126.300781 73.542969 C 124.960938 74.882812 123.109375 75.710938 121.066406 75.710938 C 119.023438 75.710938 117.175781 74.882812 115.835938 73.542969 C 114.496094 72.203125 113.667969 70.355469 113.667969 68.3125 C 113.667969 66.269531 114.496094 64.417969 115.835938 63.078125 C 117.171875 61.738281 119.023438 60.910156 121.066406 60.910156 Z M 123.792969 65.582031 C 123.097656 64.886719 122.132812 64.453125 121.066406 64.453125 C 120.003906 64.453125 119.039062 64.886719 118.339844 65.582031 C 117.640625 66.28125 117.210938 67.246094 117.210938 68.3125 C 117.210938 69.375 117.644531 70.339844 118.339844 71.039062 C 119.039062 71.738281 120.003906 72.167969 121.066406 72.167969 C 122.132812 72.167969 123.097656 71.734375 123.792969 71.039062 C 124.492188 70.339844 124.925781 69.375 124.925781 68.3125 C 124.925781 67.246094 124.492188 66.28125 123.792969 65.582031 Z M 123.792969 65.582031 " fill-opacity="1" fill-rule="nonzero"/><path fill="#27ffbf" d="M 124.40625 38.25 C 126.449219 38.25 128.300781 39.078125 129.640625 40.417969 C 130.980469 41.753906 131.808594 43.605469 131.808594 45.648438 C 131.808594 47.691406 130.980469 49.542969 129.640625 50.882812 C 128.300781 52.222656 126.449219 53.050781 124.40625 53.050781 C 122.363281 53.050781 120.515625 52.222656 119.175781 50.882812 C 117.835938 49.542969 117.007812 47.691406 117.007812 45.648438 C 117.007812 43.605469 117.835938 41.757812 119.175781 40.417969 C 120.515625 39.078125 122.363281 38.25 124.40625 38.25 Z M 127.136719 42.921875 C 126.4375 42.226562 125.472656 41.792969 124.40625 41.792969 C 123.34375 41.792969 122.378906 42.222656 121.679688 42.921875 C 120.984375 43.621094 120.550781 44.585938 120.550781 45.648438 C 120.550781 46.714844 120.984375 47.679688 121.679688 48.375 C 122.378906 49.074219 123.34375 49.507812 124.40625 49.507812 C 125.472656 49.507812 126.4375 49.074219 127.136719 48.375 C 127.832031 47.679688 128.265625 46.714844 128.265625 45.648438 C 128.265625 44.585938 127.832031 43.621094 127.136719 42.921875 Z M 127.136719 42.921875 " fill-opacity="1" fill-rule="nonzero"/><path fill="#27ffbf" d="M 77.46875 116.746094 C 76.492188 116.746094 75.699219 115.953125 75.699219 114.972656 C 75.699219 113.996094 76.492188 113.199219 77.46875 113.199219 L 95.386719 113.199219 L 108.34375 100.246094 C 108.6875 99.898438 109.144531 99.726562 109.597656 99.726562 L 118.777344 99.726562 C 119.757812 99.726562 120.550781 100.519531 120.550781 101.5 C 120.550781 102.476562 119.757812 103.269531 118.777344 103.269531 L 110.328125 103.269531 L 97.386719 116.214844 C 97.066406 116.542969 96.617188 116.746094 96.121094 116.746094 Z M 77.46875 116.746094 " fill-opacity="1" fill-rule="nonzero"/><path fill="#27ffbf" d="M 124.40625 94.097656 C 126.449219 94.097656 128.300781 94.925781 129.640625 96.265625 C 130.980469 97.605469 131.808594 99.453125 131.808594 101.5 C 131.808594 103.542969 130.980469 105.390625 129.640625 106.730469 C 128.300781 108.070312 126.449219 108.898438 124.40625 108.898438 C 122.363281 108.898438 120.515625 108.070312 119.175781 106.730469 C 117.835938 105.390625 117.007812 103.542969 117.007812 101.5 C 117.007812 99.453125 117.835938 97.605469 119.175781 96.265625 C 120.515625 94.925781 122.363281 94.097656 124.40625 94.097656 Z M 127.136719 98.769531 C 126.4375 98.074219 125.472656 97.640625 124.40625 97.640625 C 123.34375 97.640625 122.378906 98.074219 121.679688 98.769531 C 120.984375 99.46875 120.550781 100.433594 120.550781 101.5 C 120.550781 102.5625 120.984375 103.527344 121.679688 104.226562 C 122.378906 104.921875 123.34375 105.355469 124.40625 105.355469 C 125.472656 105.355469 126.4375 104.921875 127.136719 104.226562 C 127.832031 103.527344 128.265625 102.5625 128.265625 101.5 C 128.265625 100.433594 127.832031 99.46875 127.136719 98.769531 Z M 127.136719 98.769531 " fill-opacity="1" fill-rule="nonzero"/><path fill="#27ffbf" d="M 77.46875 38.648438 C 76.492188 38.648438 75.699219 37.855469 75.699219 36.875 C 75.699219 35.898438 76.492188 35.105469 77.46875 35.105469 L 92.019531 35.105469 C 92.996094 35.105469 93.792969 35.898438 93.792969 36.875 C 93.792969 37.855469 92.996094 38.648438 92.019531 38.648438 Z M 77.46875 38.648438 " fill-opacity="1" fill-rule="nonzero"/><path fill="#27ffbf" d="M 97.648438 40.734375 C 98.710938 40.734375 99.675781 40.300781 100.375 39.605469 C 101.074219 38.90625 101.503906 37.941406 101.503906 36.875 C 101.503906 35.8125 101.074219 34.847656 100.375 34.148438 C 99.675781 33.453125 98.710938 33.019531 97.648438 33.019531 C 96.582031 33.019531 95.617188 33.453125 94.921875 34.148438 C 94.222656 34.847656 93.789062 35.8125 93.789062 36.875 C 93.789062 37.941406 94.222656 38.90625 94.921875 39.605469 C 95.617188 40.300781 96.582031 40.734375 97.648438 40.734375 Z M 102.878906 42.109375 C 101.542969 43.449219 99.691406 44.277344 97.648438 44.277344 C 95.605469 44.277344 93.753906 43.449219 92.414062 42.109375 C 91.074219 40.769531 90.246094 38.917969 90.246094 36.875 C 90.246094 34.832031 91.074219 32.984375 92.414062 31.644531 C 93.753906 30.304688 95.605469 29.476562 97.648438 29.476562 C 99.691406 29.476562 101.542969 30.304688 102.878906 31.644531 C 104.21875 32.984375 105.046875 34.832031 105.046875 36.875 C 105.046875 38.917969 104.21875 40.769531 102.878906 42.109375 Z M 102.878906 42.109375 " fill-opacity="1" fill-rule="nonzero"/><path fill="#27ffbf" d="M 77.46875 97.710938 C 76.492188 97.710938 75.699219 96.917969 75.699219 95.941406 C 75.699219 94.960938 76.492188 94.167969 77.46875 94.167969 L 92.019531 94.167969 C 92.996094 94.167969 93.792969 94.960938 93.792969 95.941406 C 93.792969 96.917969 92.996094 97.710938 92.019531 97.710938 Z M 77.46875 97.710938 " fill-opacity="1" fill-rule="nonzero"/><path fill="#27ffbf" d="M 97.648438 99.796875 C 98.710938 99.796875 99.675781 99.363281 100.375 98.667969 C 101.074219 97.96875 101.503906 97.003906 101.503906 95.941406 C 101.503906 94.875 101.074219 93.910156 100.375 93.210938 C 99.675781 92.515625 98.710938 92.082031 97.648438 92.082031 C 96.582031 92.082031 95.617188 92.515625 94.921875 93.210938 C 94.222656 93.910156 93.789062 94.875 93.789062 95.941406 C 93.789062 97.003906 94.222656 97.96875 94.921875 98.667969 C 95.617188 99.363281 96.582031 99.796875 97.648438 99.796875 Z M 102.878906 101.171875 C 101.542969 102.511719 99.691406 103.339844 97.648438 103.339844 C 95.605469 103.339844 93.753906 102.511719 92.414062 101.171875 C 91.074219 99.832031 90.246094 97.984375 90.246094 95.941406 C 90.246094 93.894531 91.074219 92.046875 92.414062 90.707031 C 93.753906 89.367188 95.605469 88.539062 97.648438 88.539062 C 99.691406 88.539062 101.542969 89.367188 102.878906 90.707031 C 104.21875 92.046875 105.046875 93.894531 105.046875 95.941406 C 105.046875 97.984375 104.21875 99.832031 102.878906 101.171875 Z M 102.878906 101.171875 " fill-opacity="1" fill-rule="nonzero"/></svg>