<svg xmlns="http://www.w3.org/2000/svg" xmlns:xlink="http://www.w3.org/1999/xlink" width="200" zoomAndPan="magnify" viewBox="0 0 150 149.999998" height="200" preserveAspectRatio="xMidYMid meet" version="1.0"><defs><clipPath id="d792a0a7ed"><path d="M 8.628906 78 L 81 78 L 81 90 L 8.628906 90 Z M 8.628906 78 " clip-rule="nonzero"/></clipPath><clipPath id="61d4756458"><path d="M 103 17.507812 L 114 17.507812 L 114 28 L 103 28 Z M 103 17.507812 " clip-rule="nonzero"/></clipPath><clipPath id="999407a384"><path d="M 112 100 L 141.378906 100 L 141.378906 132.257812 L 112 132.257812 Z M 112 100 " clip-rule="nonzero"/></clipPath></defs><path fill="#27ffbf" d="M 24.808594 81.726562 L 17.496094 81.726562 C 16.640625 81.726562 15.941406 81.027344 15.941406 80.171875 L 15.941406 58.390625 C 15.941406 57.535156 16.640625 56.835938 17.496094 56.835938 L 24.808594 56.835938 C 25.664062 56.835938 26.367188 57.535156 26.367188 58.390625 L 26.367188 80.171875 C 26.367188 81.027344 25.664062 81.726562 24.808594 81.726562 Z M 19.054688 78.617188 L 23.253906 78.617188 L 23.253906 59.945312 L 19.054688 59.945312 Z M 19.054688 78.617188 " fill-opacity="1" fill-rule="evenodd"/><path fill="#27ffbf" d="M 45.8125 81.726562 L 38.421875 81.726562 C 37.644531 81.726562 36.945312 81.027344 36.945312 80.171875 L 36.945312 44.15625 C 36.945312 43.300781 37.644531 42.601562 38.421875 42.601562 L 45.8125 42.601562 C 46.667969 42.601562 47.367188 43.300781 47.367188 44.15625 L 47.367188 80.171875 C 47.367188 81.027344 46.667969 81.726562 45.8125 81.726562 Z M 39.980469 78.617188 L 44.257812 78.617188 L 44.257812 45.710938 L 39.980469 45.710938 Z M 39.980469 78.617188 " fill-opacity="1" fill-rule="evenodd"/><g clip-path="url(#d792a0a7ed)"><path fill="#27ffbf" d="M 78.484375 89.039062 L 10.1875 89.039062 C 9.328125 89.039062 8.628906 88.339844 8.628906 87.484375 L 8.628906 80.171875 C 8.628906 79.316406 9.328125 78.617188 10.1875 78.617188 L 78.640625 78.617188 C 79.496094 78.617188 80.195312 79.316406 80.195312 80.171875 C 80.195312 81.027344 79.496094 81.726562 78.640625 81.726562 L 11.742188 81.726562 L 11.742188 86.007812 L 78.484375 86.007812 C 79.339844 86.007812 80.039062 86.628906 80.039062 87.484375 C 80.039062 88.339844 79.339844 89.039062 78.484375 89.039062 Z M 78.484375 89.039062 " fill-opacity="1" fill-rule="evenodd"/></g><path fill="#27ffbf" d="M 66.738281 81.726562 L 59.425781 81.726562 C 58.570312 81.726562 57.871094 81.027344 57.871094 80.171875 L 57.871094 55.511719 C 57.871094 54.65625 58.570312 53.957031 59.425781 53.957031 L 66.738281 53.957031 C 67.59375 53.957031 68.292969 54.65625 68.292969 55.511719 L 68.292969 80.171875 C 68.292969 81.027344 67.59375 81.726562 66.738281 81.726562 Z M 60.980469 78.617188 L 65.261719 78.617188 L 65.261719 57.070312 L 60.980469 57.070312 Z M 60.980469 78.617188 " fill-opacity="1" fill-rule="evenodd"/><path fill="#27ffbf" d="M 80.429688 76.28125 C 79.574219 76.28125 78.871094 75.582031 78.871094 74.726562 L 78.871094 48.433594 C 78.871094 47.578125 79.574219 46.878906 80.429688 46.878906 L 87.742188 46.878906 C 88.597656 46.878906 89.296875 47.578125 89.296875 48.433594 L 89.296875 66.246094 C 89.296875 67.101562 88.597656 67.804688 87.742188 67.804688 C 86.886719 67.804688 86.183594 67.101562 86.183594 66.246094 L 86.183594 49.988281 L 81.984375 49.988281 L 81.984375 74.726562 C 81.984375 75.582031 81.285156 76.28125 80.429688 76.28125 Z M 80.429688 76.28125 " fill-opacity="1" fill-rule="evenodd"/><path fill="#27ffbf" d="M 108.742188 65.78125 C 107.886719 65.78125 107.1875 65.082031 107.1875 64.226562 L 107.1875 40.8125 L 102.988281 40.8125 L 102.988281 62.515625 C 102.988281 63.371094 102.289062 64.070312 101.429688 64.070312 C 100.574219 64.070312 99.875 63.371094 99.875 62.515625 L 99.875 39.253906 C 99.875 38.398438 100.574219 37.777344 101.429688 37.777344 L 108.742188 37.777344 C 109.597656 37.777344 110.300781 38.398438 110.300781 39.253906 L 110.300781 64.226562 C 110.300781 65.082031 109.597656 65.78125 108.742188 65.78125 Z M 108.742188 65.78125 " fill-opacity="1" fill-rule="evenodd"/><path fill="#27ffbf" d="M 23.332031 43.144531 C 22.941406 43.144531 22.554688 42.988281 22.242188 42.753906 C 21.621094 42.132812 21.621094 41.121094 22.242188 40.5 L 35.46875 27.277344 C 36.089844 26.730469 37.023438 26.730469 37.644531 27.277344 C 38.265625 27.898438 38.265625 28.910156 37.644531 29.53125 L 24.421875 42.753906 C 24.109375 42.988281 23.722656 43.144531 23.332031 43.144531 Z M 63.9375 43.144531 C 63.472656 43.144531 63.003906 42.988281 62.691406 42.601562 C 62.148438 41.898438 62.304688 40.890625 63.003906 40.421875 L 79.960938 27.199219 C 80.660156 26.652344 81.59375 26.808594 82.140625 27.429688 C 82.683594 28.132812 82.527344 29.066406 81.90625 29.609375 L 64.871094 42.832031 C 64.558594 43.066406 64.25 43.144531 63.9375 43.144531 Z M 58.335938 43.066406 C 57.949219 43.066406 57.636719 42.988281 57.324219 42.753906 L 40.910156 29.296875 C 40.210938 28.753906 40.132812 27.820312 40.679688 27.121094 C 41.222656 26.496094 42.15625 26.421875 42.855469 26.964844 L 59.269531 40.34375 C 59.96875 40.890625 60.046875 41.898438 59.503906 42.523438 C 59.191406 42.910156 58.804688 43.066406 58.335938 43.066406 Z M 87.273438 27.277344 C 86.496094 27.277344 85.875 26.730469 85.796875 25.953125 C 85.640625 25.097656 86.261719 24.320312 87.039062 24.164062 L 105.011719 21.675781 C 105.789062 21.519531 106.644531 22.140625 106.722656 22.996094 C 106.875 23.851562 106.253906 24.632812 105.398438 24.707031 L 87.507812 27.277344 C 87.429688 27.277344 87.351562 27.277344 87.273438 27.277344 Z M 87.273438 27.277344 " fill-opacity="1" fill-rule="evenodd"/><path fill="#27ffbf" d="M 20.765625 49.289062 C 17.964844 49.289062 15.628906 46.957031 15.628906 44.15625 C 15.628906 41.355469 17.964844 39.023438 20.765625 39.023438 C 23.644531 39.023438 25.898438 41.355469 25.898438 44.15625 C 25.898438 46.957031 23.644531 49.289062 20.765625 49.289062 Z M 20.765625 42.132812 C 19.675781 42.132812 18.742188 43.066406 18.742188 44.15625 C 18.742188 45.246094 19.675781 46.179688 20.765625 46.179688 C 21.933594 46.179688 22.863281 45.246094 22.863281 44.15625 C 22.863281 43.066406 21.933594 42.132812 20.765625 42.132812 Z M 20.765625 42.132812 " fill-opacity="1" fill-rule="evenodd"/><path fill="#27ffbf" d="M 39.121094 31.007812 C 36.246094 31.007812 33.988281 28.675781 33.988281 25.875 C 33.988281 23.074219 36.246094 20.742188 39.121094 20.742188 C 41.921875 20.742188 44.257812 23.074219 44.257812 25.875 C 44.257812 28.675781 41.921875 31.007812 39.121094 31.007812 Z M 39.121094 23.851562 C 37.957031 23.851562 37.023438 24.707031 37.023438 25.875 C 37.023438 26.964844 37.957031 27.898438 39.121094 27.898438 C 40.210938 27.898438 41.144531 26.964844 41.144531 25.875 C 41.144531 24.707031 40.210938 23.851562 39.121094 23.851562 Z M 39.121094 23.851562 " fill-opacity="1" fill-rule="evenodd"/><path fill="#27ffbf" d="M 61.058594 48.980469 C 58.257812 48.980469 56.003906 46.644531 56.003906 43.84375 C 56.003906 40.964844 58.257812 38.710938 61.058594 38.710938 C 63.9375 38.710938 66.191406 40.964844 66.191406 43.84375 C 66.191406 46.644531 63.9375 48.980469 61.058594 48.980469 Z M 61.058594 41.820312 C 59.96875 41.820312 59.035156 42.679688 59.035156 43.84375 C 59.035156 44.933594 59.96875 45.867188 61.058594 45.867188 C 62.226562 45.867188 63.160156 44.933594 63.160156 43.84375 C 63.160156 42.679688 62.226562 41.820312 61.058594 41.820312 Z M 61.058594 41.820312 " fill-opacity="1" fill-rule="evenodd"/><path fill="#27ffbf" d="M 83.773438 31.320312 C 80.894531 31.320312 78.640625 29.066406 78.640625 26.1875 C 78.640625 23.386719 80.894531 21.050781 83.773438 21.050781 C 86.574219 21.050781 88.90625 23.386719 88.90625 26.1875 C 88.90625 29.066406 86.574219 31.320312 83.773438 31.320312 Z M 83.773438 24.164062 C 82.605469 24.164062 81.75 25.097656 81.75 26.1875 C 81.75 27.355469 82.605469 28.210938 83.773438 28.210938 C 84.863281 28.210938 85.796875 27.355469 85.796875 26.1875 C 85.796875 25.097656 84.863281 24.164062 83.773438 24.164062 Z M 83.773438 24.164062 " fill-opacity="1" fill-rule="evenodd"/><g clip-path="url(#61d4756458)"><path fill="#27ffbf" d="M 108.742188 27.820312 C 105.941406 27.820312 103.609375 25.488281 103.609375 22.6875 C 103.609375 19.886719 105.941406 17.550781 108.742188 17.550781 C 111.542969 17.550781 113.878906 19.886719 113.878906 22.6875 C 113.878906 25.488281 111.542969 27.820312 108.742188 27.820312 Z M 108.742188 20.664062 C 107.65625 20.664062 106.722656 21.597656 106.722656 22.6875 C 106.722656 23.773438 107.65625 24.707031 108.742188 24.707031 C 109.832031 24.707031 110.765625 23.773438 110.765625 22.6875 C 110.765625 21.597656 109.832031 20.664062 108.742188 20.664062 Z M 108.742188 20.664062 " fill-opacity="1" fill-rule="evenodd"/></g><path fill="#27ffbf" d="M 112.167969 110.433594 C 111.777344 110.433594 111.3125 110.199219 111 109.808594 L 107.964844 106.230469 C 105.476562 107.164062 102.832031 107.632812 100.109375 107.632812 C 93.109375 107.632812 86.652344 104.597656 82.140625 99.308594 C 73.894531 89.429688 75.214844 74.648438 85.019531 66.402344 C 89.21875 62.824219 94.585938 60.878906 100.03125 60.878906 C 106.953125 60.878906 113.488281 63.914062 117.921875 69.28125 C 124.300781 76.828125 125.234375 87.40625 120.335938 95.886719 L 123.367188 99.464844 C 123.914062 100.164062 123.835938 101.097656 123.132812 101.640625 L 113.175781 110.042969 C 112.867188 110.277344 112.554688 110.433594 112.167969 110.433594 Z M 108.433594 102.808594 C 108.898438 102.808594 109.367188 103.042969 109.675781 103.429688 L 112.398438 106.699219 L 120.023438 100.320312 L 117.222656 97.050781 C 116.832031 96.507812 116.753906 95.730469 117.144531 95.183594 C 121.96875 87.71875 121.34375 78.070312 115.589844 71.226562 C 111.699219 66.636719 106.097656 63.992188 100.03125 63.992188 C 95.285156 63.992188 90.695312 65.703125 87.039062 68.738281 C 78.484375 75.894531 77.394531 88.730469 84.550781 97.285156 C 88.441406 101.875 94.042969 104.519531 100.109375 104.519531 C 102.753906 104.519531 105.398438 103.976562 107.886719 102.964844 C 108.042969 102.886719 108.277344 102.808594 108.433594 102.808594 Z M 108.433594 102.808594 " fill-opacity="1" fill-rule="evenodd"/><path fill="#27ffbf" d="M 100.109375 102.496094 C 94.664062 102.496094 89.53125 100.164062 86.03125 96.039062 C 79.574219 88.261719 80.585938 76.75 88.285156 70.292969 C 91.628906 67.492188 95.753906 66.015625 100.03125 66.015625 C 105.476562 66.015625 110.609375 68.347656 114.035156 72.546875 C 120.566406 80.25 119.554688 91.761719 111.777344 98.296875 C 108.511719 101.019531 104.386719 102.496094 100.109375 102.496094 Z M 100.03125 69.046875 C 96.53125 69.046875 93.03125 70.371094 90.308594 72.625 C 83.929688 77.992188 83.074219 87.640625 88.441406 94.019531 C 91.320312 97.441406 95.597656 99.464844 100.109375 99.464844 C 103.609375 99.464844 107.109375 98.140625 109.832031 95.886719 C 116.210938 90.519531 117.066406 80.949219 111.699219 74.492188 C 108.820312 71.070312 104.542969 69.046875 100.03125 69.046875 Z M 100.03125 69.046875 " fill-opacity="1" fill-rule="evenodd"/><g clip-path="url(#999407a384)"><path fill="#27ffbf" d="M 135.734375 132.445312 C 134.101562 132.445312 132.46875 131.746094 131.300781 130.34375 L 112.789062 108.332031 C 112.242188 107.632812 112.320312 106.699219 113.023438 106.152344 C 113.644531 105.609375 114.65625 105.6875 115.199219 106.308594 L 133.714844 128.402344 C 134.648438 129.488281 136.28125 129.644531 137.371094 128.710938 C 137.914062 128.246094 138.226562 127.621094 138.304688 126.921875 C 138.304688 126.222656 138.148438 125.601562 137.679688 125.054688 L 119.167969 102.964844 C 118.621094 102.339844 118.699219 101.332031 119.402344 100.785156 C 120.023438 100.242188 121.035156 100.320312 121.578125 101.019531 L 140.09375 123.035156 C 141.027344 124.199219 141.492188 125.679688 141.335938 127.234375 C 141.257812 128.710938 140.480469 130.113281 139.390625 131.046875 C 138.304688 131.980469 136.980469 132.445312 135.734375 132.445312 Z M 135.734375 132.445312 " fill-opacity="1" fill-rule="evenodd"/></g></svg>