<svg xmlns="http://www.w3.org/2000/svg" xmlns:xlink="http://www.w3.org/1999/xlink" width="200" zoomAndPan="magnify" viewBox="0 0 150 149.999998" height="200" preserveAspectRatio="xMidYMid meet" version="1.0"><defs><clipPath id="65e13400bf"><path d="M 10.953125 10.953125 L 139.203125 10.953125 L 139.203125 139.203125 L 10.953125 139.203125 Z M 10.953125 10.953125 " clip-rule="nonzero"/></clipPath></defs><g clip-path="url(#65e13400bf)"><path fill="#27ffbf" d="M 39.855469 100.015625 C 43.058594 100.015625 44.492188 97.640625 44.492188 95.289062 C 44.492188 92.933594 43.058594 90.558594 39.855469 90.558594 C 37.246094 90.558594 35.125 92.683594 35.125 95.289062 C 35.125 97.894531 37.246094 100.015625 39.855469 100.015625 Z M 39.855469 59.4375 C 42.460938 59.4375 44.582031 57.3125 44.582031 54.707031 C 44.582031 52.097656 42.460938 49.980469 39.855469 49.980469 C 37.246094 49.980469 35.125 52.097656 35.125 54.707031 C 35.125 57.3125 37.246094 59.4375 39.855469 59.4375 Z M 48.085938 52.195312 L 68.710938 40.289062 C 69.859375 41.519531 71.363281 42.410156 73.054688 42.800781 L 73.054688 66.609375 C 68.230469 67.730469 65.300781 72.722656 66.765625 77.511719 L 46.210938 89.375 C 45.128906 88.15625 43.652344 87.246094 41.792969 86.867188 L 41.792969 63.089844 C 46.617188 61.976562 49.550781 56.976562 48.085938 52.195312 Z M 70.269531 34.414062 C 70.269531 37.023438 72.390625 39.144531 74.996094 39.144531 C 77.605469 39.144531 79.726562 37.023438 79.726562 34.414062 C 79.726562 31.808594 77.605469 29.691406 74.996094 29.691406 C 72.390625 29.691406 70.269531 31.808594 70.269531 34.414062 Z M 81.285156 40.289062 C 80.136719 41.519531 78.632812 42.410156 76.9375 42.800781 L 76.9375 66.609375 C 81.761719 67.730469 84.695312 72.722656 83.230469 77.511719 L 103.855469 89.414062 C 105.003906 88.1875 106.507812 87.292969 108.203125 86.902344 L 108.203125 63.089844 C 103.378906 61.976562 100.445312 56.976562 101.910156 52.195312 Z M 105.414062 54.707031 C 105.414062 52.097656 107.535156 49.980469 110.144531 49.980469 C 112.75 49.980469 114.867188 52.097656 114.867188 54.707031 C 114.867188 57.3125 112.746094 59.4375 110.144531 59.4375 C 107.535156 59.4375 105.414062 57.3125 105.414062 54.707031 Z M 110.144531 90.558594 C 107.535156 90.558594 105.414062 92.683594 105.414062 95.289062 C 105.414062 97.894531 107.535156 100.015625 110.144531 100.015625 C 112.75 100.015625 114.867188 97.894531 114.867188 95.289062 C 114.867188 92.683594 112.75 90.558594 110.144531 90.558594 Z M 70.269531 74.996094 C 70.269531 77.605469 72.390625 79.726562 74.996094 79.726562 C 77.605469 79.726562 79.726562 77.605469 79.726562 74.996094 C 79.726562 72.390625 77.605469 70.269531 74.996094 70.269531 C 72.390625 70.269531 70.269531 72.390625 70.269531 74.996094 Z M 101.910156 97.800781 C 101.40625 96.164062 101.410156 94.414062 101.910156 92.773438 L 81.285156 80.871094 C 77.867188 84.519531 72.125 84.519531 68.710938 80.871094 L 48.035156 92.800781 C 48.484375 94.4375 48.484375 96.15625 48.042969 97.773438 L 68.710938 109.707031 C 72.121094 106.058594 77.875 106.058594 81.285156 109.707031 Z M 79.726562 115.578125 C 79.726562 112.96875 77.605469 110.851562 74.996094 110.851562 C 72.390625 110.851562 70.269531 112.96875 70.269531 115.578125 C 70.269531 118.183594 72.390625 120.304688 74.996094 120.304688 C 77.605469 120.304688 79.726562 118.183594 79.726562 115.578125 Z M 39.855469 103.894531 C 35.105469 103.894531 31.246094 100.035156 31.246094 95.289062 C 31.246094 91.210938 34.097656 87.785156 37.914062 86.902344 L 37.914062 63.089844 C 34.097656 62.210938 31.246094 58.785156 31.246094 54.707031 C 31.246094 49.960938 35.105469 46.097656 39.855469 46.097656 C 42.332031 46.097656 44.570312 47.15625 46.140625 48.835938 L 66.765625 36.929688 C 65.082031 31.429688 69.203125 25.808594 74.996094 25.808594 C 80.792969 25.808594 84.914062 31.429688 83.230469 36.929688 L 103.855469 48.835938 C 105.425781 47.15625 107.660156 46.097656 110.144531 46.097656 C 114.886719 46.097656 118.75 49.960938 118.75 54.707031 C 118.75 58.785156 115.898438 62.210938 112.082031 63.089844 L 112.082031 86.902344 C 115.898438 87.785156 118.75 91.210938 118.75 95.289062 C 118.75 100.035156 114.886719 103.894531 110.144531 103.894531 C 107.660156 103.894531 105.425781 102.84375 103.855469 101.160156 L 83.230469 113.066406 C 84.914062 118.554688 80.796875 124.1875 74.996094 124.1875 C 69.199219 124.1875 65.082031 118.554688 66.765625 113.066406 L 46.207031 101.199219 C 45.097656 102.4375 43.109375 103.894531 39.855469 103.894531 Z M 128.851562 40.308594 C 135.535156 50.632812 139.042969 62.507812 139.042969 74.996094 C 139.042969 110.390625 110.390625 139.042969 74.996094 139.042969 C 60.46875 139.042969 46.773438 134.296875 35.386719 125.328125 C 34.546875 124.664062 34.402344 123.445312 35.066406 122.601562 C 35.730469 121.757812 36.949219 121.613281 37.792969 122.28125 C 48.484375 130.707031 61.351562 135.160156 74.996094 135.160156 C 108.171875 135.160156 135.160156 108.171875 135.160156 74.996094 C 135.160156 63.121094 131.789062 51.84375 125.359375 42.066406 L 124.925781 48.1875 C 124.851562 49.257812 123.925781 50.066406 122.855469 49.988281 C 121.785156 49.914062 120.980469 48.984375 121.054688 47.914062 L 121.867188 36.464844 C 121.90625 35.925781 122.148438 35.421875 122.601562 35.066406 C 123.105469 34.667969 123.550781 34.632812 124.089844 34.671875 L 135.320312 38.371094 C 136.335938 38.707031 136.890625 39.804688 136.550781 40.824219 C 136.214844 41.839844 135.113281 42.390625 134.097656 42.050781 Z M 28.9375 102.078125 L 28.109375 113.71875 C 28.039062 114.621094 26.902344 115.691406 25.550781 115.234375 L 14.675781 111.625 C 13.65625 111.289062 13.105469 110.191406 13.445312 109.171875 C 13.78125 108.15625 14.878906 107.605469 15.898438 107.945312 L 21.144531 109.683594 C 14.460938 99.363281 10.953125 87.488281 10.953125 74.996094 C 10.953125 39.605469 39.605469 10.953125 74.996094 10.953125 C 89.523438 10.953125 103.222656 15.695312 114.609375 24.667969 C 115.449219 25.328125 115.59375 26.550781 114.929688 27.394531 C 114.265625 28.238281 113.046875 28.382812 112.203125 27.714844 C 101.507812 19.289062 88.644531 14.835938 74.996094 14.835938 C 41.824219 14.835938 14.835938 41.824219 14.835938 74.996094 C 14.835938 86.871094 18.207031 98.152344 24.636719 107.925781 L 25.070312 101.804688 C 25.144531 100.738281 26.070312 99.929688 27.140625 100.007812 C 28.210938 100.082031 29.015625 101.011719 28.9375 102.078125 Z M 28.9375 102.078125 " fill-opacity="1" fill-rule="evenodd"/></g></svg>