<svg xmlns="http://www.w3.org/2000/svg" xmlns:xlink="http://www.w3.org/1999/xlink" width="200" zoomAndPan="magnify" viewBox="0 0 150 149.999998" height="200" preserveAspectRatio="xMidYMid meet" version="1.0"><defs><clipPath id="1b62d829fc"><path d="M 11.398438 12.03125 L 138.898438 12.03125 L 138.898438 138 L 11.398438 138 Z M 11.398438 12.03125 " clip-rule="nonzero"/></clipPath></defs><g clip-path="url(#1b62d829fc)"><path fill="#27ffbf" d="M 80.015625 100.351562 L 76.761719 100.351562 L 76.761719 87.050781 C 77.03125 87.066406 77.296875 87.078125 77.566406 87.078125 C 84.226562 87.078125 89.648438 81.660156 89.648438 74.996094 C 89.648438 68.335938 84.226562 62.914062 77.566406 62.914062 C 77.296875 62.914062 77.03125 62.929688 76.761719 62.945312 L 76.761719 49.644531 L 80.015625 49.644531 C 81.433594 49.644531 82.585938 50.792969 82.585938 52.210938 L 82.585938 53.761719 C 82.585938 55.078125 83.402344 56.25 84.636719 56.71875 C 85.011719 56.859375 85.382812 57.011719 85.746094 57.175781 C 86.949219 57.722656 88.359375 57.476562 89.292969 56.539062 L 90.386719 55.445312 C 91.390625 54.441406 93.019531 54.441406 94.027344 55.445312 L 97.269531 58.691406 C 98.273438 59.695312 98.273438 61.324219 97.269531 62.328125 L 96.175781 63.421875 C 95.242188 64.355469 94.996094 65.769531 95.539062 66.972656 C 95.703125 67.335938 95.855469 67.707031 96 68.082031 C 96.464844 69.3125 97.640625 70.128906 98.957031 70.128906 L 100.503906 70.128906 C 101.921875 70.128906 103.074219 71.28125 103.074219 72.703125 L 103.074219 77.292969 C 103.074219 78.714844 101.921875 79.863281 100.503906 79.863281 L 98.957031 79.863281 C 97.640625 79.863281 96.464844 80.683594 96 81.914062 C 95.855469 82.289062 95.703125 82.660156 95.539062 83.023438 C 94.996094 84.226562 95.242188 85.636719 96.175781 86.574219 L 97.269531 87.667969 C 98.273438 88.671875 98.273438 90.300781 97.269531 91.304688 L 94.027344 94.546875 C 93.019531 95.550781 91.390625 95.550781 90.386719 94.546875 L 89.292969 93.457031 C 88.359375 92.519531 86.949219 92.273438 85.746094 92.816406 C 85.382812 92.984375 85.011719 93.132812 84.636719 93.277344 C 83.402344 93.746094 82.585938 94.917969 82.585938 96.234375 L 82.585938 97.78125 C 82.585938 99.199219 81.433594 100.351562 80.015625 100.351562 Z M 86.96875 74.996094 C 86.96875 69.8125 82.75 65.59375 77.566406 65.59375 C 77.296875 65.59375 77.027344 65.609375 76.761719 65.628906 L 76.761719 84.367188 C 77.027344 84.386719 77.296875 84.402344 77.566406 84.402344 C 82.75 84.402344 86.96875 80.183594 86.96875 74.996094 Z M 86.507812 39.859375 L 95.316406 25.351562 C 95.738281 25.46875 96.175781 25.535156 96.632812 25.535156 C 99.359375 25.535156 101.566406 23.328125 101.566406 20.601562 C 101.566406 17.878906 99.359375 15.671875 96.632812 15.671875 C 93.910156 15.671875 91.703125 17.878906 91.703125 20.601562 C 91.703125 21.902344 92.207031 23.078125 93.027344 23.960938 L 84.609375 37.824219 L 76.761719 37.824219 L 76.761719 40.503906 L 85.363281 40.503906 C 85.832031 40.503906 86.265625 40.257812 86.507812 39.859375 Z M 96.632812 124.460938 C 96.175781 124.460938 95.738281 124.527344 95.316406 124.644531 L 86.507812 110.136719 C 86.265625 109.738281 85.832031 109.492188 85.363281 109.492188 L 76.761719 109.492188 L 76.761719 112.171875 L 84.609375 112.171875 L 93.027344 126.035156 C 92.207031 126.914062 91.703125 128.09375 91.703125 129.394531 C 91.703125 132.117188 93.910156 134.324219 96.632812 134.324219 C 99.359375 134.324219 101.566406 132.117188 101.566406 129.394531 C 101.566406 126.667969 99.359375 124.460938 96.632812 124.460938 Z M 98.410156 56.046875 L 106.484375 47.972656 L 118.109375 47.972656 C 118.691406 50.046875 120.59375 51.566406 122.851562 51.566406 C 125.578125 51.566406 127.785156 49.359375 127.785156 46.636719 C 127.785156 43.910156 125.578125 41.703125 122.851562 41.703125 C 120.59375 41.703125 118.691406 43.222656 118.109375 45.296875 L 105.929688 45.296875 C 105.574219 45.296875 105.234375 45.4375 104.980469 45.6875 L 96.519531 54.152344 Z M 122.851562 98.429688 C 120.59375 98.429688 118.691406 99.949219 118.109375 102.023438 L 106.484375 102.023438 L 98.410156 93.949219 L 96.515625 95.84375 L 104.980469 104.308594 C 105.234375 104.558594 105.574219 104.699219 105.929688 104.699219 L 118.109375 104.699219 C 118.691406 106.773438 120.59375 108.292969 122.851562 108.292969 C 125.578125 108.292969 127.785156 106.085938 127.785156 103.359375 C 127.785156 100.636719 125.578125 98.429688 122.851562 98.429688 Z M 133.660156 70.066406 C 131.402344 70.066406 129.5 71.585938 128.917969 73.660156 L 105.753906 73.660156 L 105.753906 76.335938 L 128.917969 76.335938 C 129.5 78.410156 131.402344 79.929688 133.660156 79.929688 C 136.382812 79.929688 138.59375 77.722656 138.59375 74.996094 C 138.59375 72.273438 136.382812 70.066406 133.660156 70.066406 Z M 74.085938 24.742188 L 74.085938 116.191406 C 73.9375 116.132812 73.785156 116.074219 73.628906 116.027344 C 70.492188 115.09375 66.15625 116.875 64.164062 119.917969 C 61.640625 123.78125 61.453125 128.269531 63.714844 130.832031 C 63.980469 131.132812 64.347656 131.289062 64.71875 131.289062 C 65.035156 131.289062 65.351562 131.175781 65.605469 130.953125 C 66.160156 130.464844 66.210938 129.617188 65.722656 129.0625 C 64.28125 127.425781 64.566406 124.195312 66.40625 121.382812 C 67.859375 119.164062 71.070312 118.058594 72.863281 118.59375 C 73.707031 118.847656 74.085938 119.398438 74.085938 120.386719 L 74.085938 127.953125 C 74.085938 133.453125 69.613281 137.925781 64.113281 137.925781 C 58.613281 137.925781 54.140625 133.453125 54.140625 127.953125 C 54.140625 125.683594 54.882812 123.546875 56.289062 121.769531 C 56.746094 121.191406 56.648438 120.347656 56.070312 119.890625 C 55.488281 119.429688 54.648438 119.527344 54.1875 120.109375 C 52.40625 122.359375 51.460938 125.074219 51.460938 127.953125 C 51.460938 128.597656 51.511719 129.230469 51.605469 129.851562 C 50.722656 130.042969 49.816406 130.140625 48.902344 130.140625 C 41.957031 130.140625 36.308594 124.527344 36.308594 117.621094 C 36.308594 116.234375 36.535156 114.878906 36.980469 113.582031 C 39.414062 113.191406 41.730469 112.273438 43.789062 110.867188 C 44.402344 110.449219 44.558594 109.617188 44.140625 109.007812 C 43.726562 108.394531 42.890625 108.238281 42.28125 108.65625 C 39.914062 110.269531 37.136719 111.125 34.257812 111.125 C 26.398438 111.125 20 104.730469 20 96.867188 C 20 93.75 21.027344 90.722656 22.902344 88.253906 C 25.953125 89.765625 29.355469 90.6875 32.964844 90.867188 C 32.988281 90.871094 33.007812 90.871094 33.03125 90.871094 C 33.742188 90.871094 34.332031 90.3125 34.367188 89.597656 C 34.40625 88.859375 33.835938 88.230469 33.097656 88.195312 C 20.929688 87.585938 11.398438 77.558594 11.398438 65.363281 C 11.398438 55.457031 17.78125 46.722656 27.078125 43.65625 C 27.949219 46.796875 29.660156 49.65625 32.109375 51.96875 C 32.367188 52.210938 32.699219 52.332031 33.027344 52.332031 C 33.382812 52.332031 33.738281 52.191406 34 51.914062 C 34.507812 51.375 34.484375 50.527344 33.949219 50.023438 C 30.816406 47.0625 29.089844 43.0625 29.089844 38.757812 C 29.089844 30.214844 36.039062 23.265625 44.582031 23.265625 C 45.097656 23.265625 45.613281 23.292969 46.125 23.34375 C 46.085938 23.804688 46.058594 24.273438 46.058594 24.742188 C 46.058594 27.863281 46.988281 30.863281 48.75 33.425781 C 49.167969 34.035156 50 34.191406 50.609375 33.773438 C 51.21875 33.351562 51.375 32.519531 50.957031 31.910156 C 49.503906 29.796875 48.738281 27.320312 48.738281 24.742188 C 48.738281 17.753906 54.421875 12.070312 61.410156 12.070312 C 68.398438 12.070312 74.085938 17.753906 74.085938 24.742188 Z M 58.320312 99.203125 C 58.152344 98.484375 57.4375 98.039062 56.71875 98.203125 C 56 98.371094 55.550781 99.089844 55.714844 99.808594 C 55.792969 100.160156 57.585938 108.484375 49.695312 113.550781 C 49.074219 113.953125 48.894531 114.78125 49.292969 115.402344 C 49.550781 115.800781 49.980469 116.019531 50.421875 116.019531 C 50.667969 116.019531 50.921875 115.949219 51.144531 115.804688 C 56.109375 112.617188 57.800781 108.277344 58.347656 105.199219 C 58.933594 101.882812 58.347656 99.308594 58.320312 99.203125 Z M 63.445312 84.347656 C 57.507812 83.011719 52.683594 83.941406 48.914062 85.726562 C 48.3125 76.296875 42.925781 71.554688 38.351562 69.214844 C 33.152344 66.550781 28 66.402344 27.78125 66.398438 C 27.039062 66.382812 26.433594 66.964844 26.414062 67.707031 C 26.394531 68.445312 26.980469 69.058594 27.71875 69.078125 C 27.765625 69.078125 32.550781 69.226562 37.207031 71.636719 C 43.15625 74.710938 46.207031 79.949219 46.289062 87.199219 C 44.902344 88.105469 43.703125 89.105469 42.6875 90.089844 C 38.4375 94.210938 36.53125 98.808594 36.449219 99 C 36.171875 99.683594 36.5 100.464844 37.183594 100.746094 C 37.347656 100.8125 37.519531 100.847656 37.691406 100.847656 C 38.214844 100.847656 38.714844 100.53125 38.929688 100.015625 C 38.945312 99.972656 40.742188 95.679688 44.617188 91.949219 C 49.699219 87.058594 55.835938 85.378906 62.855469 86.957031 C 63.578125 87.121094 64.292969 86.667969 64.457031 85.945312 C 64.621094 85.226562 64.167969 84.507812 63.445312 84.347656 Z M 65.257812 67.539062 C 64.214844 60.609375 60.710938 56.535156 56.78125 53.445312 C 63.332031 46.835938 64.671875 40.644531 64.605469 36.535156 C 64.527344 31.78125 62.625 28.714844 62.542969 28.585938 C 62.148438 27.960938 61.320312 27.773438 60.695312 28.167969 C 60.070312 28.5625 59.882812 29.390625 60.277344 30.015625 C 60.34375 30.117188 66.453125 40.15625 54.597656 51.84375 C 53.746094 51.25 52.894531 50.6875 52.058594 50.136719 C 47.539062 47.160156 43.273438 44.351562 41.753906 38.8125 C 41.558594 38.097656 40.824219 37.679688 40.109375 37.875 C 39.398438 38.070312 38.976562 38.804688 39.171875 39.519531 C 40.957031 46.03125 45.851562 49.253906 50.585938 52.375 C 56.113281 56.015625 61.332031 59.453125 62.609375 67.9375 C 62.710938 68.601562 63.28125 69.078125 63.933594 69.078125 C 64 69.078125 64.066406 69.070312 64.132812 69.0625 C 64.867188 68.953125 65.367188 68.269531 65.257812 67.539062 Z M 65.257812 67.539062 " fill-opacity="1" fill-rule="nonzero"/></g></svg>