<svg xmlns="http://www.w3.org/2000/svg" xmlns:xlink="http://www.w3.org/1999/xlink" width="200" zoomAndPan="magnify" viewBox="0 0 150 149.999998" height="200" preserveAspectRatio="xMidYMid meet" version="1.0"><defs><clipPath id="983b25f888"><path d="M 15 15 L 134.851562 15 L 134.851562 135 L 15 135 Z M 15 15 " clip-rule="nonzero"/></clipPath></defs><g clip-path="url(#983b25f888)"><path fill="#27ffbf" d="M 114.933594 67.96875 L 128.15625 67.96875 L 128.15625 124.621094 C 128.15625 130.328125 123.488281 134.996094 117.785156 134.996094 L 36.003906 134.996094 C 30.300781 134.996094 25.632812 130.328125 25.632812 124.621094 L 25.632812 67.96875 L 38.859375 67.96875 L 38.859375 121.769531 L 114.929688 121.769531 L 114.929688 67.96875 Z M 71.558594 42.140625 C 71.667969 42.1875 71.777344 42.21875 71.890625 42.238281 L 71.890625 32.898438 C 71.890625 30.136719 74.132812 27.894531 76.894531 27.894531 C 79.660156 27.894531 81.898438 30.132812 81.898438 32.898438 L 81.898438 42.238281 C 82.011719 42.21875 82.125 42.1875 82.234375 42.140625 C 87.550781 39.960938 90.988281 34.84375 90.988281 29.09375 C 90.988281 21.324219 84.664062 15.003906 76.894531 15.003906 C 69.128906 15.003906 62.804688 21.324219 62.804688 29.09375 C 62.804688 34.84375 66.242188 39.960938 71.558594 42.140625 Z M 130.992188 33.414062 L 112.097656 33.414062 C 109.816406 33.414062 107.960938 35.265625 107.960938 37.546875 L 107.960938 41.992188 L 115.171875 41.992188 C 117.933594 41.992188 120.175781 44.234375 120.175781 46.996094 C 120.175781 49.757812 117.933594 52 115.171875 52 L 107.960938 52 L 107.960938 56.441406 C 107.960938 58.722656 109.816406 60.578125 112.097656 60.578125 L 130.992188 60.578125 C 133.273438 60.578125 135.128906 58.722656 135.128906 56.441406 L 135.128906 37.546875 C 135.128906 35.265625 133.273438 33.414062 130.992188 33.414062 Z M 49.039062 59.792969 C 49.625 58.738281 49.597656 57.410156 48.976562 56.410156 L 46.214844 51.996094 L 37.28125 51.996094 C 34.519531 51.996094 32.277344 49.753906 32.277344 46.992188 C 32.277344 44.230469 34.519531 41.988281 37.28125 41.988281 L 39.964844 41.988281 L 35.035156 34.09375 C 34.429688 33.128906 33.386719 32.550781 32.246094 32.550781 C 31.105469 32.550781 30.066406 33.125 29.460938 34.09375 L 15.519531 56.410156 C 14.894531 57.410156 14.871094 58.738281 15.457031 59.792969 C 16.027344 60.824219 17.09375 61.4375 18.304688 61.4375 L 46.1875 61.4375 C 47.402344 61.4375 48.46875 60.824219 49.039062 59.792969 Z M 76.894531 31.230469 C 75.976562 31.230469 75.226562 31.976562 75.226562 32.898438 L 75.226562 54.324219 L 73.933594 52.777344 C 73.34375 52.074219 72.289062 51.980469 71.582031 52.566406 C 70.878906 53.160156 70.785156 54.210938 71.375 54.917969 L 75.617188 59.984375 C 75.933594 60.363281 76.402344 60.582031 76.894531 60.582031 C 77.390625 60.582031 77.859375 60.363281 78.175781 59.984375 L 82.417969 54.917969 C 83.007812 54.210938 82.914062 53.160156 82.207031 52.566406 C 81.5 51.976562 80.449219 52.070312 79.859375 52.777344 L 78.5625 54.324219 L 78.5625 32.898438 C 78.5625 31.976562 77.816406 31.230469 76.894531 31.230469 Z M 88.421875 60.382812 C 87.714844 60.972656 87.621094 62.027344 88.214844 62.730469 L 92.457031 67.796875 C 92.773438 68.175781 93.238281 68.394531 93.734375 68.394531 C 94.226562 68.394531 94.691406 68.175781 95.007812 67.796875 L 99.25 62.730469 C 99.84375 62.027344 99.75 60.972656 99.042969 60.382812 C 98.339844 59.789062 97.285156 59.882812 96.695312 60.589844 L 95.402344 62.136719 L 95.402344 50.332031 C 95.402344 49.410156 96.148438 48.664062 97.070312 48.664062 L 115.167969 48.664062 C 116.089844 48.664062 116.835938 47.917969 116.835938 46.996094 C 116.835938 46.074219 116.089844 45.328125 115.167969 45.328125 L 97.070312 45.328125 C 94.308594 45.328125 92.0625 47.570312 92.0625 50.332031 L 92.0625 62.136719 L 90.769531 60.589844 C 90.175781 59.882812 89.125 59.789062 88.421875 60.382812 Z M 35.613281 46.996094 C 35.613281 47.917969 36.359375 48.664062 37.28125 48.664062 L 56.722656 48.664062 C 57.644531 48.664062 58.390625 49.410156 58.390625 50.332031 L 58.390625 62.136719 L 57.097656 60.589844 C 56.503906 59.882812 55.453125 59.789062 54.746094 60.382812 C 54.039062 60.972656 53.949219 62.027344 54.535156 62.730469 L 58.777344 67.796875 C 59.09375 68.175781 59.566406 68.394531 60.058594 68.394531 C 60.550781 68.394531 61.019531 68.175781 61.335938 67.796875 L 65.578125 62.730469 C 66.171875 62.027344 66.078125 60.972656 65.371094 60.382812 C 64.664062 59.789062 63.613281 59.882812 63.019531 60.589844 L 61.726562 62.136719 L 61.726562 50.332031 C 61.726562 47.570312 59.480469 45.324219 56.722656 45.324219 L 37.277344 45.324219 C 36.359375 45.328125 35.613281 46.074219 35.613281 46.996094 Z M 52.660156 78.375 C 52.660156 80.414062 57.574219 82.054688 59.058594 82.523438 C 63.597656 83.953125 69.902344 84.839844 76.894531 84.839844 C 83.890625 84.839844 90.191406 83.953125 94.730469 82.523438 C 98.683594 81.277344 101.128906 79.792969 101.128906 78.375 C 101.128906 76.953125 98.683594 75.472656 94.730469 74.226562 C 90.191406 72.792969 83.890625 71.90625 76.894531 71.90625 C 69.902344 71.90625 63.597656 72.792969 59.058594 74.226562 C 57.574219 74.691406 52.660156 76.335938 52.660156 78.375 Z M 97.394531 101.574219 C 98.804688 100.976562 100.0625 100.292969 101.128906 99.515625 L 101.128906 111.15625 C 100.34375 112.652344 98.527344 113.9375 96.046875 114.992188 C 91.203125 117.050781 84.066406 118.082031 76.894531 118.082031 C 69.722656 118.082031 62.589844 117.050781 57.742188 114.992188 C 55.265625 113.9375 53.449219 112.652344 52.660156 111.15625 L 52.660156 99.515625 C 53.730469 100.292969 54.984375 100.976562 56.394531 101.574219 C 61.683594 103.824219 69.3125 104.949219 76.894531 104.949219 C 84.480469 104.949219 92.105469 103.824219 97.394531 101.574219 Z M 93.386719 109.316406 C 93.183594 108.386719 92.265625 107.804688 91.339844 108.007812 L 89.140625 108.503906 C 88.214844 108.707031 87.628906 109.621094 87.835938 110.550781 C 88.039062 111.476562 88.953125 112.058594 89.882812 111.855469 L 92.082031 111.363281 C 93.003906 111.160156 93.59375 110.242188 93.386719 109.316406 Z M 101.128906 94.574219 C 100.34375 96.070312 98.527344 97.355469 96.046875 98.410156 C 91.203125 100.472656 84.066406 101.503906 76.894531 101.503906 C 69.722656 101.503906 62.589844 100.46875 57.742188 98.410156 C 55.265625 97.359375 53.449219 96.074219 52.660156 94.574219 L 52.660156 83.402344 C 54.078125 84.324219 55.890625 85.132812 58.023438 85.804688 C 62.878906 87.339844 69.554688 88.285156 76.894531 88.285156 C 84.238281 88.285156 90.914062 87.339844 95.765625 85.804688 C 97.898438 85.132812 99.710938 84.324219 101.128906 83.398438 Z M 93.386719 92.714844 C 93.183594 91.789062 92.265625 91.203125 91.339844 91.410156 L 89.140625 91.902344 C 88.214844 92.105469 87.628906 93.019531 87.835938 93.949219 C 88.039062 94.875 88.953125 95.460938 89.882812 95.253906 L 92.082031 94.761719 C 93.003906 94.554688 93.59375 93.640625 93.386719 92.714844 Z M 93.386719 92.714844 " fill-opacity="1" fill-rule="nonzero"/></g></svg>