<svg xmlns="http://www.w3.org/2000/svg" xmlns:xlink="http://www.w3.org/1999/xlink" width="200" zoomAndPan="magnify" viewBox="0 0 150 149.999998" height="200" preserveAspectRatio="xMidYMid meet" version="1.0"><defs><clipPath id="166dcb64dc"><path d="M 11.210938 11.210938 L 138.710938 11.210938 L 138.710938 138.710938 L 11.210938 138.710938 Z M 11.210938 11.210938 " clip-rule="nonzero"/></clipPath></defs><g clip-path="url(#166dcb64dc)"><path fill="#27ffbf" d="M 76.28125 103.65625 L 76.28125 137.476562 C 76.28125 138.195312 75.699219 138.78125 74.980469 138.78125 L 70.90625 138.78125 C 67.570312 138.78125 64.78125 136.609375 63.964844 133.375 L 61.683594 124.308594 C 57.433594 123.160156 53.34375 121.46875 49.515625 119.265625 L 41.484375 124.058594 C 38.628906 125.769531 35.121094 125.332031 32.753906 122.976562 L 26.996094 117.21875 C 24.636719 114.863281 24.203125 111.351562 25.914062 108.484375 L 30.707031 100.453125 C 28.503906 96.621094 26.808594 92.539062 25.667969 88.296875 L 16.601562 86.003906 C 13.371094 85.191406 11.199219 82.402344 11.199219 79.066406 L 11.199219 70.917969 C 11.199219 67.582031 13.371094 64.792969 16.601562 63.980469 L 25.667969 61.695312 C 26.808594 57.449219 28.5 53.367188 30.707031 49.53125 L 25.914062 41.5 C 24.203125 38.640625 24.636719 35.132812 26.996094 32.769531 L 32.753906 27.011719 C 35.121094 24.652344 38.628906 24.21875 41.484375 25.925781 L 49.515625 30.71875 C 53.347656 28.515625 57.4375 26.824219 61.683594 25.683594 L 63.964844 16.609375 C 64.785156 13.375 67.574219 11.203125 70.90625 11.203125 L 74.980469 11.203125 C 75.699219 11.203125 76.28125 11.789062 76.28125 12.507812 L 76.28125 46.335938 C 76.28125 47.058594 75.699219 47.636719 74.980469 47.636719 C 59.898438 47.636719 47.625 59.910156 47.625 74.992188 C 47.625 90.078125 59.898438 102.355469 74.980469 102.355469 C 75.699219 102.355469 76.28125 102.9375 76.28125 103.65625 Z M 138.210938 73.925781 L 115.324219 57.984375 C 114.925781 57.707031 114.40625 57.671875 113.976562 57.898438 C 113.546875 58.121094 113.277344 58.566406 113.277344 59.050781 L 113.277344 66.457031 L 86.992188 66.457031 C 84.21875 62.5625 79.78125 60.257812 74.980469 60.257812 C 66.855469 60.257812 60.246094 66.871094 60.246094 74.992188 C 60.246094 83.117188 66.855469 89.726562 74.980469 89.726562 C 79.785156 89.726562 84.222656 87.425781 86.992188 83.535156 L 113.277344 83.535156 L 113.277344 90.933594 C 113.277344 91.417969 113.546875 91.863281 113.976562 92.085938 C 114.167969 92.1875 114.371094 92.234375 114.582031 92.234375 C 114.839844 92.234375 115.101562 92.15625 115.324219 92 L 138.210938 76.0625 C 138.558594 75.816406 138.765625 75.417969 138.765625 74.992188 C 138.765625 74.566406 138.558594 74.167969 138.210938 73.925781 Z M 85.371094 28.605469 C 94.238281 30.582031 102.25 35.015625 108.667969 41.46875 L 103.691406 39.820312 C 103.507812 39.761719 103.316406 39.730469 103.121094 39.730469 C 102.332031 39.730469 101.636719 40.234375 101.386719 40.984375 C 101.074219 41.941406 101.59375 42.972656 102.546875 43.285156 L 113.832031 47.019531 C 114.015625 47.082031 114.207031 47.113281 114.402344 47.113281 C 114.851562 47.113281 115.28125 46.949219 115.613281 46.652344 C 116.101562 46.222656 116.320312 45.558594 116.1875 44.917969 L 113.78125 33.28125 C 113.609375 32.4375 112.859375 31.828125 111.992188 31.828125 C 111.871094 31.828125 111.75 31.839844 111.628906 31.863281 C 110.644531 32.066406 110.007812 33.035156 110.210938 34.019531 L 111.210938 38.859375 C 104.304688 31.929688 95.683594 27.167969 86.164062 25.042969 C 86.035156 25.015625 85.902344 25 85.769531 25 C 84.921875 25 84.171875 25.597656 83.988281 26.425781 C 83.773438 27.40625 84.390625 28.382812 85.371094 28.605469 Z M 114.402344 102.875 C 114.207031 102.875 114.015625 102.90625 113.828125 102.96875 L 102.542969 106.699219 C 101.59375 107.015625 101.074219 108.050781 101.386719 109.003906 C 101.636719 109.753906 102.332031 110.253906 103.117188 110.253906 C 103.3125 110.253906 103.507812 110.222656 103.691406 110.164062 L 108.671875 108.511719 C 102.253906 114.96875 94.238281 119.402344 85.371094 121.382812 C 84.390625 121.601562 83.769531 122.578125 83.988281 123.558594 C 84.175781 124.386719 84.921875 124.984375 85.769531 124.984375 C 85.902344 124.984375 86.035156 124.96875 86.164062 124.941406 C 95.683594 122.816406 104.308594 118.054688 111.210938 111.128906 L 110.210938 115.972656 C 110.007812 116.957031 110.644531 117.925781 111.628906 118.128906 C 111.746094 118.152344 111.867188 118.164062 111.996094 118.164062 C 112.859375 118.164062 113.609375 117.554688 113.78125 116.710938 L 116.191406 105.066406 C 116.320312 104.429688 116.097656 103.765625 115.617188 103.335938 C 115.28125 103.039062 114.851562 102.875 114.402344 102.875 Z M 114.402344 102.875 " fill-opacity="1" fill-rule="nonzero"/></g></svg>