<svg xmlns="http://www.w3.org/2000/svg" xmlns:xlink="http://www.w3.org/1999/xlink" width="200" zoomAndPan="magnify" viewBox="0 0 150 149.999998" height="200" preserveAspectRatio="xMidYMid meet" version="1.0"><defs><clipPath id="2a82547ef3"><path d="M 7.5 127 L 137 127 L 137 135.75 L 7.5 135.75 Z M 7.5 127 " clip-rule="nonzero"/></clipPath></defs><path fill="#27ffbf" d="M 123 44.445312 L 130.578125 50.15625 C 140.726562 43.960938 142.453125 29.875 134.007812 21.441406 C 126.832031 14.253906 115.179688 14.253906 108.003906 21.441406 C 101.863281 27.582031 100.835938 37.207031 105.601562 44.496094 L 111.085938 40.070312 C 109.050781 35.804688 112.15625 30.808594 116.929688 30.808594 C 122.675781 30.808594 125.570312 37.792969 121.503906 41.851562 C 119.199219 44.164062 115.539062 44.394531 112.964844 42.394531 L 107.433594 46.855469 C 110.90625 50.652344 115.820312 52.894531 121.316406 52.835938 L 120.613281 45.777344 C 120.484375 44.488281 121.972656 43.664062 123 44.445312 Z M 123 44.445312 " fill-opacity="1" fill-rule="nonzero"/><path fill="#27ffbf" d="M 135.488281 57.613281 L 123.925781 48.890625 L 125.363281 63.304688 L 127.503906 62.097656 C 128.222656 61.699219 129.132812 61.953125 129.539062 62.675781 L 134.527344 71.5625 L 137.773438 69.738281 L 132.785156 60.851562 C 132.378906 60.128906 132.632812 59.21875 133.355469 58.8125 Z M 135.488281 57.613281 " fill-opacity="1" fill-rule="nonzero"/><path fill="#27ffbf" d="M 119.390625 34.828125 C 117.207031 32.644531 113.457031 34.199219 113.457031 37.28125 C 113.457031 40.367188 117.203125 41.921875 119.390625 39.738281 C 120.75 38.378906 120.75 36.179688 119.390625 34.828125 Z M 119.390625 34.828125 " fill-opacity="1" fill-rule="nonzero"/><path fill="#27ffbf" d="M 99.355469 50.96875 C 97.171875 48.785156 93.425781 50.339844 93.425781 53.425781 C 93.425781 56.515625 97.171875 58.0625 99.355469 55.886719 C 100.71875 54.53125 100.71875 52.328125 99.355469 50.96875 Z M 99.355469 50.96875 " fill-opacity="1" fill-rule="nonzero"/><path fill="#27ffbf" d="M 84.40625 41.402344 C 82.222656 39.222656 78.472656 40.773438 78.472656 43.859375 C 78.472656 46.941406 82.21875 48.496094 84.40625 46.3125 C 85.765625 44.964844 85.765625 42.765625 84.40625 41.402344 Z M 84.40625 41.402344 " fill-opacity="1" fill-rule="nonzero"/><path fill="#27ffbf" d="M 42.429688 72.769531 C 40.246094 70.585938 36.496094 72.140625 36.496094 75.234375 C 36.496094 78.316406 40.242188 79.875 42.429688 77.6875 C 43.789062 76.328125 43.789062 74.128906 42.429688 72.769531 Z M 42.429688 72.769531 " fill-opacity="1" fill-rule="nonzero"/><path fill="#27ffbf" d="M 29.539062 62.03125 C 27.355469 59.851562 23.609375 61.402344 23.609375 64.496094 C 23.609375 67.578125 27.355469 69.136719 29.539062 66.949219 C 30.902344 65.589844 30.902344 63.390625 29.539062 62.03125 Z M 29.539062 62.03125 " fill-opacity="1" fill-rule="nonzero"/><path fill="#27ffbf" d="M 13.996094 73.398438 C 11.808594 71.210938 8.0625 72.765625 8.0625 75.851562 C 8.0625 78.933594 11.808594 80.492188 13.996094 78.304688 C 15.351562 76.949219 15.351562 74.75 13.996094 73.398438 Z M 13.996094 73.398438 " fill-opacity="1" fill-rule="nonzero"/><g clip-path="url(#2a82547ef3)"><path fill="#27ffbf" d="M 136.425781 127.386719 L 8.023438 127.386719 C 7.886719 127.386719 7.765625 127.449219 7.675781 127.542969 L 7.675781 127.53125 L 7.53125 127.878906 L 7.53125 135.246094 C 7.53125 135.375 7.589844 135.5 7.675781 135.585938 L 7.675781 135.59375 C 7.765625 135.679688 7.886719 135.738281 8.023438 135.738281 L 136.425781 135.738281 C 136.6875 135.738281 136.914062 135.507812 136.914062 135.246094 L 136.914062 127.878906 C 136.914062 127.617188 136.6875 127.386719 136.425781 127.386719 Z M 136.425781 127.386719 " fill-opacity="1" fill-rule="nonzero"/></g><path fill="#27ffbf" d="M 101.125 73.882812 L 115.234375 73.882812 L 115.234375 124.398438 L 101.125 124.398438 Z M 101.125 73.882812 " fill-opacity="1" fill-rule="nonzero"/><path fill="#27ffbf" d="M 84.015625 92.582031 L 98.125 92.582031 L 98.125 124.398438 L 84.015625 124.398438 Z M 84.015625 92.582031 " fill-opacity="1" fill-rule="nonzero"/><path fill="#27ffbf" d="M 66.914062 84.027344 L 81.015625 84.027344 L 81.015625 124.398438 L 66.914062 124.398438 Z M 66.914062 84.027344 " fill-opacity="1" fill-rule="nonzero"/><path fill="#27ffbf" d="M 49.804688 96.761719 L 63.914062 96.761719 L 63.914062 124.398438 L 49.804688 124.398438 Z M 49.804688 96.761719 " fill-opacity="1" fill-rule="nonzero"/><path fill="#27ffbf" d="M 32.695312 87.613281 L 46.804688 87.613281 L 46.804688 124.398438 L 32.695312 124.398438 Z M 32.695312 87.613281 " fill-opacity="1" fill-rule="nonzero"/><path fill="#27ffbf" d="M 15.59375 95.960938 L 29.695312 95.960938 L 29.695312 124.398438 L 15.59375 124.398438 Z M 15.59375 95.960938 " fill-opacity="1" fill-rule="nonzero"/><path fill="#27ffbf" d="M 16.492188 74.113281 C 15.828125 74.597656 14.894531 74.453125 14.402344 73.789062 C 13.917969 73.117188 14.0625 72.183594 14.726562 71.699219 L 22.246094 66.203125 C 22.910156 65.71875 23.851562 65.863281 24.335938 66.527344 C 24.816406 67.191406 24.683594 68.132812 24.011719 68.617188 Z M 30.007812 68.800781 C 29.378906 68.273438 29.285156 67.339844 29.8125 66.703125 C 30.339844 66.070312 31.28125 65.980469 31.921875 66.507812 L 37.164062 70.886719 C 37.800781 71.414062 37.882812 72.355469 37.355469 72.984375 C 36.828125 73.621094 35.886719 73.707031 35.257812 73.179688 Z M 44.910156 73.441406 C 44.246094 73.933594 43.3125 73.796875 42.8125 73.136719 C 42.320312 72.472656 42.457031 71.53125 43.117188 71.039062 L 77.125 45.621094 C 77.789062 45.128906 78.730469 45.261719 79.222656 45.925781 C 79.714844 46.589844 79.578125 47.53125 78.917969 48.023438 Z M 85.390625 47.785156 C 84.703125 47.34375 84.496094 46.417969 84.941406 45.71875 C 85.382812 45.03125 86.300781 44.824219 86.996094 45.269531 L 93.574219 49.472656 C 94.269531 49.914062 94.472656 50.839844 94.03125 51.53125 C 93.582031 52.226562 92.664062 52.429688 91.964844 51.988281 Z M 101.761719 51.457031 C 101.121094 51.972656 100.179688 51.871094 99.664062 51.222656 C 99.144531 50.585938 99.246094 49.644531 99.894531 49.125 L 112.179688 39.222656 C 112.824219 38.703125 113.765625 38.804688 114.285156 39.453125 C 114.804688 40.097656 114.703125 41.039062 114.054688 41.550781 Z M 101.761719 51.457031 " fill-opacity="1" fill-rule="nonzero"/></svg>