<svg xmlns="http://www.w3.org/2000/svg" xmlns:xlink="http://www.w3.org/1999/xlink" width="200" zoomAndPan="magnify" viewBox="0 0 150 149.999998" height="200" preserveAspectRatio="xMidYMid meet" version="1.0"><defs><clipPath id="41a914716b"><path d="M 8.914062 8.914062 L 140.914062 8.914062 L 140.914062 140.914062 L 8.914062 140.914062 Z M 8.914062 8.914062 " clip-rule="nonzero"/></clipPath></defs><g clip-path="url(#41a914716b)"><path fill="#27ffbf" d="M 26.632812 114.75 C 26.558594 115.980469 25.394531 116.984375 23.855469 116.464844 L 12.761719 112.785156 C 11.714844 112.4375 11.148438 111.308594 11.492188 110.265625 C 11.839844 109.21875 12.96875 108.652344 14.011719 108.996094 L 18.742188 110.566406 C 18.976562 110.644531 19.183594 110.382812 19.050781 110.171875 C 2.667969 84.15625 6.417969 50.125 28.269531 28.269531 C 52 4.542969 89.621094 2.414062 115.863281 23.066406 C 116.730469 23.75 116.882812 25.003906 116.199219 25.875 C 115.515625 26.742188 114.257812 26.894531 113.390625 26.210938 C 88.710938 6.785156 53.378906 8.828125 31.101562 31.101562 C 10.496094 51.707031 7.023438 83.875 22.601562 108.304688 C 22.738281 108.519531 23.074219 108.433594 23.089844 108.179688 L 23.480469 102.65625 C 23.558594 101.554688 24.515625 100.726562 25.617188 100.804688 C 26.71875 100.882812 27.550781 101.835938 27.472656 102.9375 Z M 42.960938 98.371094 C 44.828125 95.144531 42.496094 91.054688 38.734375 91.054688 C 34.425781 91.054688 32.207031 96.300781 35.285156 99.382812 C 37.570312 101.667969 41.367188 101.125 42.960938 98.371094 Z M 77.851562 112.914062 C 74.632812 110.585938 70.121094 112.902344 70.121094 116.867188 C 70.121094 121.203125 75.382812 123.382812 78.445312 120.316406 C 80.578125 118.183594 80.277344 114.667969 77.851562 112.914062 Z M 102.582031 93.230469 L 81.675781 81.160156 C 81.566406 81.097656 81.4375 81.117188 81.351562 81.203125 C 77.863281 84.769531 72.128906 84.769531 68.644531 81.203125 C 68.554688 81.117188 68.425781 81.097656 68.316406 81.160156 L 47.414062 93.230469 C 47.304688 93.289062 47.253906 93.414062 47.289062 93.53125 C 47.726562 95.097656 47.726562 96.769531 47.289062 98.335938 C 47.253906 98.457031 47.304688 98.578125 47.410156 98.640625 L 68.320312 110.707031 C 68.425781 110.769531 68.554688 110.75 68.644531 110.660156 C 72.125 107.09375 77.867188 107.09375 81.351562 110.660156 C 81.4375 110.75 81.566406 110.769531 81.675781 110.707031 L 92.125 104.671875 L 92.128906 104.675781 L 102.582031 98.640625 C 102.6875 98.578125 102.738281 98.457031 102.707031 98.335938 C 102.265625 96.769531 102.265625 95.097656 102.703125 93.53125 C 102.738281 93.414062 102.6875 93.289062 102.582031 93.230469 Z M 109.257812 91.484375 C 105.875 93.007812 105.339844 97.667969 108.398438 99.886719 C 111.605469 102.207031 116.136719 99.917969 116.136719 95.933594 C 116.136719 92.363281 112.445312 90.046875 109.257812 91.484375 Z M 106.382812 54.058594 C 106.382812 58.417969 111.660156 60.558594 114.707031 57.507812 C 117.773438 54.445312 115.59375 49.183594 111.257812 49.183594 C 108.554688 49.183594 106.382812 51.375 106.382812 54.058594 Z M 77.199219 66.390625 C 82.011719 67.613281 84.894531 72.597656 83.550781 77.398438 C 83.519531 77.515625 83.566406 77.636719 83.675781 77.699219 L 104.582031 89.769531 C 104.6875 89.832031 104.820312 89.8125 104.90625 89.726562 C 106.03125 88.570312 107.464844 87.730469 109.054688 87.324219 C 109.175781 87.292969 109.257812 87.191406 109.257812 87.066406 L 109.257812 62.925781 C 109.257812 62.800781 109.175781 62.699219 109.054688 62.667969 C 104.257812 61.445312 101.351562 56.472656 102.707031 51.65625 C 102.738281 51.539062 102.6875 51.414062 102.582031 51.351562 L 81.675781 39.285156 C 81.566406 39.226562 81.4375 39.242188 81.351562 39.332031 C 80.214844 40.496094 78.78125 41.328125 77.199219 41.730469 C 77.082031 41.761719 77 41.867188 77 41.992188 L 77 66.132812 C 77 66.253906 77.082031 66.359375 77.199219 66.390625 Z M 71.546875 36.574219 C 74.601562 39.628906 79.875 37.46875 79.875 33.125 C 79.875 28.789062 74.609375 26.613281 71.546875 29.675781 C 69.636719 31.585938 69.648438 34.675781 71.546875 36.574219 Z M 47.617188 54.058594 C 47.617188 58.167969 44.8125 61.679688 40.9375 62.667969 C 40.816406 62.699219 40.738281 62.800781 40.738281 62.925781 L 40.738281 87.066406 C 40.738281 87.191406 40.816406 87.292969 40.9375 87.324219 C 42.527344 87.730469 43.960938 88.570312 45.085938 89.726562 C 45.175781 89.8125 45.304688 89.832031 45.414062 89.769531 L 66.316406 77.699219 C 66.425781 77.636719 66.476562 77.515625 66.441406 77.398438 C 65.105469 72.628906 67.941406 67.625 72.792969 66.390625 C 72.914062 66.359375 72.992188 66.253906 72.992188 66.132812 L 72.992188 41.992188 C 72.992188 41.867188 72.914062 41.761719 72.792969 41.730469 C 71.195312 41.324219 69.761719 40.480469 68.640625 39.332031 C 68.554688 39.242188 68.425781 39.226562 68.316406 39.289062 L 47.410156 51.351562 C 47.304688 51.414062 47.253906 51.539062 47.289062 51.65625 C 47.503906 52.421875 47.617188 53.226562 47.617188 54.058594 Z M 41.59375 50.109375 C 38.390625 47.785156 33.855469 50.074219 33.855469 54.058594 C 33.855469 58.417969 39.132812 60.558594 42.183594 57.507812 C 44.316406 55.378906 44.015625 51.863281 41.59375 50.109375 Z M 126.511719 47.335938 L 126.902344 41.8125 C 126.921875 41.558594 127.257812 41.472656 127.394531 41.6875 C 142.972656 66.121094 139.496094 98.285156 118.890625 118.890625 C 96.617188 141.167969 61.285156 143.207031 36.601562 123.78125 C 35.734375 123.101562 34.476562 123.25 33.792969 124.117188 C 33.113281 124.988281 33.261719 126.246094 34.132812 126.925781 C 60.371094 147.578125 97.996094 145.453125 121.722656 121.722656 C 143.578125 99.867188 147.324219 65.839844 130.941406 39.820312 C 130.808594 39.609375 131.015625 39.347656 131.253906 39.425781 L 135.980469 40.996094 C 137.027344 41.339844 138.15625 40.773438 138.5 39.730469 C 138.847656 38.683594 138.277344 37.554688 137.234375 37.210938 C 133.691406 36.035156 129.273438 34.144531 125.746094 33.40625 C 124.667969 33.1875 123.625 33.894531 123.398438 34.957031 L 122.523438 47.054688 C 122.445312 48.15625 123.273438 49.113281 124.375 49.1875 C 125.476562 49.265625 126.433594 48.4375 126.511719 47.335938 Z M 126.511719 47.335938 " fill-opacity="1" fill-rule="evenodd"/></g></svg>